G04 #@! TF.GenerationSoftware,KiCad,Pcbnew,(5.1.5)-3*
G04 #@! TF.CreationDate,2020-05-31T07:49:41+02:00*
G04 #@! TF.ProjectId,hotairpistol,686f7461-6972-4706-9973-746f6c2e6b69,rev?*
G04 #@! TF.SameCoordinates,Original*
G04 #@! TF.FileFunction,Soldermask,Bot*
G04 #@! TF.FilePolarity,Negative*
%FSLAX46Y46*%
G04 Gerber Fmt 4.6, Leading zero omitted, Abs format (unit mm)*
G04 Created by KiCad (PCBNEW (5.1.5)-3) date 2020-05-31 07:49:41*
%MOMM*%
%LPD*%
G04 APERTURE LIST*
%ADD10C,0.100000*%
G04 APERTURE END LIST*
D10*
G36*
X117723256Y-107611298D02*
G01*
X117829579Y-107632447D01*
X118042037Y-107720450D01*
X118122764Y-107753888D01*
X118130042Y-107756903D01*
X118400451Y-107937585D01*
X118630415Y-108167549D01*
X118811097Y-108437958D01*
X118935553Y-108738421D01*
X118956702Y-108844744D01*
X118999000Y-109057389D01*
X118999000Y-109382611D01*
X118979328Y-109481506D01*
X118935553Y-109701579D01*
X118811097Y-110002042D01*
X118630415Y-110272451D01*
X118400451Y-110502415D01*
X118130042Y-110683097D01*
X117829579Y-110807553D01*
X117723256Y-110828702D01*
X117510611Y-110871000D01*
X117185389Y-110871000D01*
X116972744Y-110828702D01*
X116866421Y-110807553D01*
X116565958Y-110683097D01*
X116295549Y-110502415D01*
X116065585Y-110272451D01*
X115884903Y-110002042D01*
X115760447Y-109701579D01*
X115716672Y-109481506D01*
X115697000Y-109382611D01*
X115697000Y-109057389D01*
X115739298Y-108844744D01*
X115760447Y-108738421D01*
X115884903Y-108437958D01*
X116065585Y-108167549D01*
X116295549Y-107937585D01*
X116565958Y-107756903D01*
X116573237Y-107753888D01*
X116653963Y-107720450D01*
X116866421Y-107632447D01*
X116972744Y-107611298D01*
X117185389Y-107569000D01*
X117510611Y-107569000D01*
X117723256Y-107611298D01*
G37*
G36*
X182747256Y-107611298D02*
G01*
X182853579Y-107632447D01*
X183066037Y-107720450D01*
X183146764Y-107753888D01*
X183154042Y-107756903D01*
X183424451Y-107937585D01*
X183654415Y-108167549D01*
X183835097Y-108437958D01*
X183959553Y-108738421D01*
X183980702Y-108844744D01*
X184023000Y-109057389D01*
X184023000Y-109382611D01*
X184003328Y-109481506D01*
X183959553Y-109701579D01*
X183835097Y-110002042D01*
X183654415Y-110272451D01*
X183424451Y-110502415D01*
X183154042Y-110683097D01*
X182853579Y-110807553D01*
X182747256Y-110828702D01*
X182534611Y-110871000D01*
X182209389Y-110871000D01*
X181996744Y-110828702D01*
X181890421Y-110807553D01*
X181589958Y-110683097D01*
X181319549Y-110502415D01*
X181089585Y-110272451D01*
X180908903Y-110002042D01*
X180784447Y-109701579D01*
X180740672Y-109481506D01*
X180721000Y-109382611D01*
X180721000Y-109057389D01*
X180763298Y-108844744D01*
X180784447Y-108738421D01*
X180908903Y-108437958D01*
X181089585Y-108167549D01*
X181319549Y-107937585D01*
X181589958Y-107756903D01*
X181597237Y-107753888D01*
X181677963Y-107720450D01*
X181890421Y-107632447D01*
X181996744Y-107611298D01*
X182209389Y-107569000D01*
X182534611Y-107569000D01*
X182747256Y-107611298D01*
G37*
G36*
X150579766Y-108711899D02*
G01*
X150711888Y-108766626D01*
X150711890Y-108766627D01*
X150830798Y-108846079D01*
X150931921Y-108947202D01*
X151005547Y-109057391D01*
X151011374Y-109066112D01*
X151066101Y-109198234D01*
X151094000Y-109338494D01*
X151094000Y-109481506D01*
X151066101Y-109621766D01*
X151033041Y-109701579D01*
X151011373Y-109753890D01*
X150931921Y-109872798D01*
X150830798Y-109973921D01*
X150711890Y-110053373D01*
X150711889Y-110053374D01*
X150711888Y-110053374D01*
X150579766Y-110108101D01*
X150439506Y-110136000D01*
X150296494Y-110136000D01*
X150156234Y-110108101D01*
X150024112Y-110053374D01*
X150024111Y-110053374D01*
X150024110Y-110053373D01*
X149905202Y-109973921D01*
X149804079Y-109872798D01*
X149724627Y-109753890D01*
X149702959Y-109701579D01*
X149669899Y-109621766D01*
X149642000Y-109481506D01*
X149642000Y-109338494D01*
X149669899Y-109198234D01*
X149724626Y-109066112D01*
X149730453Y-109057391D01*
X149804079Y-108947202D01*
X149905202Y-108846079D01*
X150024110Y-108766627D01*
X150024112Y-108766626D01*
X150156234Y-108711899D01*
X150296494Y-108684000D01*
X150439506Y-108684000D01*
X150579766Y-108711899D01*
G37*
G36*
X147713000Y-109613000D02*
G01*
X145911000Y-109613000D01*
X145911000Y-107811000D01*
X147713000Y-107811000D01*
X147713000Y-109613000D01*
G37*
G36*
X140601000Y-109613000D02*
G01*
X138799000Y-109613000D01*
X138799000Y-107811000D01*
X140601000Y-107811000D01*
X140601000Y-109613000D01*
G37*
G36*
X144157000Y-109613000D02*
G01*
X142355000Y-109613000D01*
X142355000Y-107811000D01*
X144157000Y-107811000D01*
X144157000Y-109613000D01*
G37*
G36*
X150579766Y-106711899D02*
G01*
X150711888Y-106766626D01*
X150711890Y-106766627D01*
X150830798Y-106846079D01*
X150931921Y-106947202D01*
X151011373Y-107066110D01*
X151011374Y-107066112D01*
X151066101Y-107198234D01*
X151094000Y-107338494D01*
X151094000Y-107481506D01*
X151066101Y-107621766D01*
X151011374Y-107753888D01*
X151011373Y-107753890D01*
X150931921Y-107872798D01*
X150830798Y-107973921D01*
X150711890Y-108053373D01*
X150711889Y-108053374D01*
X150711888Y-108053374D01*
X150579766Y-108108101D01*
X150439506Y-108136000D01*
X150296494Y-108136000D01*
X150156234Y-108108101D01*
X150024112Y-108053374D01*
X150024111Y-108053374D01*
X150024110Y-108053373D01*
X149905202Y-107973921D01*
X149804079Y-107872798D01*
X149724627Y-107753890D01*
X149724626Y-107753888D01*
X149669899Y-107621766D01*
X149642000Y-107481506D01*
X149642000Y-107338494D01*
X149669899Y-107198234D01*
X149724626Y-107066112D01*
X149724627Y-107066110D01*
X149804079Y-106947202D01*
X149905202Y-106846079D01*
X150024110Y-106766627D01*
X150024112Y-106766626D01*
X150156234Y-106711899D01*
X150296494Y-106684000D01*
X150439506Y-106684000D01*
X150579766Y-106711899D01*
G37*
G36*
X139813512Y-105275927D02*
G01*
X139962812Y-105305624D01*
X140126784Y-105373544D01*
X140274354Y-105472147D01*
X140399853Y-105597646D01*
X140498456Y-105745216D01*
X140566376Y-105909188D01*
X140601000Y-106083259D01*
X140601000Y-106260741D01*
X140566376Y-106434812D01*
X140498456Y-106598784D01*
X140399853Y-106746354D01*
X140274354Y-106871853D01*
X140126784Y-106970456D01*
X139962812Y-107038376D01*
X139823380Y-107066110D01*
X139788742Y-107073000D01*
X139611258Y-107073000D01*
X139576620Y-107066110D01*
X139437188Y-107038376D01*
X139273216Y-106970456D01*
X139125646Y-106871853D01*
X139000147Y-106746354D01*
X138901544Y-106598784D01*
X138833624Y-106434812D01*
X138799000Y-106260741D01*
X138799000Y-106083259D01*
X138833624Y-105909188D01*
X138901544Y-105745216D01*
X139000147Y-105597646D01*
X139125646Y-105472147D01*
X139273216Y-105373544D01*
X139437188Y-105305624D01*
X139586488Y-105275927D01*
X139611258Y-105271000D01*
X139788742Y-105271000D01*
X139813512Y-105275927D01*
G37*
G36*
X146925512Y-105275927D02*
G01*
X147074812Y-105305624D01*
X147238784Y-105373544D01*
X147386354Y-105472147D01*
X147511853Y-105597646D01*
X147610456Y-105745216D01*
X147678376Y-105909188D01*
X147713000Y-106083259D01*
X147713000Y-106260741D01*
X147678376Y-106434812D01*
X147610456Y-106598784D01*
X147511853Y-106746354D01*
X147386354Y-106871853D01*
X147238784Y-106970456D01*
X147074812Y-107038376D01*
X146935380Y-107066110D01*
X146900742Y-107073000D01*
X146723258Y-107073000D01*
X146688620Y-107066110D01*
X146549188Y-107038376D01*
X146385216Y-106970456D01*
X146237646Y-106871853D01*
X146112147Y-106746354D01*
X146013544Y-106598784D01*
X145945624Y-106434812D01*
X145911000Y-106260741D01*
X145911000Y-106083259D01*
X145945624Y-105909188D01*
X146013544Y-105745216D01*
X146112147Y-105597646D01*
X146237646Y-105472147D01*
X146385216Y-105373544D01*
X146549188Y-105305624D01*
X146698488Y-105275927D01*
X146723258Y-105271000D01*
X146900742Y-105271000D01*
X146925512Y-105275927D01*
G37*
G36*
X143369512Y-105275927D02*
G01*
X143518812Y-105305624D01*
X143682784Y-105373544D01*
X143830354Y-105472147D01*
X143955853Y-105597646D01*
X144054456Y-105745216D01*
X144122376Y-105909188D01*
X144157000Y-106083259D01*
X144157000Y-106260741D01*
X144122376Y-106434812D01*
X144054456Y-106598784D01*
X143955853Y-106746354D01*
X143830354Y-106871853D01*
X143682784Y-106970456D01*
X143518812Y-107038376D01*
X143379380Y-107066110D01*
X143344742Y-107073000D01*
X143167258Y-107073000D01*
X143132620Y-107066110D01*
X142993188Y-107038376D01*
X142829216Y-106970456D01*
X142681646Y-106871853D01*
X142556147Y-106746354D01*
X142457544Y-106598784D01*
X142389624Y-106434812D01*
X142355000Y-106260741D01*
X142355000Y-106083259D01*
X142389624Y-105909188D01*
X142457544Y-105745216D01*
X142556147Y-105597646D01*
X142681646Y-105472147D01*
X142829216Y-105373544D01*
X142993188Y-105305624D01*
X143142488Y-105275927D01*
X143167258Y-105271000D01*
X143344742Y-105271000D01*
X143369512Y-105275927D01*
G37*
G36*
X151094000Y-106136000D02*
G01*
X149642000Y-106136000D01*
X149642000Y-104684000D01*
X151094000Y-104684000D01*
X151094000Y-106136000D01*
G37*
G36*
X171047315Y-104814166D02*
G01*
X171091843Y-104827674D01*
X171132892Y-104849615D01*
X171168864Y-104879136D01*
X171198385Y-104915108D01*
X171220326Y-104956157D01*
X171233834Y-105000685D01*
X171239000Y-105053140D01*
X171239000Y-105766860D01*
X171233834Y-105819315D01*
X171220326Y-105863843D01*
X171198385Y-105904892D01*
X171168864Y-105940864D01*
X171132892Y-105970385D01*
X171091843Y-105992326D01*
X171047315Y-106005834D01*
X170994860Y-106011000D01*
X169581140Y-106011000D01*
X169528685Y-106005834D01*
X169484157Y-105992326D01*
X169443108Y-105970385D01*
X169407136Y-105940864D01*
X169377615Y-105904892D01*
X169355674Y-105863843D01*
X169342166Y-105819315D01*
X169337000Y-105766860D01*
X169337000Y-105053140D01*
X169342166Y-105000685D01*
X169355674Y-104956157D01*
X169377615Y-104915108D01*
X169407136Y-104879136D01*
X169443108Y-104849615D01*
X169484157Y-104827674D01*
X169528685Y-104814166D01*
X169581140Y-104809000D01*
X170994860Y-104809000D01*
X171047315Y-104814166D01*
G37*
G36*
X158703674Y-103908465D02*
G01*
X158741367Y-103919899D01*
X158776103Y-103938466D01*
X158806548Y-103963452D01*
X158831534Y-103993897D01*
X158850101Y-104028633D01*
X158861535Y-104066326D01*
X158866000Y-104111661D01*
X158866000Y-104948339D01*
X158861535Y-104993674D01*
X158850101Y-105031367D01*
X158831534Y-105066103D01*
X158806548Y-105096548D01*
X158776103Y-105121534D01*
X158741367Y-105140101D01*
X158703674Y-105151535D01*
X158658339Y-105156000D01*
X157571661Y-105156000D01*
X157526326Y-105151535D01*
X157488633Y-105140101D01*
X157453897Y-105121534D01*
X157423452Y-105096548D01*
X157398466Y-105066103D01*
X157379899Y-105031367D01*
X157368465Y-104993674D01*
X157364000Y-104948339D01*
X157364000Y-104111661D01*
X157368465Y-104066326D01*
X157379899Y-104028633D01*
X157398466Y-103993897D01*
X157423452Y-103963452D01*
X157453897Y-103938466D01*
X157488633Y-103919899D01*
X157526326Y-103908465D01*
X157571661Y-103904000D01*
X158658339Y-103904000D01*
X158703674Y-103908465D01*
G37*
G36*
X161243674Y-103908465D02*
G01*
X161281367Y-103919899D01*
X161316103Y-103938466D01*
X161346548Y-103963452D01*
X161371534Y-103993897D01*
X161390101Y-104028633D01*
X161401535Y-104066326D01*
X161406000Y-104111661D01*
X161406000Y-104948339D01*
X161401535Y-104993674D01*
X161390101Y-105031367D01*
X161371534Y-105066103D01*
X161346548Y-105096548D01*
X161316103Y-105121534D01*
X161281367Y-105140101D01*
X161243674Y-105151535D01*
X161198339Y-105156000D01*
X160111661Y-105156000D01*
X160066326Y-105151535D01*
X160028633Y-105140101D01*
X159993897Y-105121534D01*
X159963452Y-105096548D01*
X159938466Y-105066103D01*
X159919899Y-105031367D01*
X159908465Y-104993674D01*
X159904000Y-104948339D01*
X159904000Y-104111661D01*
X159908465Y-104066326D01*
X159919899Y-104028633D01*
X159938466Y-103993897D01*
X159963452Y-103963452D01*
X159993897Y-103938466D01*
X160028633Y-103919899D01*
X160066326Y-103908465D01*
X160111661Y-103904000D01*
X161198339Y-103904000D01*
X161243674Y-103908465D01*
G37*
G36*
X181088512Y-103243927D02*
G01*
X181237812Y-103273624D01*
X181401784Y-103341544D01*
X181549354Y-103440147D01*
X181674853Y-103565646D01*
X181773456Y-103713216D01*
X181841376Y-103877188D01*
X181876000Y-104051259D01*
X181876000Y-104228741D01*
X181841376Y-104402812D01*
X181773456Y-104566784D01*
X181674853Y-104714354D01*
X181549354Y-104839853D01*
X181401784Y-104938456D01*
X181237812Y-105006376D01*
X181093715Y-105035038D01*
X181063742Y-105041000D01*
X180886258Y-105041000D01*
X180856285Y-105035038D01*
X180712188Y-105006376D01*
X180548216Y-104938456D01*
X180400646Y-104839853D01*
X180275147Y-104714354D01*
X180176544Y-104566784D01*
X180108624Y-104402812D01*
X180074000Y-104228741D01*
X180074000Y-104051259D01*
X180108624Y-103877188D01*
X180176544Y-103713216D01*
X180275147Y-103565646D01*
X180400646Y-103440147D01*
X180548216Y-103341544D01*
X180712188Y-103273624D01*
X180861488Y-103243927D01*
X180886258Y-103239000D01*
X181063742Y-103239000D01*
X181088512Y-103243927D01*
G37*
G36*
X176796000Y-105041000D02*
G01*
X174994000Y-105041000D01*
X174994000Y-103239000D01*
X176796000Y-103239000D01*
X176796000Y-105041000D01*
G37*
G36*
X178548512Y-103243927D02*
G01*
X178697812Y-103273624D01*
X178861784Y-103341544D01*
X179009354Y-103440147D01*
X179134853Y-103565646D01*
X179233456Y-103713216D01*
X179301376Y-103877188D01*
X179336000Y-104051259D01*
X179336000Y-104228741D01*
X179301376Y-104402812D01*
X179233456Y-104566784D01*
X179134853Y-104714354D01*
X179009354Y-104839853D01*
X178861784Y-104938456D01*
X178697812Y-105006376D01*
X178553715Y-105035038D01*
X178523742Y-105041000D01*
X178346258Y-105041000D01*
X178316285Y-105035038D01*
X178172188Y-105006376D01*
X178008216Y-104938456D01*
X177860646Y-104839853D01*
X177735147Y-104714354D01*
X177636544Y-104566784D01*
X177568624Y-104402812D01*
X177534000Y-104228741D01*
X177534000Y-104051259D01*
X177568624Y-103877188D01*
X177636544Y-103713216D01*
X177735147Y-103565646D01*
X177860646Y-103440147D01*
X178008216Y-103341544D01*
X178172188Y-103273624D01*
X178321488Y-103243927D01*
X178346258Y-103239000D01*
X178523742Y-103239000D01*
X178548512Y-103243927D01*
G37*
G36*
X173117315Y-103544166D02*
G01*
X173161843Y-103557674D01*
X173202892Y-103579615D01*
X173238864Y-103609136D01*
X173268385Y-103645108D01*
X173290326Y-103686157D01*
X173303834Y-103730685D01*
X173309000Y-103783140D01*
X173309000Y-104496860D01*
X173303834Y-104549315D01*
X173290326Y-104593843D01*
X173268385Y-104634892D01*
X173238864Y-104670864D01*
X173202892Y-104700385D01*
X173161843Y-104722326D01*
X173117315Y-104735834D01*
X173064860Y-104741000D01*
X171651140Y-104741000D01*
X171598685Y-104735834D01*
X171554157Y-104722326D01*
X171513108Y-104700385D01*
X171477136Y-104670864D01*
X171447615Y-104634892D01*
X171425674Y-104593843D01*
X171412166Y-104549315D01*
X171407000Y-104496860D01*
X171407000Y-103783140D01*
X171412166Y-103730685D01*
X171425675Y-103686153D01*
X171442368Y-103654923D01*
X171448417Y-103640320D01*
X171460624Y-103629256D01*
X171477136Y-103609136D01*
X171513108Y-103579615D01*
X171554157Y-103557674D01*
X171598685Y-103544166D01*
X171651140Y-103539000D01*
X173064860Y-103539000D01*
X173117315Y-103544166D01*
G37*
G36*
X148808674Y-102377465D02*
G01*
X148846367Y-102388899D01*
X148881103Y-102407466D01*
X148911548Y-102432452D01*
X148936534Y-102462897D01*
X148955101Y-102497633D01*
X148966535Y-102535326D01*
X148971000Y-102580661D01*
X148971000Y-103667339D01*
X148966535Y-103712674D01*
X148955101Y-103750367D01*
X148936534Y-103785103D01*
X148911548Y-103815548D01*
X148881103Y-103840534D01*
X148846367Y-103859101D01*
X148808674Y-103870535D01*
X148763339Y-103875000D01*
X147926661Y-103875000D01*
X147881326Y-103870535D01*
X147843633Y-103859101D01*
X147808897Y-103840534D01*
X147778452Y-103815548D01*
X147753466Y-103785103D01*
X147734899Y-103750367D01*
X147723465Y-103712674D01*
X147719000Y-103667339D01*
X147719000Y-102580661D01*
X147723465Y-102535326D01*
X147734899Y-102497633D01*
X147753466Y-102462897D01*
X147778452Y-102432452D01*
X147808897Y-102407466D01*
X147843633Y-102388899D01*
X147881326Y-102377465D01*
X147926661Y-102373000D01*
X148763339Y-102373000D01*
X148808674Y-102377465D01*
G37*
G36*
X146758674Y-102377465D02*
G01*
X146796367Y-102388899D01*
X146831103Y-102407466D01*
X146861548Y-102432452D01*
X146886534Y-102462897D01*
X146905101Y-102497633D01*
X146916535Y-102535326D01*
X146921000Y-102580661D01*
X146921000Y-103667339D01*
X146916535Y-103712674D01*
X146905101Y-103750367D01*
X146886534Y-103785103D01*
X146861548Y-103815548D01*
X146831103Y-103840534D01*
X146796367Y-103859101D01*
X146758674Y-103870535D01*
X146713339Y-103875000D01*
X145876661Y-103875000D01*
X145831326Y-103870535D01*
X145793633Y-103859101D01*
X145758897Y-103840534D01*
X145728452Y-103815548D01*
X145703466Y-103785103D01*
X145684899Y-103750367D01*
X145673465Y-103712674D01*
X145669000Y-103667339D01*
X145669000Y-102580661D01*
X145673465Y-102535326D01*
X145684899Y-102497633D01*
X145703466Y-102462897D01*
X145728452Y-102432452D01*
X145758897Y-102407466D01*
X145793633Y-102388899D01*
X145831326Y-102377465D01*
X145876661Y-102373000D01*
X146713339Y-102373000D01*
X146758674Y-102377465D01*
G37*
G36*
X142694674Y-102377465D02*
G01*
X142732367Y-102388899D01*
X142767103Y-102407466D01*
X142797548Y-102432452D01*
X142822534Y-102462897D01*
X142841101Y-102497633D01*
X142852535Y-102535326D01*
X142857000Y-102580661D01*
X142857000Y-103667339D01*
X142852535Y-103712674D01*
X142841101Y-103750367D01*
X142822534Y-103785103D01*
X142797548Y-103815548D01*
X142767103Y-103840534D01*
X142732367Y-103859101D01*
X142694674Y-103870535D01*
X142649339Y-103875000D01*
X141812661Y-103875000D01*
X141767326Y-103870535D01*
X141729633Y-103859101D01*
X141694897Y-103840534D01*
X141664452Y-103815548D01*
X141639466Y-103785103D01*
X141620899Y-103750367D01*
X141609465Y-103712674D01*
X141605000Y-103667339D01*
X141605000Y-102580661D01*
X141609465Y-102535326D01*
X141620899Y-102497633D01*
X141639466Y-102462897D01*
X141664452Y-102432452D01*
X141694897Y-102407466D01*
X141729633Y-102388899D01*
X141767326Y-102377465D01*
X141812661Y-102373000D01*
X142649339Y-102373000D01*
X142694674Y-102377465D01*
G37*
G36*
X144744674Y-102377465D02*
G01*
X144782367Y-102388899D01*
X144817103Y-102407466D01*
X144847548Y-102432452D01*
X144872534Y-102462897D01*
X144891101Y-102497633D01*
X144902535Y-102535326D01*
X144907000Y-102580661D01*
X144907000Y-103667339D01*
X144902535Y-103712674D01*
X144891101Y-103750367D01*
X144872534Y-103785103D01*
X144847548Y-103815548D01*
X144817103Y-103840534D01*
X144782367Y-103859101D01*
X144744674Y-103870535D01*
X144699339Y-103875000D01*
X143862661Y-103875000D01*
X143817326Y-103870535D01*
X143779633Y-103859101D01*
X143744897Y-103840534D01*
X143714452Y-103815548D01*
X143689466Y-103785103D01*
X143670899Y-103750367D01*
X143659465Y-103712674D01*
X143655000Y-103667339D01*
X143655000Y-102580661D01*
X143659465Y-102535326D01*
X143670899Y-102497633D01*
X143689466Y-102462897D01*
X143714452Y-102432452D01*
X143744897Y-102407466D01*
X143779633Y-102388899D01*
X143817326Y-102377465D01*
X143862661Y-102373000D01*
X144699339Y-102373000D01*
X144744674Y-102377465D01*
G37*
G36*
X140680674Y-102377465D02*
G01*
X140718367Y-102388899D01*
X140753103Y-102407466D01*
X140783548Y-102432452D01*
X140808534Y-102462897D01*
X140827101Y-102497633D01*
X140838535Y-102535326D01*
X140843000Y-102580661D01*
X140843000Y-103667339D01*
X140838535Y-103712674D01*
X140827101Y-103750367D01*
X140808534Y-103785103D01*
X140783548Y-103815548D01*
X140753103Y-103840534D01*
X140718367Y-103859101D01*
X140680674Y-103870535D01*
X140635339Y-103875000D01*
X139798661Y-103875000D01*
X139753326Y-103870535D01*
X139715633Y-103859101D01*
X139680897Y-103840534D01*
X139650452Y-103815548D01*
X139625466Y-103785103D01*
X139606899Y-103750367D01*
X139595465Y-103712674D01*
X139591000Y-103667339D01*
X139591000Y-102580661D01*
X139595465Y-102535326D01*
X139606899Y-102497633D01*
X139625466Y-102462897D01*
X139650452Y-102432452D01*
X139680897Y-102407466D01*
X139715633Y-102388899D01*
X139753326Y-102377465D01*
X139798661Y-102373000D01*
X140635339Y-102373000D01*
X140680674Y-102377465D01*
G37*
G36*
X138630674Y-102377465D02*
G01*
X138668367Y-102388899D01*
X138703103Y-102407466D01*
X138733548Y-102432452D01*
X138758534Y-102462897D01*
X138777101Y-102497633D01*
X138788535Y-102535326D01*
X138793000Y-102580661D01*
X138793000Y-103667339D01*
X138788535Y-103712674D01*
X138777101Y-103750367D01*
X138758534Y-103785103D01*
X138733548Y-103815548D01*
X138703103Y-103840534D01*
X138668367Y-103859101D01*
X138630674Y-103870535D01*
X138585339Y-103875000D01*
X137748661Y-103875000D01*
X137703326Y-103870535D01*
X137665633Y-103859101D01*
X137630897Y-103840534D01*
X137600452Y-103815548D01*
X137575466Y-103785103D01*
X137556899Y-103750367D01*
X137545465Y-103712674D01*
X137541000Y-103667339D01*
X137541000Y-102580661D01*
X137545465Y-102535326D01*
X137556899Y-102497633D01*
X137575466Y-102462897D01*
X137600452Y-102432452D01*
X137630897Y-102407466D01*
X137665633Y-102388899D01*
X137703326Y-102377465D01*
X137748661Y-102373000D01*
X138585339Y-102373000D01*
X138630674Y-102377465D01*
G37*
G36*
X171239000Y-103471000D02*
G01*
X169337000Y-103471000D01*
X169337000Y-102269000D01*
X171239000Y-102269000D01*
X171239000Y-103471000D01*
G37*
G36*
X158703674Y-101858465D02*
G01*
X158741367Y-101869899D01*
X158776103Y-101888466D01*
X158806548Y-101913452D01*
X158831534Y-101943897D01*
X158850101Y-101978633D01*
X158861535Y-102016326D01*
X158866000Y-102061661D01*
X158866000Y-102898339D01*
X158861535Y-102943674D01*
X158850101Y-102981367D01*
X158831534Y-103016103D01*
X158806548Y-103046548D01*
X158776103Y-103071534D01*
X158741367Y-103090101D01*
X158703674Y-103101535D01*
X158658339Y-103106000D01*
X157571661Y-103106000D01*
X157526326Y-103101535D01*
X157488633Y-103090101D01*
X157453897Y-103071534D01*
X157423452Y-103046548D01*
X157398466Y-103016103D01*
X157379899Y-102981367D01*
X157368465Y-102943674D01*
X157364000Y-102898339D01*
X157364000Y-102061661D01*
X157368465Y-102016326D01*
X157379899Y-101978633D01*
X157398466Y-101943897D01*
X157423452Y-101913452D01*
X157453897Y-101888466D01*
X157488633Y-101869899D01*
X157526326Y-101858465D01*
X157571661Y-101854000D01*
X158658339Y-101854000D01*
X158703674Y-101858465D01*
G37*
G36*
X161243674Y-101858465D02*
G01*
X161281367Y-101869899D01*
X161316103Y-101888466D01*
X161346548Y-101913452D01*
X161371534Y-101943897D01*
X161390101Y-101978633D01*
X161401535Y-102016326D01*
X161406000Y-102061661D01*
X161406000Y-102898339D01*
X161401535Y-102943674D01*
X161390101Y-102981367D01*
X161371534Y-103016103D01*
X161346548Y-103046548D01*
X161316103Y-103071534D01*
X161281367Y-103090101D01*
X161243674Y-103101535D01*
X161198339Y-103106000D01*
X160111661Y-103106000D01*
X160066326Y-103101535D01*
X160028633Y-103090101D01*
X159993897Y-103071534D01*
X159963452Y-103046548D01*
X159938466Y-103016103D01*
X159919899Y-102981367D01*
X159908465Y-102943674D01*
X159904000Y-102898339D01*
X159904000Y-102061661D01*
X159908465Y-102016326D01*
X159919899Y-101978633D01*
X159938466Y-101943897D01*
X159963452Y-101913452D01*
X159993897Y-101888466D01*
X160028633Y-101869899D01*
X160066326Y-101858465D01*
X160111661Y-101854000D01*
X161198339Y-101854000D01*
X161243674Y-101858465D01*
G37*
G36*
X168856674Y-99583465D02*
G01*
X168894367Y-99594899D01*
X168929103Y-99613466D01*
X168959548Y-99638452D01*
X168984534Y-99668897D01*
X169003101Y-99703633D01*
X169014535Y-99741326D01*
X169019000Y-99786661D01*
X169019000Y-100873339D01*
X169014535Y-100918674D01*
X169003101Y-100956367D01*
X168984534Y-100991103D01*
X168959548Y-101021548D01*
X168929103Y-101046534D01*
X168894367Y-101065101D01*
X168856674Y-101076535D01*
X168811339Y-101081000D01*
X167974661Y-101081000D01*
X167929326Y-101076535D01*
X167891633Y-101065101D01*
X167856897Y-101046534D01*
X167826452Y-101021548D01*
X167801466Y-100991103D01*
X167782899Y-100956367D01*
X167771465Y-100918674D01*
X167767000Y-100873339D01*
X167767000Y-99786661D01*
X167771465Y-99741326D01*
X167782899Y-99703633D01*
X167801466Y-99668897D01*
X167826452Y-99638452D01*
X167856897Y-99613466D01*
X167891633Y-99594899D01*
X167929326Y-99583465D01*
X167974661Y-99579000D01*
X168811339Y-99579000D01*
X168856674Y-99583465D01*
G37*
G36*
X170906674Y-99583465D02*
G01*
X170944367Y-99594899D01*
X170979103Y-99613466D01*
X171009548Y-99638452D01*
X171034534Y-99668897D01*
X171053101Y-99703633D01*
X171064535Y-99741326D01*
X171069000Y-99786661D01*
X171069000Y-100873339D01*
X171064535Y-100918674D01*
X171053101Y-100956367D01*
X171034534Y-100991103D01*
X171009548Y-101021548D01*
X170979103Y-101046534D01*
X170944367Y-101065101D01*
X170906674Y-101076535D01*
X170861339Y-101081000D01*
X170024661Y-101081000D01*
X169979326Y-101076535D01*
X169941633Y-101065101D01*
X169906897Y-101046534D01*
X169876452Y-101021548D01*
X169851466Y-100991103D01*
X169832899Y-100956367D01*
X169821465Y-100918674D01*
X169817000Y-100873339D01*
X169817000Y-99786661D01*
X169821465Y-99741326D01*
X169832899Y-99703633D01*
X169851466Y-99668897D01*
X169876452Y-99638452D01*
X169906897Y-99613466D01*
X169941633Y-99594899D01*
X169979326Y-99583465D01*
X170024661Y-99579000D01*
X170861339Y-99579000D01*
X170906674Y-99583465D01*
G37*
G36*
X129653512Y-98798927D02*
G01*
X129802812Y-98828624D01*
X129966784Y-98896544D01*
X130114354Y-98995147D01*
X130239853Y-99120646D01*
X130338456Y-99268216D01*
X130406376Y-99432188D01*
X130421946Y-99510467D01*
X130441000Y-99606258D01*
X130441000Y-99783742D01*
X130438149Y-99798075D01*
X130406376Y-99957812D01*
X130338456Y-100121784D01*
X130239853Y-100269354D01*
X130114354Y-100394853D01*
X129966784Y-100493456D01*
X129802812Y-100561376D01*
X129653512Y-100591073D01*
X129628742Y-100596000D01*
X129451258Y-100596000D01*
X129426488Y-100591073D01*
X129277188Y-100561376D01*
X129113216Y-100493456D01*
X128965646Y-100394853D01*
X128840147Y-100269354D01*
X128741544Y-100121784D01*
X128673624Y-99957812D01*
X128641851Y-99798075D01*
X128639000Y-99783742D01*
X128639000Y-99606258D01*
X128658054Y-99510467D01*
X128673624Y-99432188D01*
X128741544Y-99268216D01*
X128840147Y-99120646D01*
X128965646Y-98995147D01*
X129113216Y-98896544D01*
X129277188Y-98828624D01*
X129426488Y-98798927D01*
X129451258Y-98794000D01*
X129628742Y-98794000D01*
X129653512Y-98798927D01*
G37*
G36*
X132193512Y-98798927D02*
G01*
X132342812Y-98828624D01*
X132506784Y-98896544D01*
X132654354Y-98995147D01*
X132779853Y-99120646D01*
X132878456Y-99268216D01*
X132946376Y-99432188D01*
X132961946Y-99510467D01*
X132981000Y-99606258D01*
X132981000Y-99783742D01*
X132978149Y-99798075D01*
X132946376Y-99957812D01*
X132878456Y-100121784D01*
X132779853Y-100269354D01*
X132654354Y-100394853D01*
X132506784Y-100493456D01*
X132342812Y-100561376D01*
X132193512Y-100591073D01*
X132168742Y-100596000D01*
X131991258Y-100596000D01*
X131966488Y-100591073D01*
X131817188Y-100561376D01*
X131653216Y-100493456D01*
X131505646Y-100394853D01*
X131380147Y-100269354D01*
X131281544Y-100121784D01*
X131213624Y-99957812D01*
X131181851Y-99798075D01*
X131179000Y-99783742D01*
X131179000Y-99606258D01*
X131198054Y-99510467D01*
X131213624Y-99432188D01*
X131281544Y-99268216D01*
X131380147Y-99120646D01*
X131505646Y-98995147D01*
X131653216Y-98896544D01*
X131817188Y-98828624D01*
X131966488Y-98798927D01*
X131991258Y-98794000D01*
X132168742Y-98794000D01*
X132193512Y-98798927D01*
G37*
G36*
X137273512Y-98798927D02*
G01*
X137422812Y-98828624D01*
X137586784Y-98896544D01*
X137734354Y-98995147D01*
X137859853Y-99120646D01*
X137958456Y-99268216D01*
X138026376Y-99432188D01*
X138041946Y-99510467D01*
X138061000Y-99606258D01*
X138061000Y-99783742D01*
X138058149Y-99798075D01*
X138026376Y-99957812D01*
X137958456Y-100121784D01*
X137859853Y-100269354D01*
X137734354Y-100394853D01*
X137586784Y-100493456D01*
X137422812Y-100561376D01*
X137273512Y-100591073D01*
X137248742Y-100596000D01*
X137071258Y-100596000D01*
X137046488Y-100591073D01*
X136897188Y-100561376D01*
X136733216Y-100493456D01*
X136585646Y-100394853D01*
X136460147Y-100269354D01*
X136361544Y-100121784D01*
X136293624Y-99957812D01*
X136261851Y-99798075D01*
X136259000Y-99783742D01*
X136259000Y-99606258D01*
X136278054Y-99510467D01*
X136293624Y-99432188D01*
X136361544Y-99268216D01*
X136460147Y-99120646D01*
X136585646Y-98995147D01*
X136733216Y-98896544D01*
X136897188Y-98828624D01*
X137046488Y-98798927D01*
X137071258Y-98794000D01*
X137248742Y-98794000D01*
X137273512Y-98798927D01*
G37*
G36*
X139813512Y-98798927D02*
G01*
X139962812Y-98828624D01*
X140126784Y-98896544D01*
X140274354Y-98995147D01*
X140399853Y-99120646D01*
X140498456Y-99268216D01*
X140566376Y-99432188D01*
X140581946Y-99510467D01*
X140601000Y-99606258D01*
X140601000Y-99783742D01*
X140598149Y-99798075D01*
X140566376Y-99957812D01*
X140498456Y-100121784D01*
X140399853Y-100269354D01*
X140274354Y-100394853D01*
X140126784Y-100493456D01*
X139962812Y-100561376D01*
X139813512Y-100591073D01*
X139788742Y-100596000D01*
X139611258Y-100596000D01*
X139586488Y-100591073D01*
X139437188Y-100561376D01*
X139273216Y-100493456D01*
X139125646Y-100394853D01*
X139000147Y-100269354D01*
X138901544Y-100121784D01*
X138833624Y-99957812D01*
X138801851Y-99798075D01*
X138799000Y-99783742D01*
X138799000Y-99606258D01*
X138818054Y-99510467D01*
X138833624Y-99432188D01*
X138901544Y-99268216D01*
X139000147Y-99120646D01*
X139125646Y-98995147D01*
X139273216Y-98896544D01*
X139437188Y-98828624D01*
X139586488Y-98798927D01*
X139611258Y-98794000D01*
X139788742Y-98794000D01*
X139813512Y-98798927D01*
G37*
G36*
X127901000Y-100596000D02*
G01*
X126099000Y-100596000D01*
X126099000Y-98794000D01*
X127901000Y-98794000D01*
X127901000Y-100596000D01*
G37*
G36*
X134733512Y-98798927D02*
G01*
X134882812Y-98828624D01*
X135046784Y-98896544D01*
X135194354Y-98995147D01*
X135319853Y-99120646D01*
X135418456Y-99268216D01*
X135486376Y-99432188D01*
X135501946Y-99510467D01*
X135521000Y-99606258D01*
X135521000Y-99783742D01*
X135518149Y-99798075D01*
X135486376Y-99957812D01*
X135418456Y-100121784D01*
X135319853Y-100269354D01*
X135194354Y-100394853D01*
X135046784Y-100493456D01*
X134882812Y-100561376D01*
X134733512Y-100591073D01*
X134708742Y-100596000D01*
X134531258Y-100596000D01*
X134506488Y-100591073D01*
X134357188Y-100561376D01*
X134193216Y-100493456D01*
X134045646Y-100394853D01*
X133920147Y-100269354D01*
X133821544Y-100121784D01*
X133753624Y-99957812D01*
X133721851Y-99798075D01*
X133719000Y-99783742D01*
X133719000Y-99606258D01*
X133738054Y-99510467D01*
X133753624Y-99432188D01*
X133821544Y-99268216D01*
X133920147Y-99120646D01*
X134045646Y-98995147D01*
X134193216Y-98896544D01*
X134357188Y-98828624D01*
X134506488Y-98798927D01*
X134531258Y-98794000D01*
X134708742Y-98794000D01*
X134733512Y-98798927D01*
G37*
G36*
X183069000Y-100011000D02*
G01*
X181167000Y-100011000D01*
X181167000Y-98109000D01*
X183069000Y-98109000D01*
X183069000Y-100011000D01*
G37*
G36*
X174775395Y-98145546D02*
G01*
X174948466Y-98217234D01*
X174948467Y-98217235D01*
X175104227Y-98321310D01*
X175236690Y-98453773D01*
X175236691Y-98453775D01*
X175340766Y-98609534D01*
X175412454Y-98782605D01*
X175449000Y-98966333D01*
X175449000Y-99153667D01*
X175412454Y-99337395D01*
X175340766Y-99510466D01*
X175340765Y-99510467D01*
X175236690Y-99666227D01*
X175104227Y-99798690D01*
X175025818Y-99851081D01*
X174948466Y-99902766D01*
X174775395Y-99974454D01*
X174591667Y-100011000D01*
X174404333Y-100011000D01*
X174220605Y-99974454D01*
X174047534Y-99902766D01*
X173970182Y-99851081D01*
X173891773Y-99798690D01*
X173759310Y-99666227D01*
X173655235Y-99510467D01*
X173655234Y-99510466D01*
X173583546Y-99337395D01*
X173547000Y-99153667D01*
X173547000Y-98966333D01*
X173583546Y-98782605D01*
X173655234Y-98609534D01*
X173759309Y-98453775D01*
X173759310Y-98453773D01*
X173891773Y-98321310D01*
X174047533Y-98217235D01*
X174047534Y-98217234D01*
X174220605Y-98145546D01*
X174404333Y-98109000D01*
X174591667Y-98109000D01*
X174775395Y-98145546D01*
G37*
G36*
X143583674Y-98313465D02*
G01*
X143621367Y-98324899D01*
X143656103Y-98343466D01*
X143686548Y-98368452D01*
X143711534Y-98398897D01*
X143730101Y-98433633D01*
X143741535Y-98471326D01*
X143746000Y-98516661D01*
X143746000Y-99603339D01*
X143741535Y-99648674D01*
X143730101Y-99686367D01*
X143711534Y-99721103D01*
X143686548Y-99751548D01*
X143656103Y-99776534D01*
X143621367Y-99795101D01*
X143583674Y-99806535D01*
X143538339Y-99811000D01*
X142701661Y-99811000D01*
X142656326Y-99806535D01*
X142618633Y-99795101D01*
X142583897Y-99776534D01*
X142553452Y-99751548D01*
X142528466Y-99721103D01*
X142509899Y-99686367D01*
X142498465Y-99648674D01*
X142494000Y-99603339D01*
X142494000Y-98516661D01*
X142498465Y-98471326D01*
X142509899Y-98433633D01*
X142528466Y-98398897D01*
X142553452Y-98368452D01*
X142583897Y-98343466D01*
X142618633Y-98324899D01*
X142656326Y-98313465D01*
X142701661Y-98309000D01*
X143538339Y-98309000D01*
X143583674Y-98313465D01*
G37*
G36*
X145633674Y-98313465D02*
G01*
X145671367Y-98324899D01*
X145706103Y-98343466D01*
X145736548Y-98368452D01*
X145761534Y-98398897D01*
X145780101Y-98433633D01*
X145791535Y-98471326D01*
X145796000Y-98516661D01*
X145796000Y-99603339D01*
X145791535Y-99648674D01*
X145780101Y-99686367D01*
X145761534Y-99721103D01*
X145736548Y-99751548D01*
X145706103Y-99776534D01*
X145671367Y-99795101D01*
X145633674Y-99806535D01*
X145588339Y-99811000D01*
X144751661Y-99811000D01*
X144706326Y-99806535D01*
X144668633Y-99795101D01*
X144633897Y-99776534D01*
X144603452Y-99751548D01*
X144578466Y-99721103D01*
X144559899Y-99686367D01*
X144548465Y-99648674D01*
X144544000Y-99603339D01*
X144544000Y-98516661D01*
X144548465Y-98471326D01*
X144559899Y-98433633D01*
X144578466Y-98398897D01*
X144603452Y-98368452D01*
X144633897Y-98343466D01*
X144668633Y-98324899D01*
X144706326Y-98313465D01*
X144751661Y-98309000D01*
X145588339Y-98309000D01*
X145633674Y-98313465D01*
G37*
G36*
X145633674Y-96408465D02*
G01*
X145671367Y-96419899D01*
X145706103Y-96438466D01*
X145736548Y-96463452D01*
X145761534Y-96493897D01*
X145780101Y-96528633D01*
X145791535Y-96566326D01*
X145796000Y-96611661D01*
X145796000Y-97698339D01*
X145791535Y-97743674D01*
X145780101Y-97781367D01*
X145761534Y-97816103D01*
X145736548Y-97846548D01*
X145706103Y-97871534D01*
X145671367Y-97890101D01*
X145633674Y-97901535D01*
X145588339Y-97906000D01*
X144751661Y-97906000D01*
X144706326Y-97901535D01*
X144668633Y-97890101D01*
X144633897Y-97871534D01*
X144603452Y-97846548D01*
X144578466Y-97816103D01*
X144559899Y-97781367D01*
X144548465Y-97743674D01*
X144544000Y-97698339D01*
X144544000Y-96611661D01*
X144548465Y-96566326D01*
X144559899Y-96528633D01*
X144578466Y-96493897D01*
X144603452Y-96463452D01*
X144633897Y-96438466D01*
X144668633Y-96419899D01*
X144706326Y-96408465D01*
X144751661Y-96404000D01*
X145588339Y-96404000D01*
X145633674Y-96408465D01*
G37*
G36*
X143583674Y-96408465D02*
G01*
X143621367Y-96419899D01*
X143656103Y-96438466D01*
X143686548Y-96463452D01*
X143711534Y-96493897D01*
X143730101Y-96528633D01*
X143741535Y-96566326D01*
X143746000Y-96611661D01*
X143746000Y-97698339D01*
X143741535Y-97743674D01*
X143730101Y-97781367D01*
X143711534Y-97816103D01*
X143686548Y-97846548D01*
X143656103Y-97871534D01*
X143621367Y-97890101D01*
X143583674Y-97901535D01*
X143538339Y-97906000D01*
X142701661Y-97906000D01*
X142656326Y-97901535D01*
X142618633Y-97890101D01*
X142583897Y-97871534D01*
X142553452Y-97846548D01*
X142528466Y-97816103D01*
X142509899Y-97781367D01*
X142498465Y-97743674D01*
X142494000Y-97698339D01*
X142494000Y-96611661D01*
X142498465Y-96566326D01*
X142509899Y-96528633D01*
X142528466Y-96493897D01*
X142553452Y-96463452D01*
X142583897Y-96438466D01*
X142618633Y-96419899D01*
X142656326Y-96408465D01*
X142701661Y-96404000D01*
X143538339Y-96404000D01*
X143583674Y-96408465D01*
G37*
G36*
X132193512Y-95623927D02*
G01*
X132342812Y-95653624D01*
X132506784Y-95721544D01*
X132654354Y-95820147D01*
X132779853Y-95945646D01*
X132878456Y-96093216D01*
X132946376Y-96257188D01*
X132975578Y-96404000D01*
X132978741Y-96419899D01*
X132981000Y-96431259D01*
X132981000Y-96608741D01*
X132946376Y-96782812D01*
X132878456Y-96946784D01*
X132779853Y-97094354D01*
X132654354Y-97219853D01*
X132506784Y-97318456D01*
X132342812Y-97386376D01*
X132193512Y-97416073D01*
X132168742Y-97421000D01*
X131991258Y-97421000D01*
X131966488Y-97416073D01*
X131817188Y-97386376D01*
X131653216Y-97318456D01*
X131505646Y-97219853D01*
X131380147Y-97094354D01*
X131281544Y-96946784D01*
X131213624Y-96782812D01*
X131179000Y-96608741D01*
X131179000Y-96431259D01*
X131181260Y-96419899D01*
X131184422Y-96404000D01*
X131213624Y-96257188D01*
X131281544Y-96093216D01*
X131380147Y-95945646D01*
X131505646Y-95820147D01*
X131653216Y-95721544D01*
X131817188Y-95653624D01*
X131966488Y-95623927D01*
X131991258Y-95619000D01*
X132168742Y-95619000D01*
X132193512Y-95623927D01*
G37*
G36*
X134733512Y-95623927D02*
G01*
X134882812Y-95653624D01*
X135046784Y-95721544D01*
X135194354Y-95820147D01*
X135319853Y-95945646D01*
X135418456Y-96093216D01*
X135486376Y-96257188D01*
X135515578Y-96404000D01*
X135518741Y-96419899D01*
X135521000Y-96431259D01*
X135521000Y-96608741D01*
X135486376Y-96782812D01*
X135418456Y-96946784D01*
X135319853Y-97094354D01*
X135194354Y-97219853D01*
X135046784Y-97318456D01*
X134882812Y-97386376D01*
X134733512Y-97416073D01*
X134708742Y-97421000D01*
X134531258Y-97421000D01*
X134506488Y-97416073D01*
X134357188Y-97386376D01*
X134193216Y-97318456D01*
X134045646Y-97219853D01*
X133920147Y-97094354D01*
X133821544Y-96946784D01*
X133753624Y-96782812D01*
X133719000Y-96608741D01*
X133719000Y-96431259D01*
X133721260Y-96419899D01*
X133724422Y-96404000D01*
X133753624Y-96257188D01*
X133821544Y-96093216D01*
X133920147Y-95945646D01*
X134045646Y-95820147D01*
X134193216Y-95721544D01*
X134357188Y-95653624D01*
X134506488Y-95623927D01*
X134531258Y-95619000D01*
X134708742Y-95619000D01*
X134733512Y-95623927D01*
G37*
G36*
X137273512Y-95623927D02*
G01*
X137422812Y-95653624D01*
X137586784Y-95721544D01*
X137734354Y-95820147D01*
X137859853Y-95945646D01*
X137958456Y-96093216D01*
X138026376Y-96257188D01*
X138055578Y-96404000D01*
X138058741Y-96419899D01*
X138061000Y-96431259D01*
X138061000Y-96608741D01*
X138026376Y-96782812D01*
X137958456Y-96946784D01*
X137859853Y-97094354D01*
X137734354Y-97219853D01*
X137586784Y-97318456D01*
X137422812Y-97386376D01*
X137273512Y-97416073D01*
X137248742Y-97421000D01*
X137071258Y-97421000D01*
X137046488Y-97416073D01*
X136897188Y-97386376D01*
X136733216Y-97318456D01*
X136585646Y-97219853D01*
X136460147Y-97094354D01*
X136361544Y-96946784D01*
X136293624Y-96782812D01*
X136259000Y-96608741D01*
X136259000Y-96431259D01*
X136261260Y-96419899D01*
X136264422Y-96404000D01*
X136293624Y-96257188D01*
X136361544Y-96093216D01*
X136460147Y-95945646D01*
X136585646Y-95820147D01*
X136733216Y-95721544D01*
X136897188Y-95653624D01*
X137046488Y-95623927D01*
X137071258Y-95619000D01*
X137248742Y-95619000D01*
X137273512Y-95623927D01*
G37*
G36*
X140601000Y-97421000D02*
G01*
X138799000Y-97421000D01*
X138799000Y-95619000D01*
X140601000Y-95619000D01*
X140601000Y-97421000D01*
G37*
G36*
X171047315Y-94908166D02*
G01*
X171091843Y-94921674D01*
X171132892Y-94943615D01*
X171168864Y-94973136D01*
X171198385Y-95009108D01*
X171220326Y-95050157D01*
X171233834Y-95094685D01*
X171239000Y-95147140D01*
X171239000Y-95860860D01*
X171233834Y-95913315D01*
X171220326Y-95957843D01*
X171198385Y-95998892D01*
X171168864Y-96034864D01*
X171132892Y-96064385D01*
X171091843Y-96086326D01*
X171047315Y-96099834D01*
X170994860Y-96105000D01*
X169581140Y-96105000D01*
X169528685Y-96099834D01*
X169484157Y-96086326D01*
X169443108Y-96064385D01*
X169407136Y-96034864D01*
X169377615Y-95998892D01*
X169355674Y-95957843D01*
X169342166Y-95913315D01*
X169337000Y-95860860D01*
X169337000Y-95147140D01*
X169342166Y-95094685D01*
X169355674Y-95050157D01*
X169377615Y-95009108D01*
X169407136Y-94973136D01*
X169443108Y-94943615D01*
X169484157Y-94921674D01*
X169528685Y-94908166D01*
X169581140Y-94903000D01*
X170994860Y-94903000D01*
X171047315Y-94908166D01*
G37*
G36*
X148703512Y-93083927D02*
G01*
X148852812Y-93113624D01*
X149016784Y-93181544D01*
X149164354Y-93280147D01*
X149289853Y-93405646D01*
X149388456Y-93553216D01*
X149456376Y-93717188D01*
X149491000Y-93891259D01*
X149491000Y-94068741D01*
X149456376Y-94242812D01*
X149388456Y-94406784D01*
X149289853Y-94554354D01*
X149164354Y-94679853D01*
X149016784Y-94778456D01*
X148852812Y-94846376D01*
X148703512Y-94876073D01*
X148678742Y-94881000D01*
X148501258Y-94881000D01*
X148476488Y-94876073D01*
X148327188Y-94846376D01*
X148163216Y-94778456D01*
X148015646Y-94679853D01*
X147890147Y-94554354D01*
X147791544Y-94406784D01*
X147723624Y-94242812D01*
X147689000Y-94068741D01*
X147689000Y-93891259D01*
X147723624Y-93717188D01*
X147791544Y-93553216D01*
X147890147Y-93405646D01*
X148015646Y-93280147D01*
X148163216Y-93181544D01*
X148327188Y-93113624D01*
X148476488Y-93083927D01*
X148501258Y-93079000D01*
X148678742Y-93079000D01*
X148703512Y-93083927D01*
G37*
G36*
X152031000Y-94881000D02*
G01*
X150229000Y-94881000D01*
X150229000Y-93079000D01*
X152031000Y-93079000D01*
X152031000Y-94881000D01*
G37*
G36*
X181088512Y-93083927D02*
G01*
X181237812Y-93113624D01*
X181401784Y-93181544D01*
X181549354Y-93280147D01*
X181674853Y-93405646D01*
X181773456Y-93553216D01*
X181841376Y-93717188D01*
X181876000Y-93891259D01*
X181876000Y-94068741D01*
X181841376Y-94242812D01*
X181773456Y-94406784D01*
X181674853Y-94554354D01*
X181549354Y-94679853D01*
X181401784Y-94778456D01*
X181237812Y-94846376D01*
X181088512Y-94876073D01*
X181063742Y-94881000D01*
X180886258Y-94881000D01*
X180861488Y-94876073D01*
X180712188Y-94846376D01*
X180548216Y-94778456D01*
X180400646Y-94679853D01*
X180275147Y-94554354D01*
X180176544Y-94406784D01*
X180108624Y-94242812D01*
X180074000Y-94068741D01*
X180074000Y-93891259D01*
X180108624Y-93717188D01*
X180176544Y-93553216D01*
X180275147Y-93405646D01*
X180400646Y-93280147D01*
X180548216Y-93181544D01*
X180712188Y-93113624D01*
X180861488Y-93083927D01*
X180886258Y-93079000D01*
X181063742Y-93079000D01*
X181088512Y-93083927D01*
G37*
G36*
X179336000Y-94881000D02*
G01*
X177534000Y-94881000D01*
X177534000Y-93079000D01*
X179336000Y-93079000D01*
X179336000Y-94881000D01*
G37*
G36*
X173079315Y-93384166D02*
G01*
X173123843Y-93397674D01*
X173164892Y-93419615D01*
X173200864Y-93449136D01*
X173230385Y-93485108D01*
X173252326Y-93526157D01*
X173265834Y-93570685D01*
X173271000Y-93623140D01*
X173271000Y-94336860D01*
X173265834Y-94389315D01*
X173252326Y-94433843D01*
X173230385Y-94474892D01*
X173200864Y-94510864D01*
X173164892Y-94540385D01*
X173123843Y-94562326D01*
X173079315Y-94575834D01*
X173026860Y-94581000D01*
X171613140Y-94581000D01*
X171560685Y-94575834D01*
X171516157Y-94562326D01*
X171475108Y-94540385D01*
X171439136Y-94510864D01*
X171409615Y-94474892D01*
X171387674Y-94433843D01*
X171374166Y-94389315D01*
X171369000Y-94336860D01*
X171369000Y-93623140D01*
X171374166Y-93570685D01*
X171387675Y-93526153D01*
X171404368Y-93494923D01*
X171413746Y-93472284D01*
X171415688Y-93462520D01*
X171433445Y-93453029D01*
X171443298Y-93445721D01*
X171475108Y-93419615D01*
X171516157Y-93397674D01*
X171560685Y-93384166D01*
X171613140Y-93379000D01*
X173026860Y-93379000D01*
X173079315Y-93384166D01*
G37*
G36*
X171239000Y-93311000D02*
G01*
X169337000Y-93311000D01*
X169337000Y-92109000D01*
X171239000Y-92109000D01*
X171239000Y-93311000D01*
G37*
G36*
X142259000Y-91959000D02*
G01*
X138157000Y-91959000D01*
X138157000Y-86857000D01*
X142259000Y-86857000D01*
X142259000Y-91959000D01*
G37*
G36*
X134385000Y-91959000D02*
G01*
X130283000Y-91959000D01*
X130283000Y-86857000D01*
X134385000Y-86857000D01*
X134385000Y-91959000D01*
G37*
G36*
X182522395Y-87985546D02*
G01*
X182695466Y-88057234D01*
X182695467Y-88057235D01*
X182851227Y-88161310D01*
X182983690Y-88293773D01*
X182983691Y-88293775D01*
X183087766Y-88449534D01*
X183159454Y-88622605D01*
X183196000Y-88806333D01*
X183196000Y-88993667D01*
X183159454Y-89177395D01*
X183087766Y-89350466D01*
X183087765Y-89350467D01*
X182983690Y-89506227D01*
X182851227Y-89638690D01*
X182772818Y-89691081D01*
X182695466Y-89742766D01*
X182522395Y-89814454D01*
X182338667Y-89851000D01*
X182151333Y-89851000D01*
X181967605Y-89814454D01*
X181794534Y-89742766D01*
X181717182Y-89691081D01*
X181638773Y-89638690D01*
X181506310Y-89506227D01*
X181402235Y-89350467D01*
X181402234Y-89350466D01*
X181330546Y-89177395D01*
X181294000Y-88993667D01*
X181294000Y-88806333D01*
X181330546Y-88622605D01*
X181402234Y-88449534D01*
X181506309Y-88293775D01*
X181506310Y-88293773D01*
X181638773Y-88161310D01*
X181794533Y-88057235D01*
X181794534Y-88057234D01*
X181967605Y-87985546D01*
X182151333Y-87949000D01*
X182338667Y-87949000D01*
X182522395Y-87985546D01*
G37*
G36*
X175576000Y-89851000D02*
G01*
X173674000Y-89851000D01*
X173674000Y-87949000D01*
X175576000Y-87949000D01*
X175576000Y-89851000D01*
G37*
G36*
X174841000Y-84671000D02*
G01*
X173139000Y-84671000D01*
X173139000Y-82969000D01*
X174841000Y-82969000D01*
X174841000Y-84671000D01*
G37*
G36*
X176778228Y-83001703D02*
G01*
X176933100Y-83065853D01*
X177072481Y-83158985D01*
X177191015Y-83277519D01*
X177284147Y-83416900D01*
X177348297Y-83571772D01*
X177381000Y-83736184D01*
X177381000Y-83903816D01*
X177348297Y-84068228D01*
X177284147Y-84223100D01*
X177191015Y-84362481D01*
X177072481Y-84481015D01*
X176933100Y-84574147D01*
X176778228Y-84638297D01*
X176613816Y-84671000D01*
X176446184Y-84671000D01*
X176281772Y-84638297D01*
X176126900Y-84574147D01*
X175987519Y-84481015D01*
X175868985Y-84362481D01*
X175775853Y-84223100D01*
X175711703Y-84068228D01*
X175679000Y-83903816D01*
X175679000Y-83736184D01*
X175711703Y-83571772D01*
X175775853Y-83416900D01*
X175868985Y-83277519D01*
X175987519Y-83158985D01*
X176126900Y-83065853D01*
X176281772Y-83001703D01*
X176446184Y-82969000D01*
X176613816Y-82969000D01*
X176778228Y-83001703D01*
G37*
G36*
X179318228Y-83001703D02*
G01*
X179473100Y-83065853D01*
X179612481Y-83158985D01*
X179731015Y-83277519D01*
X179824147Y-83416900D01*
X179888297Y-83571772D01*
X179921000Y-83736184D01*
X179921000Y-83903816D01*
X179888297Y-84068228D01*
X179824147Y-84223100D01*
X179731015Y-84362481D01*
X179612481Y-84481015D01*
X179473100Y-84574147D01*
X179318228Y-84638297D01*
X179153816Y-84671000D01*
X178986184Y-84671000D01*
X178821772Y-84638297D01*
X178666900Y-84574147D01*
X178527519Y-84481015D01*
X178408985Y-84362481D01*
X178315853Y-84223100D01*
X178251703Y-84068228D01*
X178219000Y-83903816D01*
X178219000Y-83736184D01*
X178251703Y-83571772D01*
X178315853Y-83416900D01*
X178408985Y-83277519D01*
X178527519Y-83158985D01*
X178666900Y-83065853D01*
X178821772Y-83001703D01*
X178986184Y-82969000D01*
X179153816Y-82969000D01*
X179318228Y-83001703D01*
G37*
G36*
X174238228Y-75381703D02*
G01*
X174393100Y-75445853D01*
X174532481Y-75538985D01*
X174651015Y-75657519D01*
X174744147Y-75796900D01*
X174808297Y-75951772D01*
X174841000Y-76116184D01*
X174841000Y-76283816D01*
X174808297Y-76448228D01*
X174744147Y-76603100D01*
X174651015Y-76742481D01*
X174532481Y-76861015D01*
X174393100Y-76954147D01*
X174238228Y-77018297D01*
X174073816Y-77051000D01*
X173906184Y-77051000D01*
X173741772Y-77018297D01*
X173586900Y-76954147D01*
X173447519Y-76861015D01*
X173328985Y-76742481D01*
X173235853Y-76603100D01*
X173171703Y-76448228D01*
X173139000Y-76283816D01*
X173139000Y-76116184D01*
X173171703Y-75951772D01*
X173235853Y-75796900D01*
X173328985Y-75657519D01*
X173447519Y-75538985D01*
X173586900Y-75445853D01*
X173741772Y-75381703D01*
X173906184Y-75349000D01*
X174073816Y-75349000D01*
X174238228Y-75381703D01*
G37*
G36*
X176778228Y-75381703D02*
G01*
X176933100Y-75445853D01*
X177072481Y-75538985D01*
X177191015Y-75657519D01*
X177284147Y-75796900D01*
X177348297Y-75951772D01*
X177381000Y-76116184D01*
X177381000Y-76283816D01*
X177348297Y-76448228D01*
X177284147Y-76603100D01*
X177191015Y-76742481D01*
X177072481Y-76861015D01*
X176933100Y-76954147D01*
X176778228Y-77018297D01*
X176613816Y-77051000D01*
X176446184Y-77051000D01*
X176281772Y-77018297D01*
X176126900Y-76954147D01*
X175987519Y-76861015D01*
X175868985Y-76742481D01*
X175775853Y-76603100D01*
X175711703Y-76448228D01*
X175679000Y-76283816D01*
X175679000Y-76116184D01*
X175711703Y-75951772D01*
X175775853Y-75796900D01*
X175868985Y-75657519D01*
X175987519Y-75538985D01*
X176126900Y-75445853D01*
X176281772Y-75381703D01*
X176446184Y-75349000D01*
X176613816Y-75349000D01*
X176778228Y-75381703D01*
G37*
G36*
X179318228Y-75381703D02*
G01*
X179473100Y-75445853D01*
X179612481Y-75538985D01*
X179731015Y-75657519D01*
X179824147Y-75796900D01*
X179888297Y-75951772D01*
X179921000Y-76116184D01*
X179921000Y-76283816D01*
X179888297Y-76448228D01*
X179824147Y-76603100D01*
X179731015Y-76742481D01*
X179612481Y-76861015D01*
X179473100Y-76954147D01*
X179318228Y-77018297D01*
X179153816Y-77051000D01*
X178986184Y-77051000D01*
X178821772Y-77018297D01*
X178666900Y-76954147D01*
X178527519Y-76861015D01*
X178408985Y-76742481D01*
X178315853Y-76603100D01*
X178251703Y-76448228D01*
X178219000Y-76283816D01*
X178219000Y-76116184D01*
X178251703Y-75951772D01*
X178315853Y-75796900D01*
X178408985Y-75657519D01*
X178527519Y-75538985D01*
X178666900Y-75445853D01*
X178821772Y-75381703D01*
X178986184Y-75349000D01*
X179153816Y-75349000D01*
X179318228Y-75381703D01*
G37*
G36*
X166618228Y-70301703D02*
G01*
X166773100Y-70365853D01*
X166912481Y-70458985D01*
X167031015Y-70577519D01*
X167124147Y-70716900D01*
X167188297Y-70871772D01*
X167221000Y-71036184D01*
X167221000Y-71203816D01*
X167188297Y-71368228D01*
X167124147Y-71523100D01*
X167031015Y-71662481D01*
X166912481Y-71781015D01*
X166773100Y-71874147D01*
X166618228Y-71938297D01*
X166453816Y-71971000D01*
X166286184Y-71971000D01*
X166121772Y-71938297D01*
X165966900Y-71874147D01*
X165827519Y-71781015D01*
X165708985Y-71662481D01*
X165615853Y-71523100D01*
X165551703Y-71368228D01*
X165519000Y-71203816D01*
X165519000Y-71036184D01*
X165551703Y-70871772D01*
X165615853Y-70716900D01*
X165708985Y-70577519D01*
X165827519Y-70458985D01*
X165966900Y-70365853D01*
X166121772Y-70301703D01*
X166286184Y-70269000D01*
X166453816Y-70269000D01*
X166618228Y-70301703D01*
G37*
G36*
X174238228Y-70301703D02*
G01*
X174393100Y-70365853D01*
X174532481Y-70458985D01*
X174651015Y-70577519D01*
X174744147Y-70716900D01*
X174808297Y-70871772D01*
X174841000Y-71036184D01*
X174841000Y-71203816D01*
X174808297Y-71368228D01*
X174744147Y-71523100D01*
X174651015Y-71662481D01*
X174532481Y-71781015D01*
X174393100Y-71874147D01*
X174238228Y-71938297D01*
X174073816Y-71971000D01*
X173906184Y-71971000D01*
X173741772Y-71938297D01*
X173586900Y-71874147D01*
X173447519Y-71781015D01*
X173328985Y-71662481D01*
X173235853Y-71523100D01*
X173171703Y-71368228D01*
X173139000Y-71203816D01*
X173139000Y-71036184D01*
X173171703Y-70871772D01*
X173235853Y-70716900D01*
X173328985Y-70577519D01*
X173447519Y-70458985D01*
X173586900Y-70365853D01*
X173741772Y-70301703D01*
X173906184Y-70269000D01*
X174073816Y-70269000D01*
X174238228Y-70301703D01*
G37*
G36*
X180485936Y-68851340D02*
G01*
X180584220Y-68861020D01*
X180773381Y-68918401D01*
X180947712Y-69011583D01*
X181100515Y-69136985D01*
X181225917Y-69289788D01*
X181319099Y-69464119D01*
X181376480Y-69653280D01*
X181395855Y-69850000D01*
X181376480Y-70046720D01*
X181319099Y-70235881D01*
X181225917Y-70410212D01*
X181100515Y-70563015D01*
X180947712Y-70688417D01*
X180773381Y-70781599D01*
X180584220Y-70838980D01*
X180485936Y-70848660D01*
X180436795Y-70853500D01*
X180243205Y-70853500D01*
X180194064Y-70848660D01*
X180095780Y-70838980D01*
X179906619Y-70781599D01*
X179732288Y-70688417D01*
X179579485Y-70563015D01*
X179454083Y-70410212D01*
X179360901Y-70235881D01*
X179303520Y-70046720D01*
X179284145Y-69850000D01*
X179303520Y-69653280D01*
X179360901Y-69464119D01*
X179454083Y-69289788D01*
X179579485Y-69136985D01*
X179732288Y-69011583D01*
X179906619Y-68918401D01*
X180095780Y-68861020D01*
X180194064Y-68851340D01*
X180243205Y-68846500D01*
X180436795Y-68846500D01*
X180485936Y-68851340D01*
G37*
G36*
X180485936Y-66311340D02*
G01*
X180584220Y-66321020D01*
X180773381Y-66378401D01*
X180947712Y-66471583D01*
X181100515Y-66596985D01*
X181225917Y-66749788D01*
X181319099Y-66924119D01*
X181376480Y-67113280D01*
X181395855Y-67310000D01*
X181376480Y-67506720D01*
X181319099Y-67695881D01*
X181225917Y-67870212D01*
X181100515Y-68023015D01*
X180947712Y-68148417D01*
X180773381Y-68241599D01*
X180584220Y-68298980D01*
X180485936Y-68308660D01*
X180436795Y-68313500D01*
X180243205Y-68313500D01*
X180194064Y-68308660D01*
X180095780Y-68298980D01*
X179906619Y-68241599D01*
X179732288Y-68148417D01*
X179579485Y-68023015D01*
X179454083Y-67870212D01*
X179360901Y-67695881D01*
X179303520Y-67506720D01*
X179284145Y-67310000D01*
X179303520Y-67113280D01*
X179360901Y-66924119D01*
X179454083Y-66749788D01*
X179579485Y-66596985D01*
X179732288Y-66471583D01*
X179906619Y-66378401D01*
X180095780Y-66321020D01*
X180194064Y-66311340D01*
X180243205Y-66306500D01*
X180436795Y-66306500D01*
X180485936Y-66311340D01*
G37*
G36*
X174238228Y-65221703D02*
G01*
X174393100Y-65285853D01*
X174532481Y-65378985D01*
X174651015Y-65497519D01*
X174744147Y-65636900D01*
X174808297Y-65791772D01*
X174841000Y-65956184D01*
X174841000Y-66123816D01*
X174808297Y-66288228D01*
X174744147Y-66443100D01*
X174651015Y-66582481D01*
X174532481Y-66701015D01*
X174393100Y-66794147D01*
X174238228Y-66858297D01*
X174073816Y-66891000D01*
X173906184Y-66891000D01*
X173741772Y-66858297D01*
X173586900Y-66794147D01*
X173447519Y-66701015D01*
X173328985Y-66582481D01*
X173235853Y-66443100D01*
X173171703Y-66288228D01*
X173139000Y-66123816D01*
X173139000Y-65956184D01*
X173171703Y-65791772D01*
X173235853Y-65636900D01*
X173328985Y-65497519D01*
X173447519Y-65378985D01*
X173586900Y-65285853D01*
X173741772Y-65221703D01*
X173906184Y-65189000D01*
X174073816Y-65189000D01*
X174238228Y-65221703D01*
G37*
G36*
X166618228Y-65221703D02*
G01*
X166773100Y-65285853D01*
X166912481Y-65378985D01*
X167031015Y-65497519D01*
X167124147Y-65636900D01*
X167188297Y-65791772D01*
X167221000Y-65956184D01*
X167221000Y-66123816D01*
X167188297Y-66288228D01*
X167124147Y-66443100D01*
X167031015Y-66582481D01*
X166912481Y-66701015D01*
X166773100Y-66794147D01*
X166618228Y-66858297D01*
X166453816Y-66891000D01*
X166286184Y-66891000D01*
X166121772Y-66858297D01*
X165966900Y-66794147D01*
X165827519Y-66701015D01*
X165708985Y-66582481D01*
X165615853Y-66443100D01*
X165551703Y-66288228D01*
X165519000Y-66123816D01*
X165519000Y-65956184D01*
X165551703Y-65791772D01*
X165615853Y-65636900D01*
X165708985Y-65497519D01*
X165827519Y-65378985D01*
X165966900Y-65285853D01*
X166121772Y-65221703D01*
X166286184Y-65189000D01*
X166453816Y-65189000D01*
X166618228Y-65221703D01*
G37*
G36*
X181391000Y-65773500D02*
G01*
X179289000Y-65773500D01*
X179289000Y-63766500D01*
X181391000Y-63766500D01*
X181391000Y-65773500D01*
G37*
G36*
X164228331Y-57323211D02*
G01*
X164556092Y-57458974D01*
X164851070Y-57656072D01*
X165101928Y-57906930D01*
X165299026Y-58201908D01*
X165434789Y-58529669D01*
X165504000Y-58877616D01*
X165504000Y-59232384D01*
X165434789Y-59580331D01*
X165299026Y-59908092D01*
X165101928Y-60203070D01*
X164851070Y-60453928D01*
X164556092Y-60651026D01*
X164228331Y-60786789D01*
X163880384Y-60856000D01*
X163525616Y-60856000D01*
X163177669Y-60786789D01*
X162849908Y-60651026D01*
X162554930Y-60453928D01*
X162304072Y-60203070D01*
X162106974Y-59908092D01*
X161971211Y-59580331D01*
X161902000Y-59232384D01*
X161902000Y-58877616D01*
X161971211Y-58529669D01*
X162106974Y-58201908D01*
X162304072Y-57906930D01*
X162554930Y-57656072D01*
X162849908Y-57458974D01*
X163177669Y-57323211D01*
X163525616Y-57254000D01*
X163880384Y-57254000D01*
X164228331Y-57323211D01*
G37*
G36*
X171848331Y-57323211D02*
G01*
X172176092Y-57458974D01*
X172471070Y-57656072D01*
X172721928Y-57906930D01*
X172919026Y-58201908D01*
X173054789Y-58529669D01*
X173124000Y-58877616D01*
X173124000Y-59232384D01*
X173054789Y-59580331D01*
X172919026Y-59908092D01*
X172721928Y-60203070D01*
X172471070Y-60453928D01*
X172176092Y-60651026D01*
X171848331Y-60786789D01*
X171500384Y-60856000D01*
X171145616Y-60856000D01*
X170797669Y-60786789D01*
X170469908Y-60651026D01*
X170174930Y-60453928D01*
X169924072Y-60203070D01*
X169726974Y-59908092D01*
X169591211Y-59580331D01*
X169522000Y-59232384D01*
X169522000Y-58877616D01*
X169591211Y-58529669D01*
X169726974Y-58201908D01*
X169924072Y-57906930D01*
X170174930Y-57656072D01*
X170469908Y-57458974D01*
X170797669Y-57323211D01*
X171145616Y-57254000D01*
X171500384Y-57254000D01*
X171848331Y-57323211D01*
G37*
G36*
X134385000Y-60463000D02*
G01*
X130283000Y-60463000D01*
X130283000Y-55361000D01*
X134385000Y-55361000D01*
X134385000Y-60463000D01*
G37*
G36*
X142259000Y-60463000D02*
G01*
X138157000Y-60463000D01*
X138157000Y-55361000D01*
X142259000Y-55361000D01*
X142259000Y-60463000D01*
G37*
G36*
X155242585Y-56538802D02*
G01*
X155392410Y-56568604D01*
X155674674Y-56685521D01*
X155928705Y-56855259D01*
X156144741Y-57071295D01*
X156314479Y-57325326D01*
X156431396Y-57607590D01*
X156431396Y-57607591D01*
X156490939Y-57906930D01*
X156491000Y-57907240D01*
X156491000Y-58212760D01*
X156431396Y-58512410D01*
X156314479Y-58794674D01*
X156144741Y-59048705D01*
X155928705Y-59264741D01*
X155674674Y-59434479D01*
X155392410Y-59551396D01*
X155246944Y-59580331D01*
X155092761Y-59611000D01*
X154787239Y-59611000D01*
X154633056Y-59580331D01*
X154487590Y-59551396D01*
X154205326Y-59434479D01*
X153951295Y-59264741D01*
X153735259Y-59048705D01*
X153565521Y-58794674D01*
X153448604Y-58512410D01*
X153389000Y-58212760D01*
X153389000Y-57907240D01*
X153389062Y-57906930D01*
X153448604Y-57607591D01*
X153448604Y-57607590D01*
X153565521Y-57325326D01*
X153735259Y-57071295D01*
X153951295Y-56855259D01*
X154205326Y-56685521D01*
X154487590Y-56568604D01*
X154637415Y-56538802D01*
X154787239Y-56509000D01*
X155092761Y-56509000D01*
X155242585Y-56538802D01*
G37*
G36*
X171063228Y-52361703D02*
G01*
X171218100Y-52425853D01*
X171357481Y-52518985D01*
X171476015Y-52637519D01*
X171569147Y-52776900D01*
X171633297Y-52931772D01*
X171666000Y-53096184D01*
X171666000Y-53263816D01*
X171633297Y-53428228D01*
X171569147Y-53583100D01*
X171476015Y-53722481D01*
X171357481Y-53841015D01*
X171218100Y-53934147D01*
X171063228Y-53998297D01*
X170898816Y-54031000D01*
X170731184Y-54031000D01*
X170566772Y-53998297D01*
X170411900Y-53934147D01*
X170272519Y-53841015D01*
X170153985Y-53722481D01*
X170060853Y-53583100D01*
X169996703Y-53428228D01*
X169964000Y-53263816D01*
X169964000Y-53096184D01*
X169996703Y-52931772D01*
X170060853Y-52776900D01*
X170153985Y-52637519D01*
X170272519Y-52518985D01*
X170411900Y-52425853D01*
X170566772Y-52361703D01*
X170731184Y-52329000D01*
X170898816Y-52329000D01*
X171063228Y-52361703D01*
G37*
G36*
X164355331Y-50211211D02*
G01*
X164683092Y-50346974D01*
X164978070Y-50544072D01*
X165228928Y-50794930D01*
X165426026Y-51089908D01*
X165561789Y-51417669D01*
X165631000Y-51765616D01*
X165631000Y-52120384D01*
X165561789Y-52468331D01*
X165426026Y-52796092D01*
X165228928Y-53091070D01*
X164978070Y-53341928D01*
X164683092Y-53539026D01*
X164355331Y-53674789D01*
X164007384Y-53744000D01*
X163652616Y-53744000D01*
X163304669Y-53674789D01*
X162976908Y-53539026D01*
X162681930Y-53341928D01*
X162431072Y-53091070D01*
X162233974Y-52796092D01*
X162098211Y-52468331D01*
X162029000Y-52120384D01*
X162029000Y-51765616D01*
X162098211Y-51417669D01*
X162233974Y-51089908D01*
X162431072Y-50794930D01*
X162681930Y-50544072D01*
X162976908Y-50346974D01*
X163304669Y-50211211D01*
X163652616Y-50142000D01*
X164007384Y-50142000D01*
X164355331Y-50211211D01*
G37*
G36*
X180865331Y-49830211D02*
G01*
X181193092Y-49965974D01*
X181488070Y-50163072D01*
X181738928Y-50413930D01*
X181936026Y-50708908D01*
X182071789Y-51036669D01*
X182141000Y-51384616D01*
X182141000Y-51739384D01*
X182071789Y-52087331D01*
X181936026Y-52415092D01*
X181738928Y-52710070D01*
X181488070Y-52960928D01*
X181193092Y-53158026D01*
X180865331Y-53293789D01*
X180517384Y-53363000D01*
X180162616Y-53363000D01*
X179814669Y-53293789D01*
X179486908Y-53158026D01*
X179191930Y-52960928D01*
X178941072Y-52710070D01*
X178743974Y-52415092D01*
X178608211Y-52087331D01*
X178539000Y-51739384D01*
X178539000Y-51384616D01*
X178608211Y-51036669D01*
X178743974Y-50708908D01*
X178941072Y-50413930D01*
X179191930Y-50163072D01*
X179486908Y-49965974D01*
X179814669Y-49830211D01*
X180162616Y-49761000D01*
X180517384Y-49761000D01*
X180865331Y-49830211D01*
G37*
G36*
X127233642Y-51299781D02*
G01*
X127379414Y-51360162D01*
X127379416Y-51360163D01*
X127510608Y-51447822D01*
X127622178Y-51559392D01*
X127677886Y-51642766D01*
X127709838Y-51690586D01*
X127770219Y-51836358D01*
X127801000Y-51991107D01*
X127801000Y-52148893D01*
X127770219Y-52303642D01*
X127724054Y-52415093D01*
X127709837Y-52449416D01*
X127622178Y-52580608D01*
X127510608Y-52692178D01*
X127379416Y-52779837D01*
X127379415Y-52779838D01*
X127379414Y-52779838D01*
X127233642Y-52840219D01*
X127078893Y-52871000D01*
X126921107Y-52871000D01*
X126766358Y-52840219D01*
X126620586Y-52779838D01*
X126620585Y-52779838D01*
X126620584Y-52779837D01*
X126489392Y-52692178D01*
X126377822Y-52580608D01*
X126290163Y-52449416D01*
X126275946Y-52415093D01*
X126229781Y-52303642D01*
X126199000Y-52148893D01*
X126199000Y-51991107D01*
X126229781Y-51836358D01*
X126290162Y-51690586D01*
X126322114Y-51642766D01*
X126377822Y-51559392D01*
X126489392Y-51447822D01*
X126620584Y-51360163D01*
X126620586Y-51360162D01*
X126766358Y-51299781D01*
X126921107Y-51269000D01*
X127078893Y-51269000D01*
X127233642Y-51299781D01*
G37*
G36*
X136206000Y-51751000D02*
G01*
X134304000Y-51751000D01*
X134304000Y-49849000D01*
X136206000Y-49849000D01*
X136206000Y-51751000D01*
G37*
G36*
X132396000Y-51751000D02*
G01*
X130494000Y-51751000D01*
X130494000Y-49849000D01*
X132396000Y-49849000D01*
X132396000Y-51751000D01*
G37*
G36*
X143152395Y-49885546D02*
G01*
X143325466Y-49957234D01*
X143402818Y-50008919D01*
X143481227Y-50061310D01*
X143613690Y-50193773D01*
X143625342Y-50211212D01*
X143717766Y-50349534D01*
X143789454Y-50522605D01*
X143826000Y-50706333D01*
X143826000Y-50893667D01*
X143789454Y-51077395D01*
X143717766Y-51250466D01*
X143717765Y-51250467D01*
X143613690Y-51406227D01*
X143481227Y-51538690D01*
X143402818Y-51591081D01*
X143325466Y-51642766D01*
X143152395Y-51714454D01*
X142968667Y-51751000D01*
X142781333Y-51751000D01*
X142597605Y-51714454D01*
X142424534Y-51642766D01*
X142347182Y-51591081D01*
X142268773Y-51538690D01*
X142136310Y-51406227D01*
X142032235Y-51250467D01*
X142032234Y-51250466D01*
X141960546Y-51077395D01*
X141924000Y-50893667D01*
X141924000Y-50706333D01*
X141960546Y-50522605D01*
X142032234Y-50349534D01*
X142124658Y-50211212D01*
X142136310Y-50193773D01*
X142268773Y-50061310D01*
X142347182Y-50008919D01*
X142424534Y-49957234D01*
X142597605Y-49885546D01*
X142781333Y-49849000D01*
X142968667Y-49849000D01*
X143152395Y-49885546D01*
G37*
G36*
X139342395Y-49885546D02*
G01*
X139515466Y-49957234D01*
X139592818Y-50008919D01*
X139671227Y-50061310D01*
X139803690Y-50193773D01*
X139815342Y-50211212D01*
X139907766Y-50349534D01*
X139979454Y-50522605D01*
X140016000Y-50706333D01*
X140016000Y-50893667D01*
X139979454Y-51077395D01*
X139907766Y-51250466D01*
X139907765Y-51250467D01*
X139803690Y-51406227D01*
X139671227Y-51538690D01*
X139592818Y-51591081D01*
X139515466Y-51642766D01*
X139342395Y-51714454D01*
X139158667Y-51751000D01*
X138971333Y-51751000D01*
X138787605Y-51714454D01*
X138614534Y-51642766D01*
X138537182Y-51591081D01*
X138458773Y-51538690D01*
X138326310Y-51406227D01*
X138222235Y-51250467D01*
X138222234Y-51250466D01*
X138150546Y-51077395D01*
X138114000Y-50893667D01*
X138114000Y-50706333D01*
X138150546Y-50522605D01*
X138222234Y-50349534D01*
X138314658Y-50211212D01*
X138326310Y-50193773D01*
X138458773Y-50061310D01*
X138537182Y-50008919D01*
X138614534Y-49957234D01*
X138787605Y-49885546D01*
X138971333Y-49849000D01*
X139158667Y-49849000D01*
X139342395Y-49885546D01*
G37*
G36*
X125048674Y-49298465D02*
G01*
X125086367Y-49309899D01*
X125121103Y-49328466D01*
X125151548Y-49353452D01*
X125176534Y-49383897D01*
X125195101Y-49418633D01*
X125206535Y-49456326D01*
X125211000Y-49501661D01*
X125211000Y-50338339D01*
X125206535Y-50383674D01*
X125195101Y-50421367D01*
X125176534Y-50456103D01*
X125151548Y-50486548D01*
X125121103Y-50511534D01*
X125086367Y-50530101D01*
X125048674Y-50541535D01*
X125003339Y-50546000D01*
X123916661Y-50546000D01*
X123871326Y-50541535D01*
X123833633Y-50530101D01*
X123798897Y-50511534D01*
X123768452Y-50486548D01*
X123743466Y-50456103D01*
X123724899Y-50421367D01*
X123713465Y-50383674D01*
X123709000Y-50338339D01*
X123709000Y-49501661D01*
X123713465Y-49456326D01*
X123724899Y-49418633D01*
X123743466Y-49383897D01*
X123768452Y-49353452D01*
X123798897Y-49328466D01*
X123833633Y-49309899D01*
X123871326Y-49298465D01*
X123916661Y-49294000D01*
X125003339Y-49294000D01*
X125048674Y-49298465D01*
G37*
G36*
X120431000Y-50533500D02*
G01*
X118329000Y-50533500D01*
X118329000Y-48526500D01*
X120431000Y-48526500D01*
X120431000Y-50533500D01*
G37*
G36*
X125048674Y-47248465D02*
G01*
X125086367Y-47259899D01*
X125121103Y-47278466D01*
X125151548Y-47303452D01*
X125176534Y-47333897D01*
X125195101Y-47368633D01*
X125206535Y-47406326D01*
X125211000Y-47451661D01*
X125211000Y-48288339D01*
X125206535Y-48333674D01*
X125195101Y-48371367D01*
X125176534Y-48406103D01*
X125151548Y-48436548D01*
X125121103Y-48461534D01*
X125086367Y-48480101D01*
X125048674Y-48491535D01*
X125003339Y-48496000D01*
X123916661Y-48496000D01*
X123871326Y-48491535D01*
X123833633Y-48480101D01*
X123798897Y-48461534D01*
X123768452Y-48436548D01*
X123743466Y-48406103D01*
X123724899Y-48371367D01*
X123713465Y-48333674D01*
X123709000Y-48288339D01*
X123709000Y-47451661D01*
X123713465Y-47406326D01*
X123724899Y-47368633D01*
X123743466Y-47333897D01*
X123768452Y-47303452D01*
X123798897Y-47278466D01*
X123833633Y-47259899D01*
X123871326Y-47248465D01*
X123916661Y-47244000D01*
X125003339Y-47244000D01*
X125048674Y-47248465D01*
G37*
G36*
X119525936Y-45991340D02*
G01*
X119624220Y-46001020D01*
X119813381Y-46058401D01*
X119987712Y-46151583D01*
X120140515Y-46276985D01*
X120265917Y-46429788D01*
X120359099Y-46604119D01*
X120416480Y-46793280D01*
X120435855Y-46990000D01*
X120416480Y-47186720D01*
X120359099Y-47375881D01*
X120265917Y-47550212D01*
X120140515Y-47703015D01*
X119987712Y-47828417D01*
X119813381Y-47921599D01*
X119624220Y-47978980D01*
X119525936Y-47988660D01*
X119476795Y-47993500D01*
X119283205Y-47993500D01*
X119234064Y-47988660D01*
X119135780Y-47978980D01*
X118946619Y-47921599D01*
X118772288Y-47828417D01*
X118619485Y-47703015D01*
X118494083Y-47550212D01*
X118400901Y-47375881D01*
X118343520Y-47186720D01*
X118324145Y-46990000D01*
X118343520Y-46793280D01*
X118400901Y-46604119D01*
X118494083Y-46429788D01*
X118619485Y-46276985D01*
X118772288Y-46151583D01*
X118946619Y-46058401D01*
X119135780Y-46001020D01*
X119234064Y-45991340D01*
X119283205Y-45986500D01*
X119476795Y-45986500D01*
X119525936Y-45991340D01*
G37*
G36*
X164355331Y-42591211D02*
G01*
X164683092Y-42726974D01*
X164978070Y-42924072D01*
X165228928Y-43174930D01*
X165426026Y-43469908D01*
X165561789Y-43797669D01*
X165631000Y-44145616D01*
X165631000Y-44500384D01*
X165561789Y-44848331D01*
X165426026Y-45176092D01*
X165228928Y-45471070D01*
X164978070Y-45721928D01*
X164683092Y-45919026D01*
X164355331Y-46054789D01*
X164007384Y-46124000D01*
X163652616Y-46124000D01*
X163304669Y-46054789D01*
X162976908Y-45919026D01*
X162681930Y-45721928D01*
X162431072Y-45471070D01*
X162233974Y-45176092D01*
X162098211Y-44848331D01*
X162029000Y-44500384D01*
X162029000Y-44145616D01*
X162098211Y-43797669D01*
X162233974Y-43469908D01*
X162431072Y-43174930D01*
X162681930Y-42924072D01*
X162976908Y-42726974D01*
X163304669Y-42591211D01*
X163652616Y-42522000D01*
X164007384Y-42522000D01*
X164355331Y-42591211D01*
G37*
G36*
X180865331Y-42210211D02*
G01*
X181193092Y-42345974D01*
X181488070Y-42543072D01*
X181738928Y-42793930D01*
X181936026Y-43088908D01*
X182071789Y-43416669D01*
X182141000Y-43764616D01*
X182141000Y-44119384D01*
X182071789Y-44467331D01*
X181936026Y-44795092D01*
X181738928Y-45090070D01*
X181488070Y-45340928D01*
X181193092Y-45538026D01*
X180865331Y-45673789D01*
X180517384Y-45743000D01*
X180162616Y-45743000D01*
X179814669Y-45673789D01*
X179486908Y-45538026D01*
X179191930Y-45340928D01*
X178941072Y-45090070D01*
X178743974Y-44795092D01*
X178608211Y-44467331D01*
X178539000Y-44119384D01*
X178539000Y-43764616D01*
X178608211Y-43416669D01*
X178743974Y-43088908D01*
X178941072Y-42793930D01*
X179191930Y-42543072D01*
X179486908Y-42345974D01*
X179814669Y-42210211D01*
X180162616Y-42141000D01*
X180517384Y-42141000D01*
X180865331Y-42210211D01*
G37*
G36*
X119525936Y-43451340D02*
G01*
X119624220Y-43461020D01*
X119813381Y-43518401D01*
X119987712Y-43611583D01*
X120140515Y-43736985D01*
X120265917Y-43889788D01*
X120359099Y-44064119D01*
X120416480Y-44253280D01*
X120435855Y-44450000D01*
X120416480Y-44646720D01*
X120359099Y-44835881D01*
X120265917Y-45010212D01*
X120140515Y-45163015D01*
X119987712Y-45288417D01*
X119813381Y-45381599D01*
X119624220Y-45438980D01*
X119525936Y-45448660D01*
X119476795Y-45453500D01*
X119283205Y-45453500D01*
X119234064Y-45448660D01*
X119135780Y-45438980D01*
X118946619Y-45381599D01*
X118772288Y-45288417D01*
X118619485Y-45163015D01*
X118494083Y-45010212D01*
X118400901Y-44835881D01*
X118343520Y-44646720D01*
X118324145Y-44450000D01*
X118343520Y-44253280D01*
X118400901Y-44064119D01*
X118494083Y-43889788D01*
X118619485Y-43736985D01*
X118772288Y-43611583D01*
X118946619Y-43518401D01*
X119135780Y-43461020D01*
X119234064Y-43451340D01*
X119283205Y-43446500D01*
X119476795Y-43446500D01*
X119525936Y-43451340D01*
G37*
G36*
X125048674Y-43583465D02*
G01*
X125086367Y-43594899D01*
X125121103Y-43613466D01*
X125151548Y-43638452D01*
X125176534Y-43668897D01*
X125195101Y-43703633D01*
X125206535Y-43741326D01*
X125211000Y-43786661D01*
X125211000Y-44623339D01*
X125206535Y-44668674D01*
X125195101Y-44706367D01*
X125176534Y-44741103D01*
X125151548Y-44771548D01*
X125121103Y-44796534D01*
X125086367Y-44815101D01*
X125048674Y-44826535D01*
X125003339Y-44831000D01*
X123916661Y-44831000D01*
X123871326Y-44826535D01*
X123833633Y-44815101D01*
X123798897Y-44796534D01*
X123768452Y-44771548D01*
X123743466Y-44741103D01*
X123724899Y-44706367D01*
X123713465Y-44668674D01*
X123709000Y-44623339D01*
X123709000Y-43786661D01*
X123713465Y-43741326D01*
X123724899Y-43703633D01*
X123743466Y-43668897D01*
X123768452Y-43638452D01*
X123798897Y-43613466D01*
X123833633Y-43594899D01*
X123871326Y-43583465D01*
X123916661Y-43579000D01*
X125003339Y-43579000D01*
X125048674Y-43583465D01*
G37*
G36*
X171063228Y-42361703D02*
G01*
X171218100Y-42425853D01*
X171357481Y-42518985D01*
X171476015Y-42637519D01*
X171569147Y-42776900D01*
X171633297Y-42931772D01*
X171666000Y-43096184D01*
X171666000Y-43263816D01*
X171633297Y-43428228D01*
X171569147Y-43583100D01*
X171476015Y-43722481D01*
X171357481Y-43841015D01*
X171218100Y-43934147D01*
X171063228Y-43998297D01*
X170898816Y-44031000D01*
X170731184Y-44031000D01*
X170566772Y-43998297D01*
X170411900Y-43934147D01*
X170272519Y-43841015D01*
X170153985Y-43722481D01*
X170060853Y-43583100D01*
X169996703Y-43428228D01*
X169964000Y-43263816D01*
X169964000Y-43096184D01*
X169996703Y-42931772D01*
X170060853Y-42776900D01*
X170153985Y-42637519D01*
X170272519Y-42518985D01*
X170411900Y-42425853D01*
X170566772Y-42361703D01*
X170731184Y-42329000D01*
X170898816Y-42329000D01*
X171063228Y-42361703D01*
G37*
G36*
X125048674Y-41533465D02*
G01*
X125086367Y-41544899D01*
X125121103Y-41563466D01*
X125151548Y-41588452D01*
X125176534Y-41618897D01*
X125195101Y-41653633D01*
X125206535Y-41691326D01*
X125211000Y-41736661D01*
X125211000Y-42573339D01*
X125206535Y-42618674D01*
X125195101Y-42656367D01*
X125176534Y-42691103D01*
X125151548Y-42721548D01*
X125121103Y-42746534D01*
X125086367Y-42765101D01*
X125048674Y-42776535D01*
X125003339Y-42781000D01*
X123916661Y-42781000D01*
X123871326Y-42776535D01*
X123833633Y-42765101D01*
X123798897Y-42746534D01*
X123768452Y-42721548D01*
X123743466Y-42691103D01*
X123724899Y-42656367D01*
X123713465Y-42618674D01*
X123709000Y-42573339D01*
X123709000Y-41736661D01*
X123713465Y-41691326D01*
X123724899Y-41653633D01*
X123743466Y-41618897D01*
X123768452Y-41588452D01*
X123798897Y-41563466D01*
X123833633Y-41544899D01*
X123871326Y-41533465D01*
X123916661Y-41529000D01*
X125003339Y-41529000D01*
X125048674Y-41533465D01*
G37*
G36*
X131722395Y-39725546D02*
G01*
X131895466Y-39797234D01*
X131895467Y-39797235D01*
X132051227Y-39901310D01*
X132183690Y-40033773D01*
X132183691Y-40033775D01*
X132287766Y-40189534D01*
X132359454Y-40362605D01*
X132396000Y-40546333D01*
X132396000Y-40733667D01*
X132359454Y-40917395D01*
X132287766Y-41090466D01*
X132287765Y-41090467D01*
X132183690Y-41246227D01*
X132051227Y-41378690D01*
X131972818Y-41431081D01*
X131895466Y-41482766D01*
X131722395Y-41554454D01*
X131538667Y-41591000D01*
X131351333Y-41591000D01*
X131167605Y-41554454D01*
X130994534Y-41482766D01*
X130917182Y-41431081D01*
X130838773Y-41378690D01*
X130706310Y-41246227D01*
X130602235Y-41090467D01*
X130602234Y-41090466D01*
X130530546Y-40917395D01*
X130494000Y-40733667D01*
X130494000Y-40546333D01*
X130530546Y-40362605D01*
X130602234Y-40189534D01*
X130706309Y-40033775D01*
X130706310Y-40033773D01*
X130838773Y-39901310D01*
X130994533Y-39797235D01*
X130994534Y-39797234D01*
X131167605Y-39725546D01*
X131351333Y-39689000D01*
X131538667Y-39689000D01*
X131722395Y-39725546D01*
G37*
G36*
X135532395Y-39725546D02*
G01*
X135705466Y-39797234D01*
X135705467Y-39797235D01*
X135861227Y-39901310D01*
X135993690Y-40033773D01*
X135993691Y-40033775D01*
X136097766Y-40189534D01*
X136169454Y-40362605D01*
X136206000Y-40546333D01*
X136206000Y-40733667D01*
X136169454Y-40917395D01*
X136097766Y-41090466D01*
X136097765Y-41090467D01*
X135993690Y-41246227D01*
X135861227Y-41378690D01*
X135782818Y-41431081D01*
X135705466Y-41482766D01*
X135532395Y-41554454D01*
X135348667Y-41591000D01*
X135161333Y-41591000D01*
X134977605Y-41554454D01*
X134804534Y-41482766D01*
X134727182Y-41431081D01*
X134648773Y-41378690D01*
X134516310Y-41246227D01*
X134412235Y-41090467D01*
X134412234Y-41090466D01*
X134340546Y-40917395D01*
X134304000Y-40733667D01*
X134304000Y-40546333D01*
X134340546Y-40362605D01*
X134412234Y-40189534D01*
X134516309Y-40033775D01*
X134516310Y-40033773D01*
X134648773Y-39901310D01*
X134804533Y-39797235D01*
X134804534Y-39797234D01*
X134977605Y-39725546D01*
X135161333Y-39689000D01*
X135348667Y-39689000D01*
X135532395Y-39725546D01*
G37*
G36*
X140016000Y-41591000D02*
G01*
X138114000Y-41591000D01*
X138114000Y-39689000D01*
X140016000Y-39689000D01*
X140016000Y-41591000D01*
G37*
G36*
X143826000Y-41591000D02*
G01*
X141924000Y-41591000D01*
X141924000Y-39689000D01*
X143826000Y-39689000D01*
X143826000Y-41591000D01*
G37*
G36*
X163847331Y-35733211D02*
G01*
X164175092Y-35868974D01*
X164470070Y-36066072D01*
X164720928Y-36316930D01*
X164918026Y-36611908D01*
X165053789Y-36939669D01*
X165123000Y-37287616D01*
X165123000Y-37642384D01*
X165053789Y-37990331D01*
X164918026Y-38318092D01*
X164720928Y-38613070D01*
X164470070Y-38863928D01*
X164175092Y-39061026D01*
X163847331Y-39196789D01*
X163499384Y-39266000D01*
X163144616Y-39266000D01*
X162796669Y-39196789D01*
X162468908Y-39061026D01*
X162173930Y-38863928D01*
X161923072Y-38613070D01*
X161725974Y-38318092D01*
X161590211Y-37990331D01*
X161521000Y-37642384D01*
X161521000Y-37287616D01*
X161590211Y-36939669D01*
X161725974Y-36611908D01*
X161923072Y-36316930D01*
X162173930Y-36066072D01*
X162468908Y-35868974D01*
X162796669Y-35733211D01*
X163144616Y-35664000D01*
X163499384Y-35664000D01*
X163847331Y-35733211D01*
G37*
G36*
X171467331Y-35733211D02*
G01*
X171795092Y-35868974D01*
X172090070Y-36066072D01*
X172340928Y-36316930D01*
X172538026Y-36611908D01*
X172673789Y-36939669D01*
X172743000Y-37287616D01*
X172743000Y-37642384D01*
X172673789Y-37990331D01*
X172538026Y-38318092D01*
X172340928Y-38613070D01*
X172090070Y-38863928D01*
X171795092Y-39061026D01*
X171467331Y-39196789D01*
X171119384Y-39266000D01*
X170764616Y-39266000D01*
X170416669Y-39196789D01*
X170088908Y-39061026D01*
X169793930Y-38863928D01*
X169543072Y-38613070D01*
X169345974Y-38318092D01*
X169210211Y-37990331D01*
X169141000Y-37642384D01*
X169141000Y-37287616D01*
X169210211Y-36939669D01*
X169345974Y-36611908D01*
X169543072Y-36316930D01*
X169793930Y-36066072D01*
X170088908Y-35868974D01*
X170416669Y-35733211D01*
X170764616Y-35664000D01*
X171119384Y-35664000D01*
X171467331Y-35733211D01*
G37*
G36*
X117723256Y-35475298D02*
G01*
X117829579Y-35496447D01*
X118130042Y-35620903D01*
X118400451Y-35801585D01*
X118630415Y-36031549D01*
X118811097Y-36301958D01*
X118913303Y-36548704D01*
X118935553Y-36602422D01*
X118999000Y-36921389D01*
X118999000Y-37246611D01*
X118990843Y-37287617D01*
X118935553Y-37565579D01*
X118811097Y-37866042D01*
X118630415Y-38136451D01*
X118400451Y-38366415D01*
X118130042Y-38547097D01*
X117829579Y-38671553D01*
X117723256Y-38692702D01*
X117510611Y-38735000D01*
X117185389Y-38735000D01*
X116972744Y-38692702D01*
X116866421Y-38671553D01*
X116565958Y-38547097D01*
X116295549Y-38366415D01*
X116065585Y-38136451D01*
X115884903Y-37866042D01*
X115760447Y-37565579D01*
X115705157Y-37287617D01*
X115697000Y-37246611D01*
X115697000Y-36921389D01*
X115760447Y-36602422D01*
X115782698Y-36548704D01*
X115884903Y-36301958D01*
X116065585Y-36031549D01*
X116295549Y-35801585D01*
X116565958Y-35620903D01*
X116866421Y-35496447D01*
X116972744Y-35475298D01*
X117185389Y-35433000D01*
X117510611Y-35433000D01*
X117723256Y-35475298D01*
G37*
G36*
X182747256Y-35475298D02*
G01*
X182853579Y-35496447D01*
X183154042Y-35620903D01*
X183424451Y-35801585D01*
X183654415Y-36031549D01*
X183835097Y-36301958D01*
X183937303Y-36548704D01*
X183959553Y-36602422D01*
X184023000Y-36921389D01*
X184023000Y-37246611D01*
X184014843Y-37287617D01*
X183959553Y-37565579D01*
X183835097Y-37866042D01*
X183654415Y-38136451D01*
X183424451Y-38366415D01*
X183154042Y-38547097D01*
X182853579Y-38671553D01*
X182747256Y-38692702D01*
X182534611Y-38735000D01*
X182209389Y-38735000D01*
X181996744Y-38692702D01*
X181890421Y-38671553D01*
X181589958Y-38547097D01*
X181319549Y-38366415D01*
X181089585Y-38136451D01*
X180908903Y-37866042D01*
X180784447Y-37565579D01*
X180729157Y-37287617D01*
X180721000Y-37246611D01*
X180721000Y-36921389D01*
X180784447Y-36602422D01*
X180806698Y-36548704D01*
X180908903Y-36301958D01*
X181089585Y-36031549D01*
X181319549Y-35801585D01*
X181589958Y-35620903D01*
X181890421Y-35496447D01*
X181996744Y-35475298D01*
X182209389Y-35433000D01*
X182534611Y-35433000D01*
X182747256Y-35475298D01*
G37*
G36*
X143146331Y-34844211D02*
G01*
X143474092Y-34979974D01*
X143769070Y-35177072D01*
X144019928Y-35427930D01*
X144217026Y-35722908D01*
X144352789Y-36050669D01*
X144422000Y-36398616D01*
X144422000Y-36753384D01*
X144352789Y-37101331D01*
X144217026Y-37429092D01*
X144019928Y-37724070D01*
X143769070Y-37974928D01*
X143474092Y-38172026D01*
X143146331Y-38307789D01*
X142798384Y-38377000D01*
X142443616Y-38377000D01*
X142095669Y-38307789D01*
X141767908Y-38172026D01*
X141472930Y-37974928D01*
X141222072Y-37724070D01*
X141024974Y-37429092D01*
X140889211Y-37101331D01*
X140820000Y-36753384D01*
X140820000Y-36398616D01*
X140889211Y-36050669D01*
X141024974Y-35722908D01*
X141222072Y-35427930D01*
X141472930Y-35177072D01*
X141767908Y-34979974D01*
X142095669Y-34844211D01*
X142443616Y-34775000D01*
X142798384Y-34775000D01*
X143146331Y-34844211D01*
G37*
G36*
X135526331Y-34844211D02*
G01*
X135854092Y-34979974D01*
X136149070Y-35177072D01*
X136399928Y-35427930D01*
X136597026Y-35722908D01*
X136732789Y-36050669D01*
X136802000Y-36398616D01*
X136802000Y-36753384D01*
X136732789Y-37101331D01*
X136597026Y-37429092D01*
X136399928Y-37724070D01*
X136149070Y-37974928D01*
X135854092Y-38172026D01*
X135526331Y-38307789D01*
X135178384Y-38377000D01*
X134823616Y-38377000D01*
X134475669Y-38307789D01*
X134147908Y-38172026D01*
X133852930Y-37974928D01*
X133602072Y-37724070D01*
X133404974Y-37429092D01*
X133269211Y-37101331D01*
X133200000Y-36753384D01*
X133200000Y-36398616D01*
X133269211Y-36050669D01*
X133404974Y-35722908D01*
X133602072Y-35427930D01*
X133852930Y-35177072D01*
X134147908Y-34979974D01*
X134475669Y-34844211D01*
X134823616Y-34775000D01*
X135178384Y-34775000D01*
X135526331Y-34844211D01*
G37*
G36*
X155242585Y-34038802D02*
G01*
X155392410Y-34068604D01*
X155674674Y-34185521D01*
X155928705Y-34355259D01*
X156144741Y-34571295D01*
X156314479Y-34825326D01*
X156378536Y-34979975D01*
X156431396Y-35107591D01*
X156491000Y-35407239D01*
X156491000Y-35712761D01*
X156486932Y-35733211D01*
X156431396Y-36012410D01*
X156314479Y-36294674D01*
X156144741Y-36548705D01*
X155928705Y-36764741D01*
X155674674Y-36934479D01*
X155392410Y-37051396D01*
X155242585Y-37081198D01*
X155092761Y-37111000D01*
X154787239Y-37111000D01*
X154637415Y-37081198D01*
X154487590Y-37051396D01*
X154205326Y-36934479D01*
X153951295Y-36764741D01*
X153735259Y-36548705D01*
X153565521Y-36294674D01*
X153448604Y-36012410D01*
X153393068Y-35733211D01*
X153389000Y-35712761D01*
X153389000Y-35407239D01*
X153448604Y-35107591D01*
X153501464Y-34979975D01*
X153565521Y-34825326D01*
X153735259Y-34571295D01*
X153951295Y-34355259D01*
X154205326Y-34185521D01*
X154487590Y-34068604D01*
X154637415Y-34038802D01*
X154787239Y-34009000D01*
X155092761Y-34009000D01*
X155242585Y-34038802D01*
G37*
M02*
