G04 #@! TF.GenerationSoftware,KiCad,Pcbnew,(5.1.5)-3*
G04 #@! TF.CreationDate,2020-05-31T07:49:41+02:00*
G04 #@! TF.ProjectId,hotairpistol,686f7461-6972-4706-9973-746f6c2e6b69,rev?*
G04 #@! TF.SameCoordinates,Original*
G04 #@! TF.FileFunction,Legend,Top*
G04 #@! TF.FilePolarity,Positive*
%FSLAX46Y46*%
G04 Gerber Fmt 4.6, Leading zero omitted, Abs format (unit mm)*
G04 Created by KiCad (PCBNEW (5.1.5)-3) date 2020-05-31 07:49:41*
%MOMM*%
%LPD*%
G04 APERTURE LIST*
%ADD10C,0.250000*%
%ADD11C,0.600000*%
%ADD12C,0.400000*%
%ADD13C,0.120000*%
%ADD14C,0.150000*%
G04 APERTURE END LIST*
D10*
X138406285Y-111688571D02*
X138549142Y-111736190D01*
X138596761Y-111783809D01*
X138644380Y-111879047D01*
X138644380Y-112021904D01*
X138596761Y-112117142D01*
X138549142Y-112164761D01*
X138453904Y-112212380D01*
X138072952Y-112212380D01*
X138072952Y-111212380D01*
X138406285Y-111212380D01*
X138501523Y-111260000D01*
X138549142Y-111307619D01*
X138596761Y-111402857D01*
X138596761Y-111498095D01*
X138549142Y-111593333D01*
X138501523Y-111640952D01*
X138406285Y-111688571D01*
X138072952Y-111688571D01*
X138930095Y-111212380D02*
X139501523Y-111212380D01*
X139215809Y-112212380D02*
X139215809Y-111212380D01*
X140025333Y-111212380D02*
X140120571Y-111212380D01*
X140215809Y-111260000D01*
X140263428Y-111307619D01*
X140311047Y-111402857D01*
X140358666Y-111593333D01*
X140358666Y-111831428D01*
X140311047Y-112021904D01*
X140263428Y-112117142D01*
X140215809Y-112164761D01*
X140120571Y-112212380D01*
X140025333Y-112212380D01*
X139930095Y-112164761D01*
X139882476Y-112117142D01*
X139834857Y-112021904D01*
X139787238Y-111831428D01*
X139787238Y-111593333D01*
X139834857Y-111402857D01*
X139882476Y-111307619D01*
X139930095Y-111260000D01*
X140025333Y-111212380D01*
X183443571Y-95265714D02*
X183443571Y-95599047D01*
X183967380Y-95599047D02*
X182967380Y-95599047D01*
X182967380Y-95122857D01*
X183681666Y-94789523D02*
X183681666Y-94313333D01*
X183967380Y-94884761D02*
X182967380Y-94551428D01*
X183967380Y-94218095D01*
X183967380Y-93884761D02*
X182967380Y-93884761D01*
X183967380Y-93313333D01*
X182967380Y-93313333D01*
X183967380Y-92313333D02*
X183967380Y-92884761D01*
X183967380Y-92599047D02*
X182967380Y-92599047D01*
X183110238Y-92694285D01*
X183205476Y-92789523D01*
X183253095Y-92884761D01*
X183443571Y-105425714D02*
X183443571Y-105759047D01*
X183967380Y-105759047D02*
X182967380Y-105759047D01*
X182967380Y-105282857D01*
X183681666Y-104949523D02*
X183681666Y-104473333D01*
X183967380Y-105044761D02*
X182967380Y-104711428D01*
X183967380Y-104378095D01*
X183967380Y-104044761D02*
X182967380Y-104044761D01*
X183967380Y-103473333D01*
X182967380Y-103473333D01*
X183062619Y-103044761D02*
X183015000Y-102997142D01*
X182967380Y-102901904D01*
X182967380Y-102663809D01*
X183015000Y-102568571D01*
X183062619Y-102520952D01*
X183157857Y-102473333D01*
X183253095Y-102473333D01*
X183395952Y-102520952D01*
X183967380Y-103092380D01*
X183967380Y-102473333D01*
X149201333Y-112212380D02*
X149201333Y-111212380D01*
X149582285Y-111212380D01*
X149677523Y-111260000D01*
X149725142Y-111307619D01*
X149772761Y-111402857D01*
X149772761Y-111545714D01*
X149725142Y-111640952D01*
X149677523Y-111688571D01*
X149582285Y-111736190D01*
X149201333Y-111736190D01*
X150391809Y-111212380D02*
X150582285Y-111212380D01*
X150677523Y-111260000D01*
X150772761Y-111355238D01*
X150820380Y-111545714D01*
X150820380Y-111879047D01*
X150772761Y-112069523D01*
X150677523Y-112164761D01*
X150582285Y-112212380D01*
X150391809Y-112212380D01*
X150296571Y-112164761D01*
X150201333Y-112069523D01*
X150153714Y-111879047D01*
X150153714Y-111545714D01*
X150201333Y-111355238D01*
X150296571Y-111260000D01*
X150391809Y-111212380D01*
X151106095Y-111212380D02*
X151677523Y-111212380D01*
X151391809Y-112212380D02*
X151391809Y-111212380D01*
X146026285Y-111688571D02*
X146169142Y-111736190D01*
X146216761Y-111783809D01*
X146264380Y-111879047D01*
X146264380Y-112021904D01*
X146216761Y-112117142D01*
X146169142Y-112164761D01*
X146073904Y-112212380D01*
X145692952Y-112212380D01*
X145692952Y-111212380D01*
X146026285Y-111212380D01*
X146121523Y-111260000D01*
X146169142Y-111307619D01*
X146216761Y-111402857D01*
X146216761Y-111498095D01*
X146169142Y-111593333D01*
X146121523Y-111640952D01*
X146026285Y-111688571D01*
X145692952Y-111688571D01*
X146550095Y-111212380D02*
X147121523Y-111212380D01*
X146835809Y-112212380D02*
X146835809Y-111212380D01*
X147407238Y-111307619D02*
X147454857Y-111260000D01*
X147550095Y-111212380D01*
X147788190Y-111212380D01*
X147883428Y-111260000D01*
X147931047Y-111307619D01*
X147978666Y-111402857D01*
X147978666Y-111498095D01*
X147931047Y-111640952D01*
X147359619Y-112212380D01*
X147978666Y-112212380D01*
X142470285Y-111688571D02*
X142613142Y-111736190D01*
X142660761Y-111783809D01*
X142708380Y-111879047D01*
X142708380Y-112021904D01*
X142660761Y-112117142D01*
X142613142Y-112164761D01*
X142517904Y-112212380D01*
X142136952Y-112212380D01*
X142136952Y-111212380D01*
X142470285Y-111212380D01*
X142565523Y-111260000D01*
X142613142Y-111307619D01*
X142660761Y-111402857D01*
X142660761Y-111498095D01*
X142613142Y-111593333D01*
X142565523Y-111640952D01*
X142470285Y-111688571D01*
X142136952Y-111688571D01*
X142994095Y-111212380D02*
X143565523Y-111212380D01*
X143279809Y-112212380D02*
X143279809Y-111212380D01*
X144422666Y-112212380D02*
X143851238Y-112212380D01*
X144136952Y-112212380D02*
X144136952Y-111212380D01*
X144041714Y-111355238D01*
X143946476Y-111450476D01*
X143851238Y-111498095D01*
D11*
X124166476Y-108560904D02*
X124166476Y-103560904D01*
X125356952Y-103560904D01*
X126071238Y-103799000D01*
X126547428Y-104275190D01*
X126785523Y-104751380D01*
X127023619Y-105703761D01*
X127023619Y-106418047D01*
X126785523Y-107370428D01*
X126547428Y-107846619D01*
X126071238Y-108322809D01*
X125356952Y-108560904D01*
X124166476Y-108560904D01*
X126269809Y-105465904D02*
X127222190Y-105465904D01*
X127698380Y-105704000D01*
X128174571Y-106180190D01*
X128412666Y-107132571D01*
X128412666Y-108799238D01*
X128174571Y-109751619D01*
X127698380Y-110227809D01*
X127222190Y-110465904D01*
X126269809Y-110465904D01*
X125793619Y-110227809D01*
X125317428Y-109751619D01*
X125079333Y-108799238D01*
X125079333Y-107132571D01*
X125317428Y-106180190D01*
X125793619Y-105704000D01*
X126269809Y-105465904D01*
D10*
X149042380Y-76971428D02*
X148042380Y-76971428D01*
X148042380Y-76614285D01*
X148090000Y-76400000D01*
X148185238Y-76257142D01*
X148280476Y-76185714D01*
X148470952Y-76114285D01*
X148613809Y-76114285D01*
X148804285Y-76185714D01*
X148899523Y-76257142D01*
X148994761Y-76400000D01*
X149042380Y-76614285D01*
X149042380Y-76971428D01*
X149042380Y-74828571D02*
X148518571Y-74828571D01*
X148423333Y-74900000D01*
X148375714Y-75042857D01*
X148375714Y-75328571D01*
X148423333Y-75471428D01*
X148994761Y-74828571D02*
X149042380Y-74971428D01*
X149042380Y-75328571D01*
X148994761Y-75471428D01*
X148899523Y-75542857D01*
X148804285Y-75542857D01*
X148709047Y-75471428D01*
X148661428Y-75328571D01*
X148661428Y-74971428D01*
X148613809Y-74828571D01*
X148375714Y-74257142D02*
X149042380Y-73900000D01*
X148375714Y-73542857D01*
X149042380Y-72971428D02*
X148375714Y-72971428D01*
X148042380Y-72971428D02*
X148090000Y-73042857D01*
X148137619Y-72971428D01*
X148090000Y-72900000D01*
X148042380Y-72971428D01*
X148137619Y-72971428D01*
X149042380Y-71614285D02*
X148042380Y-71614285D01*
X148994761Y-71614285D02*
X149042380Y-71757142D01*
X149042380Y-72042857D01*
X148994761Y-72185714D01*
X148947142Y-72257142D01*
X148851904Y-72328571D01*
X148566190Y-72328571D01*
X148470952Y-72257142D01*
X148423333Y-72185714D01*
X148375714Y-72042857D01*
X148375714Y-71757142D01*
X148423333Y-71614285D01*
X148994761Y-70328571D02*
X149042380Y-70471428D01*
X149042380Y-70757142D01*
X148994761Y-70900000D01*
X148899523Y-70971428D01*
X148518571Y-70971428D01*
X148423333Y-70900000D01*
X148375714Y-70757142D01*
X148375714Y-70471428D01*
X148423333Y-70328571D01*
X148518571Y-70257142D01*
X148613809Y-70257142D01*
X148709047Y-70971428D01*
X148042380Y-68185714D02*
X148042380Y-67900000D01*
X148090000Y-67757142D01*
X148185238Y-67614285D01*
X148375714Y-67542857D01*
X148709047Y-67542857D01*
X148899523Y-67614285D01*
X148994761Y-67757142D01*
X149042380Y-67900000D01*
X149042380Y-68185714D01*
X148994761Y-68328571D01*
X148899523Y-68471428D01*
X148709047Y-68542857D01*
X148375714Y-68542857D01*
X148185238Y-68471428D01*
X148090000Y-68328571D01*
X148042380Y-68185714D01*
X149042380Y-66900000D02*
X148375714Y-66900000D01*
X148566190Y-66900000D02*
X148470952Y-66828571D01*
X148423333Y-66757142D01*
X148375714Y-66614285D01*
X148375714Y-66471428D01*
X148994761Y-65400000D02*
X149042380Y-65542857D01*
X149042380Y-65828571D01*
X148994761Y-65971428D01*
X148899523Y-66042857D01*
X148518571Y-66042857D01*
X148423333Y-65971428D01*
X148375714Y-65828571D01*
X148375714Y-65542857D01*
X148423333Y-65400000D01*
X148518571Y-65328571D01*
X148613809Y-65328571D01*
X148709047Y-66042857D01*
X148375714Y-64685714D02*
X149042380Y-64685714D01*
X148470952Y-64685714D02*
X148423333Y-64614285D01*
X148375714Y-64471428D01*
X148375714Y-64257142D01*
X148423333Y-64114285D01*
X148518571Y-64042857D01*
X149042380Y-64042857D01*
X148375714Y-62685714D02*
X149185238Y-62685714D01*
X149280476Y-62757142D01*
X149328095Y-62828571D01*
X149375714Y-62971428D01*
X149375714Y-63185714D01*
X149328095Y-63328571D01*
X148994761Y-62685714D02*
X149042380Y-62828571D01*
X149042380Y-63114285D01*
X148994761Y-63257142D01*
X148947142Y-63328571D01*
X148851904Y-63400000D01*
X148566190Y-63400000D01*
X148470952Y-63328571D01*
X148423333Y-63257142D01*
X148375714Y-63114285D01*
X148375714Y-62828571D01*
X148423333Y-62685714D01*
X149042380Y-61757142D02*
X148994761Y-61900000D01*
X148947142Y-61971428D01*
X148851904Y-62042857D01*
X148566190Y-62042857D01*
X148470952Y-61971428D01*
X148423333Y-61900000D01*
X148375714Y-61757142D01*
X148375714Y-61542857D01*
X148423333Y-61400000D01*
X148470952Y-61328571D01*
X148566190Y-61257142D01*
X148851904Y-61257142D01*
X148947142Y-61328571D01*
X148994761Y-61400000D01*
X149042380Y-61542857D01*
X149042380Y-61757142D01*
X148994761Y-60542857D02*
X149042380Y-60542857D01*
X149137619Y-60614285D01*
X149185238Y-60685714D01*
X149042380Y-58757142D02*
X148042380Y-58757142D01*
X148518571Y-58757142D02*
X148518571Y-57900000D01*
X149042380Y-57900000D02*
X148042380Y-57900000D01*
X149042380Y-56971428D02*
X148994761Y-57114285D01*
X148947142Y-57185714D01*
X148851904Y-57257142D01*
X148566190Y-57257142D01*
X148470952Y-57185714D01*
X148423333Y-57114285D01*
X148375714Y-56971428D01*
X148375714Y-56757142D01*
X148423333Y-56614285D01*
X148470952Y-56542857D01*
X148566190Y-56471428D01*
X148851904Y-56471428D01*
X148947142Y-56542857D01*
X148994761Y-56614285D01*
X149042380Y-56757142D01*
X149042380Y-56971428D01*
X148375714Y-56042857D02*
X148375714Y-55471428D01*
X148042380Y-55828571D02*
X148899523Y-55828571D01*
X148994761Y-55757142D01*
X149042380Y-55614285D01*
X149042380Y-55471428D01*
X148756666Y-53900000D02*
X148756666Y-53185714D01*
X149042380Y-54042857D02*
X148042380Y-53542857D01*
X149042380Y-53042857D01*
X149042380Y-52542857D02*
X148375714Y-52542857D01*
X148042380Y-52542857D02*
X148090000Y-52614285D01*
X148137619Y-52542857D01*
X148090000Y-52471428D01*
X148042380Y-52542857D01*
X148137619Y-52542857D01*
X149042380Y-51828571D02*
X148375714Y-51828571D01*
X148566190Y-51828571D02*
X148470952Y-51757142D01*
X148423333Y-51685714D01*
X148375714Y-51542857D01*
X148375714Y-51400000D01*
X148375714Y-49757142D02*
X149375714Y-49757142D01*
X148423333Y-49757142D02*
X148375714Y-49614285D01*
X148375714Y-49328571D01*
X148423333Y-49185714D01*
X148470952Y-49114285D01*
X148566190Y-49042857D01*
X148851904Y-49042857D01*
X148947142Y-49114285D01*
X148994761Y-49185714D01*
X149042380Y-49328571D01*
X149042380Y-49614285D01*
X148994761Y-49757142D01*
X149042380Y-48400000D02*
X148375714Y-48400000D01*
X148042380Y-48400000D02*
X148090000Y-48471428D01*
X148137619Y-48400000D01*
X148090000Y-48328571D01*
X148042380Y-48400000D01*
X148137619Y-48400000D01*
X148994761Y-47757142D02*
X149042380Y-47614285D01*
X149042380Y-47328571D01*
X148994761Y-47185714D01*
X148899523Y-47114285D01*
X148851904Y-47114285D01*
X148756666Y-47185714D01*
X148709047Y-47328571D01*
X148709047Y-47542857D01*
X148661428Y-47685714D01*
X148566190Y-47757142D01*
X148518571Y-47757142D01*
X148423333Y-47685714D01*
X148375714Y-47542857D01*
X148375714Y-47328571D01*
X148423333Y-47185714D01*
X148375714Y-46685714D02*
X148375714Y-46114285D01*
X148042380Y-46471428D02*
X148899523Y-46471428D01*
X148994761Y-46400000D01*
X149042380Y-46257142D01*
X149042380Y-46114285D01*
X149042380Y-45400000D02*
X148994761Y-45542857D01*
X148947142Y-45614285D01*
X148851904Y-45685714D01*
X148566190Y-45685714D01*
X148470952Y-45614285D01*
X148423333Y-45542857D01*
X148375714Y-45400000D01*
X148375714Y-45185714D01*
X148423333Y-45042857D01*
X148470952Y-44971428D01*
X148566190Y-44900000D01*
X148851904Y-44900000D01*
X148947142Y-44971428D01*
X148994761Y-45042857D01*
X149042380Y-45185714D01*
X149042380Y-45400000D01*
X149042380Y-44042857D02*
X148994761Y-44185714D01*
X148899523Y-44257142D01*
X148042380Y-44257142D01*
X148137619Y-42400000D02*
X148090000Y-42328571D01*
X148042380Y-42185714D01*
X148042380Y-41828571D01*
X148090000Y-41685714D01*
X148137619Y-41614285D01*
X148232857Y-41542857D01*
X148328095Y-41542857D01*
X148470952Y-41614285D01*
X149042380Y-42471428D01*
X149042380Y-41542857D01*
X148042380Y-40614285D02*
X148042380Y-40471428D01*
X148090000Y-40328571D01*
X148137619Y-40257142D01*
X148232857Y-40185714D01*
X148423333Y-40114285D01*
X148661428Y-40114285D01*
X148851904Y-40185714D01*
X148947142Y-40257142D01*
X148994761Y-40328571D01*
X149042380Y-40471428D01*
X149042380Y-40614285D01*
X148994761Y-40757142D01*
X148947142Y-40828571D01*
X148851904Y-40900000D01*
X148661428Y-40971428D01*
X148423333Y-40971428D01*
X148232857Y-40900000D01*
X148137619Y-40828571D01*
X148090000Y-40757142D01*
X148042380Y-40614285D01*
X149042380Y-38685714D02*
X149042380Y-39542857D01*
X149042380Y-39114285D02*
X148042380Y-39114285D01*
X148185238Y-39257142D01*
X148280476Y-39400000D01*
X148328095Y-39542857D01*
X149042380Y-37971428D02*
X149042380Y-37685714D01*
X148994761Y-37542857D01*
X148947142Y-37471428D01*
X148804285Y-37328571D01*
X148613809Y-37257142D01*
X148232857Y-37257142D01*
X148137619Y-37328571D01*
X148090000Y-37400000D01*
X148042380Y-37542857D01*
X148042380Y-37828571D01*
X148090000Y-37971428D01*
X148137619Y-38042857D01*
X148232857Y-38114285D01*
X148470952Y-38114285D01*
X148566190Y-38042857D01*
X148613809Y-37971428D01*
X148661428Y-37828571D01*
X148661428Y-37542857D01*
X148613809Y-37400000D01*
X148566190Y-37328571D01*
X148470952Y-37257142D01*
D12*
X147320000Y-80010000D02*
X147320000Y-33020000D01*
X186436000Y-80010000D02*
X147320000Y-80010000D01*
D13*
X141030000Y-110042000D02*
X139700000Y-110042000D01*
X141030000Y-108712000D02*
X141030000Y-110042000D01*
X141030000Y-107442000D02*
X138370000Y-107442000D01*
X138370000Y-107442000D02*
X138370000Y-104842000D01*
X141030000Y-107442000D02*
X141030000Y-104842000D01*
X141030000Y-104842000D02*
X138370000Y-104842000D01*
X144345000Y-47680000D02*
X141405000Y-47680000D01*
X144345000Y-47920000D02*
X141405000Y-47920000D01*
X144345000Y-47800000D02*
X141405000Y-47800000D01*
X142875000Y-49660000D02*
X142875000Y-48440000D01*
X142875000Y-41780000D02*
X142875000Y-43000000D01*
X144345000Y-48440000D02*
X144345000Y-43000000D01*
X141405000Y-48440000D02*
X144345000Y-48440000D01*
X141405000Y-43000000D02*
X141405000Y-48440000D01*
X144345000Y-43000000D02*
X141405000Y-43000000D01*
X140535000Y-47580000D02*
X137595000Y-47580000D01*
X140535000Y-47820000D02*
X137595000Y-47820000D01*
X140535000Y-47700000D02*
X137595000Y-47700000D01*
X139065000Y-49660000D02*
X139065000Y-48440000D01*
X139065000Y-41780000D02*
X139065000Y-43000000D01*
X140535000Y-48440000D02*
X140535000Y-43000000D01*
X137595000Y-48440000D02*
X140535000Y-48440000D01*
X137595000Y-43000000D02*
X137595000Y-48440000D01*
X140535000Y-43000000D02*
X137595000Y-43000000D01*
X133785000Y-43910000D02*
X136725000Y-43910000D01*
X133785000Y-43670000D02*
X136725000Y-43670000D01*
X133785000Y-43790000D02*
X136725000Y-43790000D01*
X135255000Y-41780000D02*
X135255000Y-43000000D01*
X135255000Y-49660000D02*
X135255000Y-48440000D01*
X133785000Y-43000000D02*
X133785000Y-48440000D01*
X136725000Y-43000000D02*
X133785000Y-43000000D01*
X136725000Y-48440000D02*
X136725000Y-43000000D01*
X133785000Y-48440000D02*
X136725000Y-48440000D01*
X131445000Y-41780000D02*
X131445000Y-43000000D01*
X131445000Y-49660000D02*
X131445000Y-48440000D01*
X129975000Y-43000000D02*
X129975000Y-48440000D01*
X132915000Y-43000000D02*
X129975000Y-43000000D01*
X132915000Y-48440000D02*
X132915000Y-43000000D01*
X129975000Y-48440000D02*
X132915000Y-48440000D01*
X132895000Y-43550000D02*
X129995000Y-43550000D01*
X129995000Y-43550000D02*
X129995000Y-43750000D01*
X129995000Y-43750000D02*
X132895000Y-43750000D01*
X132895000Y-43750000D02*
X132895000Y-43650000D01*
X132895000Y-43650000D02*
X129995000Y-43650000D01*
X168590000Y-100838000D02*
G75*
G03X168590000Y-100838000I-950000J0D01*
G01*
X168860316Y-95788445D02*
G75*
G03X173138000Y-94760000I1827684J1808445D01*
G01*
X168846259Y-92168125D02*
G75*
G02X173138000Y-93160000I1841741J-1811875D01*
G01*
X168838000Y-92180000D02*
X168838000Y-95780000D01*
X168860316Y-105948445D02*
G75*
G03X173138000Y-104920000I1827684J1808445D01*
G01*
X168846259Y-102328125D02*
G75*
G02X173138000Y-103320000I1841741J-1811875D01*
G01*
X168838000Y-102340000D02*
X168838000Y-105940000D01*
X131365000Y-102370000D02*
X127305000Y-102370000D01*
X131365000Y-104640000D02*
X131365000Y-102370000D01*
X127305000Y-104640000D02*
X131365000Y-104640000D01*
D14*
X147945000Y-89110000D02*
X147945000Y-90860000D01*
X153700000Y-89110000D02*
X153700000Y-83610000D01*
X147290000Y-89110000D02*
X147290000Y-83610000D01*
X153700000Y-89110000D02*
X152950000Y-89110000D01*
X153700000Y-83610000D02*
X152950000Y-83610000D01*
X147290000Y-83610000D02*
X148040000Y-83610000D01*
X147290000Y-89110000D02*
X147945000Y-89110000D01*
D13*
X155650000Y-89415252D02*
X155650000Y-88892748D01*
X154230000Y-89415252D02*
X154230000Y-88892748D01*
X152460000Y-92650000D02*
X152460000Y-93980000D01*
X151130000Y-92650000D02*
X152460000Y-92650000D01*
X149860000Y-92650000D02*
X149860000Y-95310000D01*
X149860000Y-95310000D02*
X147260000Y-95310000D01*
X149860000Y-92650000D02*
X147260000Y-92650000D01*
X147260000Y-92650000D02*
X147260000Y-95310000D01*
X127508000Y-56134000D02*
G75*
G02X128524000Y-55118000I1016000J0D01*
G01*
X143764000Y-55118000D02*
G75*
G02X144780000Y-56134000I0J-1016000D01*
G01*
X136144000Y-92202000D02*
X143510000Y-92202000D01*
X140208000Y-92202000D02*
X132334000Y-92202000D01*
X144780000Y-56134000D02*
X144780000Y-90932000D01*
X132334000Y-55118000D02*
X140208000Y-55118000D01*
X135890000Y-92202000D02*
X128524000Y-92202000D01*
X127508000Y-91186000D02*
X127508000Y-56134000D01*
X128524000Y-55118000D02*
X132334000Y-55118000D01*
X128524000Y-92202000D02*
G75*
G02X127508000Y-91186000I0J1016000D01*
G01*
X143764000Y-55118000D02*
X140208000Y-55118000D01*
X144780000Y-90932000D02*
G75*
G02X143510000Y-92202000I-1270000J0D01*
G01*
X177105000Y-95310000D02*
X177105000Y-93980000D01*
X178435000Y-95310000D02*
X177105000Y-95310000D01*
X179705000Y-95310000D02*
X179705000Y-92650000D01*
X179705000Y-92650000D02*
X182305000Y-92650000D01*
X179705000Y-95310000D02*
X182305000Y-95310000D01*
X182305000Y-95310000D02*
X182305000Y-92650000D01*
X144586000Y-110042000D02*
X143256000Y-110042000D01*
X144586000Y-108712000D02*
X144586000Y-110042000D01*
X144586000Y-107442000D02*
X141926000Y-107442000D01*
X141926000Y-107442000D02*
X141926000Y-104842000D01*
X144586000Y-107442000D02*
X144586000Y-104842000D01*
X144586000Y-104842000D02*
X141926000Y-104842000D01*
X145995000Y-100850000D02*
X142295000Y-100850000D01*
X145995000Y-94730000D02*
X145995000Y-100850000D01*
X142295000Y-94730000D02*
X145995000Y-94730000D01*
X142295000Y-100850000D02*
X142295000Y-94730000D01*
X152698000Y-105886000D02*
X152698000Y-106386000D01*
X152448000Y-106136000D02*
X152948000Y-106136000D01*
X153188000Y-108891563D02*
X154252437Y-109956000D01*
X153188000Y-106500437D02*
X154252437Y-105436000D01*
X153188000Y-106500437D02*
X153188000Y-106636000D01*
X153188000Y-108891563D02*
X153188000Y-108756000D01*
X154252437Y-109956000D02*
X157708000Y-109956000D01*
X154252437Y-105436000D02*
X157708000Y-105436000D01*
X157708000Y-105436000D02*
X157708000Y-106636000D01*
X157708000Y-109956000D02*
X157708000Y-108756000D01*
X159236000Y-108896000D02*
X159386000Y-108896000D01*
X159236000Y-106496000D02*
X159386000Y-106496000D01*
X161786000Y-106496000D02*
X161836000Y-106496000D01*
X162836000Y-106496000D02*
X162686000Y-106496000D01*
X162836000Y-108896000D02*
X162686000Y-108896000D01*
X163036000Y-106896000D02*
X163036000Y-106496000D01*
X162836000Y-106896000D02*
X162836000Y-106496000D01*
X159236000Y-106896000D02*
X159236000Y-106496000D01*
X163036000Y-108896000D02*
X163036000Y-106896000D01*
X161786000Y-106496000D02*
X161786000Y-106096000D01*
X162836000Y-106896000D02*
X162836000Y-108896000D01*
X159236000Y-108896000D02*
X159236000Y-106896000D01*
X163314748Y-88340000D02*
X163837252Y-88340000D01*
X163314748Y-86920000D02*
X163837252Y-86920000D01*
X156611000Y-88540000D02*
X159496000Y-88540000D01*
X156611000Y-86720000D02*
X156611000Y-88540000D01*
X159496000Y-86720000D02*
X156611000Y-86720000D01*
X156611000Y-85238000D02*
X159496000Y-85238000D01*
X156611000Y-83418000D02*
X156611000Y-85238000D01*
X159496000Y-83418000D02*
X156611000Y-83418000D01*
X163837252Y-83618000D02*
X163314748Y-83618000D01*
X163837252Y-85038000D02*
X163314748Y-85038000D01*
X150140000Y-35560000D02*
X152940000Y-35560000D01*
X150140000Y-35560000D02*
X150140000Y-58060000D01*
X159740000Y-35560000D02*
X159740000Y-58060000D01*
X156940000Y-35560000D02*
X159740000Y-35560000D01*
X156940000Y-58060000D02*
X159740000Y-58060000D01*
X150140000Y-58060000D02*
X152940000Y-58060000D01*
X166930000Y-94988748D02*
X166930000Y-95511252D01*
X168350000Y-94988748D02*
X168350000Y-95511252D01*
X122980000Y-37560000D02*
X122980000Y-38060000D01*
X122730000Y-37810000D02*
X123230000Y-37810000D01*
X123470000Y-40565563D02*
X124534437Y-41630000D01*
X123470000Y-38174437D02*
X124534437Y-37110000D01*
X123470000Y-38174437D02*
X123470000Y-38310000D01*
X123470000Y-40565563D02*
X123470000Y-40430000D01*
X124534437Y-41630000D02*
X127990000Y-41630000D01*
X124534437Y-37110000D02*
X127990000Y-37110000D01*
X127990000Y-37110000D02*
X127990000Y-38310000D01*
X127990000Y-41630000D02*
X127990000Y-40430000D01*
X169890000Y-53800000D02*
X168145000Y-53800000D01*
X173485000Y-53800000D02*
X171740000Y-53800000D01*
X169890000Y-42560000D02*
X168145000Y-42560000D01*
X173485000Y-42560000D02*
X171740000Y-42560000D01*
X168145000Y-42560000D02*
X168145000Y-53800000D01*
X173485000Y-42560000D02*
X173485000Y-53800000D01*
X124670000Y-62770000D02*
X124670000Y-62270000D01*
X124920000Y-62520000D02*
X124420000Y-62520000D01*
X124180000Y-59764437D02*
X123115563Y-58700000D01*
X124180000Y-62155563D02*
X123115563Y-63220000D01*
X124180000Y-62155563D02*
X124180000Y-62020000D01*
X124180000Y-59764437D02*
X124180000Y-59900000D01*
X123115563Y-58700000D02*
X119660000Y-58700000D01*
X123115563Y-63220000D02*
X119660000Y-63220000D01*
X119660000Y-63220000D02*
X119660000Y-62020000D01*
X119660000Y-58700000D02*
X119660000Y-59900000D01*
X124670000Y-90710000D02*
X124670000Y-90210000D01*
X124920000Y-90460000D02*
X124420000Y-90460000D01*
X124180000Y-87704437D02*
X123115563Y-86640000D01*
X124180000Y-90095563D02*
X123115563Y-91160000D01*
X124180000Y-90095563D02*
X124180000Y-89960000D01*
X124180000Y-87704437D02*
X124180000Y-87840000D01*
X123115563Y-86640000D02*
X119660000Y-86640000D01*
X123115563Y-91160000D02*
X119660000Y-91160000D01*
X119660000Y-91160000D02*
X119660000Y-89960000D01*
X119660000Y-86640000D02*
X119660000Y-87840000D01*
X124670000Y-78010000D02*
X124670000Y-77510000D01*
X124920000Y-77760000D02*
X124420000Y-77760000D01*
X124180000Y-75004437D02*
X123115563Y-73940000D01*
X124180000Y-77395563D02*
X123115563Y-78460000D01*
X124180000Y-77395563D02*
X124180000Y-77260000D01*
X124180000Y-75004437D02*
X124180000Y-75140000D01*
X123115563Y-73940000D02*
X119660000Y-73940000D01*
X123115563Y-78460000D02*
X119660000Y-78460000D01*
X119660000Y-78460000D02*
X119660000Y-77260000D01*
X119660000Y-73940000D02*
X119660000Y-75140000D01*
X124670000Y-84360000D02*
X124670000Y-83860000D01*
X124920000Y-84110000D02*
X124420000Y-84110000D01*
X124180000Y-81354437D02*
X123115563Y-80290000D01*
X124180000Y-83745563D02*
X123115563Y-84810000D01*
X124180000Y-83745563D02*
X124180000Y-83610000D01*
X124180000Y-81354437D02*
X124180000Y-81490000D01*
X123115563Y-80290000D02*
X119660000Y-80290000D01*
X123115563Y-84810000D02*
X119660000Y-84810000D01*
X119660000Y-84810000D02*
X119660000Y-83610000D01*
X119660000Y-80290000D02*
X119660000Y-81490000D01*
X180248000Y-100530000D02*
X180248000Y-97590000D01*
X180008000Y-100530000D02*
X180008000Y-97590000D01*
X180128000Y-100530000D02*
X180128000Y-97590000D01*
X175588000Y-97590000D02*
X175588000Y-97920000D01*
X181028000Y-97590000D02*
X175588000Y-97590000D01*
X181028000Y-97920000D02*
X181028000Y-97590000D01*
X175588000Y-100530000D02*
X175588000Y-100200000D01*
X181028000Y-100530000D02*
X175588000Y-100530000D01*
X181028000Y-100200000D02*
X181028000Y-100530000D01*
X176495000Y-87430000D02*
X176495000Y-90370000D01*
X176735000Y-87430000D02*
X176735000Y-90370000D01*
X176615000Y-87430000D02*
X176615000Y-90370000D01*
X181155000Y-90370000D02*
X181155000Y-90040000D01*
X175715000Y-90370000D02*
X181155000Y-90370000D01*
X175715000Y-90040000D02*
X175715000Y-90370000D01*
X181155000Y-87430000D02*
X181155000Y-87760000D01*
X175715000Y-87430000D02*
X181155000Y-87430000D01*
X175715000Y-87760000D02*
X175715000Y-87430000D01*
X183610000Y-69161000D02*
X182100000Y-69161000D01*
X183610000Y-65460000D02*
X182100000Y-65460000D01*
X182100000Y-62190000D02*
X182100000Y-72430000D01*
X183610000Y-72430000D02*
X178969000Y-72430000D01*
X183610000Y-62190000D02*
X178969000Y-62190000D01*
X178969000Y-62190000D02*
X178969000Y-72430000D01*
X183610000Y-62190000D02*
X183610000Y-72430000D01*
X174565000Y-105470000D02*
X174565000Y-104140000D01*
X175895000Y-105470000D02*
X174565000Y-105470000D01*
X177165000Y-105470000D02*
X177165000Y-102810000D01*
X177165000Y-102810000D02*
X182305000Y-102810000D01*
X177165000Y-105470000D02*
X182305000Y-105470000D01*
X182305000Y-105470000D02*
X182305000Y-102810000D01*
X141030000Y-95190000D02*
X141030000Y-96520000D01*
X139700000Y-95190000D02*
X141030000Y-95190000D01*
X138430000Y-95190000D02*
X138430000Y-97850000D01*
X138430000Y-97850000D02*
X130750000Y-97850000D01*
X138430000Y-95190000D02*
X130750000Y-95190000D01*
X130750000Y-95190000D02*
X130750000Y-97850000D01*
X170441252Y-83110000D02*
X169918748Y-83110000D01*
X170441252Y-84530000D02*
X169918748Y-84530000D01*
X166910000Y-69750000D02*
X166910000Y-70080000D01*
X173450000Y-69750000D02*
X166910000Y-69750000D01*
X173450000Y-70080000D02*
X173450000Y-69750000D01*
X166910000Y-72490000D02*
X166910000Y-72160000D01*
X173450000Y-72490000D02*
X166910000Y-72490000D01*
X173450000Y-72160000D02*
X173450000Y-72490000D01*
X166910000Y-64670000D02*
X166910000Y-65000000D01*
X173450000Y-64670000D02*
X166910000Y-64670000D01*
X173450000Y-65000000D02*
X173450000Y-64670000D01*
X166910000Y-67410000D02*
X166910000Y-67080000D01*
X173450000Y-67410000D02*
X166910000Y-67410000D01*
X173450000Y-67080000D02*
X173450000Y-67410000D01*
X149308000Y-104350000D02*
X150368000Y-104350000D01*
X149308000Y-105410000D02*
X149308000Y-104350000D01*
X149308000Y-106410000D02*
X151428000Y-106410000D01*
X151428000Y-106410000D02*
X151428000Y-110470000D01*
X149308000Y-106410000D02*
X149308000Y-110470000D01*
X149308000Y-110470000D02*
X151428000Y-110470000D01*
X148142000Y-110042000D02*
X146812000Y-110042000D01*
X148142000Y-108712000D02*
X148142000Y-110042000D01*
X148142000Y-107442000D02*
X145482000Y-107442000D01*
X145482000Y-107442000D02*
X145482000Y-104842000D01*
X148142000Y-107442000D02*
X148142000Y-104842000D01*
X148142000Y-104842000D02*
X145482000Y-104842000D01*
X116110000Y-45139000D02*
X117620000Y-45139000D01*
X116110000Y-48840000D02*
X117620000Y-48840000D01*
X117620000Y-52110000D02*
X117620000Y-41870000D01*
X116110000Y-41870000D02*
X120751000Y-41870000D01*
X116110000Y-52110000D02*
X120751000Y-52110000D01*
X120751000Y-52110000D02*
X120751000Y-41870000D01*
X116110000Y-52110000D02*
X116110000Y-41870000D01*
D12*
X157226000Y-100838000D02*
G75*
G03X157226000Y-100838000I-254000J0D01*
G01*
D14*
X155350000Y-102685000D02*
X155350000Y-104110000D01*
X155125000Y-95435000D02*
X155125000Y-95760000D01*
X162375000Y-95435000D02*
X162375000Y-95760000D01*
X162375000Y-102685000D02*
X162375000Y-102360000D01*
X155125000Y-102685000D02*
X155125000Y-102360000D01*
X162375000Y-102685000D02*
X162050000Y-102685000D01*
X162375000Y-95435000D02*
X162050000Y-95435000D01*
X155125000Y-95435000D02*
X155450000Y-95435000D01*
X155125000Y-102685000D02*
X155350000Y-102685000D01*
D13*
X172660000Y-77360000D02*
X172660000Y-79010000D01*
X180400000Y-77360000D02*
X172660000Y-77360000D01*
X180400000Y-82660000D02*
X180400000Y-77360000D01*
X172660000Y-82660000D02*
X180400000Y-82660000D01*
X172660000Y-81010000D02*
X172660000Y-82660000D01*
X172660000Y-79010000D02*
G75*
G02X172660000Y-81010000I0J-1000000D01*
G01*
X125410000Y-44450000D02*
G75*
G03X125410000Y-44450000I-950000J0D01*
G01*
X171892000Y-86614000D02*
G75*
G03X171892000Y-86614000I-950000J0D01*
G01*
X168590000Y-91440000D02*
G75*
G03X168590000Y-91440000I-950000J0D01*
G01*
X177800000Y-54229000D02*
X182880000Y-54229000D01*
X177800000Y-41529000D02*
X177800000Y-53721000D01*
X182880000Y-54229000D02*
X182880000Y-41529000D01*
X182880000Y-41529000D02*
X177800000Y-41529000D01*
X177800000Y-53721000D02*
X177800000Y-54229000D01*
X173609000Y-40005000D02*
X173609000Y-34925000D01*
X160909000Y-40005000D02*
X173101000Y-40005000D01*
X173609000Y-34925000D02*
X160909000Y-34925000D01*
X160909000Y-34925000D02*
X160909000Y-40005000D01*
X173101000Y-40005000D02*
X173609000Y-40005000D01*
X161036000Y-56515000D02*
X161036000Y-61595000D01*
X173736000Y-56515000D02*
X161544000Y-56515000D01*
X161036000Y-61595000D02*
X173736000Y-61595000D01*
X173736000Y-61595000D02*
X173736000Y-56515000D01*
X161544000Y-56515000D02*
X161036000Y-56515000D01*
X166370000Y-41656000D02*
X161290000Y-41656000D01*
X166370000Y-54356000D02*
X166370000Y-42164000D01*
X161290000Y-41656000D02*
X161290000Y-54356000D01*
X161290000Y-54356000D02*
X166370000Y-54356000D01*
X166370000Y-42164000D02*
X166370000Y-41656000D01*
X125670000Y-101025000D02*
X125670000Y-99695000D01*
X127000000Y-101025000D02*
X125670000Y-101025000D01*
X128270000Y-101025000D02*
X128270000Y-98365000D01*
X128270000Y-98365000D02*
X141030000Y-98365000D01*
X128270000Y-101025000D02*
X141030000Y-101025000D01*
X141030000Y-101025000D02*
X141030000Y-98365000D01*
X145288000Y-39116000D02*
X145288000Y-34036000D01*
X132588000Y-39116000D02*
X144780000Y-39116000D01*
X145288000Y-34036000D02*
X132588000Y-34036000D01*
X132588000Y-34036000D02*
X132588000Y-39116000D01*
X144780000Y-39116000D02*
X145288000Y-39116000D01*
X159011252Y-90730000D02*
X158488748Y-90730000D01*
X159011252Y-92150000D02*
X158488748Y-92150000D01*
X122181252Y-56440000D02*
X121658748Y-56440000D01*
X122181252Y-57860000D02*
X121658748Y-57860000D01*
X121658748Y-71830000D02*
X122181252Y-71830000D01*
X121658748Y-70410000D02*
X122181252Y-70410000D01*
D14*
X143708380Y-46458095D02*
X142708380Y-46458095D01*
X142708380Y-46220000D01*
X142756000Y-46077142D01*
X142851238Y-45981904D01*
X142946476Y-45934285D01*
X143136952Y-45886666D01*
X143279809Y-45886666D01*
X143470285Y-45934285D01*
X143565523Y-45981904D01*
X143660761Y-46077142D01*
X143708380Y-46220000D01*
X143708380Y-46458095D01*
X143708380Y-45410476D02*
X143708380Y-45220000D01*
X143660761Y-45124761D01*
X143613142Y-45077142D01*
X143470285Y-44981904D01*
X143279809Y-44934285D01*
X142898857Y-44934285D01*
X142803619Y-44981904D01*
X142756000Y-45029523D01*
X142708380Y-45124761D01*
X142708380Y-45315238D01*
X142756000Y-45410476D01*
X142803619Y-45458095D01*
X142898857Y-45505714D01*
X143136952Y-45505714D01*
X143232190Y-45458095D01*
X143279809Y-45410476D01*
X143327428Y-45315238D01*
X143327428Y-45124761D01*
X143279809Y-45029523D01*
X143232190Y-44981904D01*
X143136952Y-44934285D01*
X139517380Y-47304285D02*
X138517380Y-47304285D01*
X138517380Y-47066190D01*
X138565000Y-46923333D01*
X138660238Y-46828095D01*
X138755476Y-46780476D01*
X138945952Y-46732857D01*
X139088809Y-46732857D01*
X139279285Y-46780476D01*
X139374523Y-46828095D01*
X139469761Y-46923333D01*
X139517380Y-47066190D01*
X139517380Y-47304285D01*
X139517380Y-45780476D02*
X139517380Y-46351904D01*
X139517380Y-46066190D02*
X138517380Y-46066190D01*
X138660238Y-46161428D01*
X138755476Y-46256666D01*
X138803095Y-46351904D01*
X138517380Y-45161428D02*
X138517380Y-45066190D01*
X138565000Y-44970952D01*
X138612619Y-44923333D01*
X138707857Y-44875714D01*
X138898333Y-44828095D01*
X139136428Y-44828095D01*
X139326904Y-44875714D01*
X139422142Y-44923333D01*
X139469761Y-44970952D01*
X139517380Y-45066190D01*
X139517380Y-45161428D01*
X139469761Y-45256666D01*
X139422142Y-45304285D01*
X139326904Y-45351904D01*
X139136428Y-45399523D01*
X138898333Y-45399523D01*
X138707857Y-45351904D01*
X138612619Y-45304285D01*
X138565000Y-45256666D01*
X138517380Y-45161428D01*
X135580380Y-46458095D02*
X134580380Y-46458095D01*
X134580380Y-46220000D01*
X134628000Y-46077142D01*
X134723238Y-45981904D01*
X134818476Y-45934285D01*
X135008952Y-45886666D01*
X135151809Y-45886666D01*
X135342285Y-45934285D01*
X135437523Y-45981904D01*
X135532761Y-46077142D01*
X135580380Y-46220000D01*
X135580380Y-46458095D01*
X135008952Y-45315238D02*
X134961333Y-45410476D01*
X134913714Y-45458095D01*
X134818476Y-45505714D01*
X134770857Y-45505714D01*
X134675619Y-45458095D01*
X134628000Y-45410476D01*
X134580380Y-45315238D01*
X134580380Y-45124761D01*
X134628000Y-45029523D01*
X134675619Y-44981904D01*
X134770857Y-44934285D01*
X134818476Y-44934285D01*
X134913714Y-44981904D01*
X134961333Y-45029523D01*
X135008952Y-45124761D01*
X135008952Y-45315238D01*
X135056571Y-45410476D01*
X135104190Y-45458095D01*
X135199428Y-45505714D01*
X135389904Y-45505714D01*
X135485142Y-45458095D01*
X135532761Y-45410476D01*
X135580380Y-45315238D01*
X135580380Y-45124761D01*
X135532761Y-45029523D01*
X135485142Y-44981904D01*
X135389904Y-44934285D01*
X135199428Y-44934285D01*
X135104190Y-44981904D01*
X135056571Y-45029523D01*
X135008952Y-45124761D01*
X132024380Y-46458095D02*
X131024380Y-46458095D01*
X131024380Y-46220000D01*
X131072000Y-46077142D01*
X131167238Y-45981904D01*
X131262476Y-45934285D01*
X131452952Y-45886666D01*
X131595809Y-45886666D01*
X131786285Y-45934285D01*
X131881523Y-45981904D01*
X131976761Y-46077142D01*
X132024380Y-46220000D01*
X132024380Y-46458095D01*
X131024380Y-45553333D02*
X131024380Y-44886666D01*
X132024380Y-45315238D01*
X165108095Y-102576380D02*
X165679523Y-102576380D01*
X165393809Y-103576380D02*
X165393809Y-102576380D01*
X166012857Y-103576380D02*
X166012857Y-102576380D01*
X166393809Y-102576380D01*
X166489047Y-102624000D01*
X166536666Y-102671619D01*
X166584285Y-102766857D01*
X166584285Y-102909714D01*
X166536666Y-103004952D01*
X166489047Y-103052571D01*
X166393809Y-103100190D01*
X166012857Y-103100190D01*
X167536666Y-103576380D02*
X166965238Y-103576380D01*
X167250952Y-103576380D02*
X167250952Y-102576380D01*
X167155714Y-102719238D01*
X167060476Y-102814476D01*
X166965238Y-102862095D01*
X169203619Y-97631238D02*
X169156000Y-97726476D01*
X169060761Y-97821714D01*
X168917904Y-97964571D01*
X168870285Y-98059809D01*
X168870285Y-98155047D01*
X169108380Y-98107428D02*
X169060761Y-98202666D01*
X168965523Y-98297904D01*
X168775047Y-98345523D01*
X168441714Y-98345523D01*
X168251238Y-98297904D01*
X168156000Y-98202666D01*
X168108380Y-98107428D01*
X168108380Y-97916952D01*
X168156000Y-97821714D01*
X168251238Y-97726476D01*
X168441714Y-97678857D01*
X168775047Y-97678857D01*
X168965523Y-97726476D01*
X169060761Y-97821714D01*
X169108380Y-97916952D01*
X169108380Y-98107428D01*
X168203619Y-97297904D02*
X168156000Y-97250285D01*
X168108380Y-97155047D01*
X168108380Y-96916952D01*
X168156000Y-96821714D01*
X168203619Y-96774095D01*
X168298857Y-96726476D01*
X168394095Y-96726476D01*
X168536952Y-96774095D01*
X169108380Y-97345523D01*
X169108380Y-96726476D01*
X169711619Y-107791238D02*
X169664000Y-107886476D01*
X169568761Y-107981714D01*
X169425904Y-108124571D01*
X169378285Y-108219809D01*
X169378285Y-108315047D01*
X169616380Y-108267428D02*
X169568761Y-108362666D01*
X169473523Y-108457904D01*
X169283047Y-108505523D01*
X168949714Y-108505523D01*
X168759238Y-108457904D01*
X168664000Y-108362666D01*
X168616380Y-108267428D01*
X168616380Y-108076952D01*
X168664000Y-107981714D01*
X168759238Y-107886476D01*
X168949714Y-107838857D01*
X169283047Y-107838857D01*
X169473523Y-107886476D01*
X169568761Y-107981714D01*
X169616380Y-108076952D01*
X169616380Y-108267428D01*
X169616380Y-106886476D02*
X169616380Y-107457904D01*
X169616380Y-107172190D02*
X168616380Y-107172190D01*
X168759238Y-107267428D01*
X168854476Y-107362666D01*
X168902095Y-107457904D01*
X128166904Y-105777380D02*
X128166904Y-104777380D01*
X128405000Y-104777380D01*
X128547857Y-104825000D01*
X128643095Y-104920238D01*
X128690714Y-105015476D01*
X128738333Y-105205952D01*
X128738333Y-105348809D01*
X128690714Y-105539285D01*
X128643095Y-105634523D01*
X128547857Y-105729761D01*
X128405000Y-105777380D01*
X128166904Y-105777380D01*
X129690714Y-105777380D02*
X129119285Y-105777380D01*
X129405000Y-105777380D02*
X129405000Y-104777380D01*
X129309761Y-104920238D01*
X129214523Y-105015476D01*
X129119285Y-105063095D01*
X145817380Y-87121904D02*
X146626904Y-87121904D01*
X146722142Y-87074285D01*
X146769761Y-87026666D01*
X146817380Y-86931428D01*
X146817380Y-86740952D01*
X146769761Y-86645714D01*
X146722142Y-86598095D01*
X146626904Y-86550476D01*
X145817380Y-86550476D01*
X145817380Y-85598095D02*
X145817380Y-86074285D01*
X146293571Y-86121904D01*
X146245952Y-86074285D01*
X146198333Y-85979047D01*
X146198333Y-85740952D01*
X146245952Y-85645714D01*
X146293571Y-85598095D01*
X146388809Y-85550476D01*
X146626904Y-85550476D01*
X146722142Y-85598095D01*
X146769761Y-85645714D01*
X146817380Y-85740952D01*
X146817380Y-85979047D01*
X146769761Y-86074285D01*
X146722142Y-86121904D01*
X155297142Y-86240857D02*
X155344761Y-86288476D01*
X155392380Y-86431333D01*
X155392380Y-86526571D01*
X155344761Y-86669428D01*
X155249523Y-86764666D01*
X155154285Y-86812285D01*
X154963809Y-86859904D01*
X154820952Y-86859904D01*
X154630476Y-86812285D01*
X154535238Y-86764666D01*
X154440000Y-86669428D01*
X154392380Y-86526571D01*
X154392380Y-86431333D01*
X154440000Y-86288476D01*
X154487619Y-86240857D01*
X155392380Y-85288476D02*
X155392380Y-85859904D01*
X155392380Y-85574190D02*
X154392380Y-85574190D01*
X154535238Y-85669428D01*
X154630476Y-85764666D01*
X154678095Y-85859904D01*
X154392380Y-84669428D02*
X154392380Y-84574190D01*
X154440000Y-84478952D01*
X154487619Y-84431333D01*
X154582857Y-84383714D01*
X154773333Y-84336095D01*
X155011428Y-84336095D01*
X155201904Y-84383714D01*
X155297142Y-84431333D01*
X155344761Y-84478952D01*
X155392380Y-84574190D01*
X155392380Y-84669428D01*
X155344761Y-84764666D01*
X155297142Y-84812285D01*
X155201904Y-84859904D01*
X155011428Y-84907523D01*
X154773333Y-84907523D01*
X154582857Y-84859904D01*
X154487619Y-84812285D01*
X154440000Y-84764666D01*
X154392380Y-84669428D01*
X152912380Y-94313333D02*
X153626666Y-94313333D01*
X153769523Y-94360952D01*
X153864761Y-94456190D01*
X153912380Y-94599047D01*
X153912380Y-94694285D01*
X153912380Y-93789523D02*
X153912380Y-93599047D01*
X153864761Y-93503809D01*
X153817142Y-93456190D01*
X153674285Y-93360952D01*
X153483809Y-93313333D01*
X153102857Y-93313333D01*
X153007619Y-93360952D01*
X152960000Y-93408571D01*
X152912380Y-93503809D01*
X152912380Y-93694285D01*
X152960000Y-93789523D01*
X153007619Y-93837142D01*
X153102857Y-93884761D01*
X153340952Y-93884761D01*
X153436190Y-93837142D01*
X153483809Y-93789523D01*
X153531428Y-93694285D01*
X153531428Y-93503809D01*
X153483809Y-93408571D01*
X153436190Y-93360952D01*
X153340952Y-93313333D01*
X138390380Y-74421904D02*
X139199904Y-74421904D01*
X139295142Y-74374285D01*
X139342761Y-74326666D01*
X139390380Y-74231428D01*
X139390380Y-74040952D01*
X139342761Y-73945714D01*
X139295142Y-73898095D01*
X139199904Y-73850476D01*
X138390380Y-73850476D01*
X138723714Y-72945714D02*
X139390380Y-72945714D01*
X138342761Y-73183809D02*
X139057047Y-73421904D01*
X139057047Y-72802857D01*
X138390380Y-74421904D02*
X139199904Y-74421904D01*
X139295142Y-74374285D01*
X139342761Y-74326666D01*
X139390380Y-74231428D01*
X139390380Y-74040952D01*
X139342761Y-73945714D01*
X139295142Y-73898095D01*
X139199904Y-73850476D01*
X138390380Y-73850476D01*
X138723714Y-72945714D02*
X139390380Y-72945714D01*
X138342761Y-73183809D02*
X139057047Y-73421904D01*
X139057047Y-72802857D01*
X144295761Y-99123333D02*
X144343380Y-98980476D01*
X144343380Y-98742380D01*
X144295761Y-98647142D01*
X144248142Y-98599523D01*
X144152904Y-98551904D01*
X144057666Y-98551904D01*
X143962428Y-98599523D01*
X143914809Y-98647142D01*
X143867190Y-98742380D01*
X143819571Y-98932857D01*
X143771952Y-99028095D01*
X143724333Y-99075714D01*
X143629095Y-99123333D01*
X143533857Y-99123333D01*
X143438619Y-99075714D01*
X143391000Y-99028095D01*
X143343380Y-98932857D01*
X143343380Y-98694761D01*
X143391000Y-98551904D01*
X143343380Y-98218571D02*
X144343380Y-97980476D01*
X143629095Y-97790000D01*
X144343380Y-97599523D01*
X143343380Y-97361428D01*
X144343380Y-96456666D02*
X144343380Y-97028095D01*
X144343380Y-96742380D02*
X143343380Y-96742380D01*
X143486238Y-96837619D01*
X143581476Y-96932857D01*
X143629095Y-97028095D01*
X156678333Y-111482142D02*
X156630714Y-111529761D01*
X156487857Y-111577380D01*
X156392619Y-111577380D01*
X156249761Y-111529761D01*
X156154523Y-111434523D01*
X156106904Y-111339285D01*
X156059285Y-111148809D01*
X156059285Y-111005952D01*
X156106904Y-110815476D01*
X156154523Y-110720238D01*
X156249761Y-110625000D01*
X156392619Y-110577380D01*
X156487857Y-110577380D01*
X156630714Y-110625000D01*
X156678333Y-110672619D01*
X157535476Y-110577380D02*
X157345000Y-110577380D01*
X157249761Y-110625000D01*
X157202142Y-110672619D01*
X157106904Y-110815476D01*
X157059285Y-111005952D01*
X157059285Y-111386904D01*
X157106904Y-111482142D01*
X157154523Y-111529761D01*
X157249761Y-111577380D01*
X157440238Y-111577380D01*
X157535476Y-111529761D01*
X157583095Y-111482142D01*
X157630714Y-111386904D01*
X157630714Y-111148809D01*
X157583095Y-111053571D01*
X157535476Y-111005952D01*
X157440238Y-110958333D01*
X157249761Y-110958333D01*
X157154523Y-111005952D01*
X157106904Y-111053571D01*
X157059285Y-111148809D01*
X160559809Y-110122190D02*
X160559809Y-110598380D01*
X160226476Y-109598380D02*
X160559809Y-110122190D01*
X160893142Y-109598380D01*
X161750285Y-110598380D02*
X161178857Y-110598380D01*
X161464571Y-110598380D02*
X161464571Y-109598380D01*
X161369333Y-109741238D01*
X161274095Y-109836476D01*
X161178857Y-109884095D01*
X163409333Y-89860380D02*
X163076000Y-89384190D01*
X162837904Y-89860380D02*
X162837904Y-88860380D01*
X163218857Y-88860380D01*
X163314095Y-88908000D01*
X163361714Y-88955619D01*
X163409333Y-89050857D01*
X163409333Y-89193714D01*
X163361714Y-89288952D01*
X163314095Y-89336571D01*
X163218857Y-89384190D01*
X162837904Y-89384190D01*
X163742666Y-88860380D02*
X164361714Y-88860380D01*
X164028380Y-89241333D01*
X164171238Y-89241333D01*
X164266476Y-89288952D01*
X164314095Y-89336571D01*
X164361714Y-89431809D01*
X164361714Y-89669904D01*
X164314095Y-89765142D01*
X164266476Y-89812761D01*
X164171238Y-89860380D01*
X163885523Y-89860380D01*
X163790285Y-89812761D01*
X163742666Y-89765142D01*
X157757904Y-86482380D02*
X157757904Y-85482380D01*
X157996000Y-85482380D01*
X158138857Y-85530000D01*
X158234095Y-85625238D01*
X158281714Y-85720476D01*
X158329333Y-85910952D01*
X158329333Y-86053809D01*
X158281714Y-86244285D01*
X158234095Y-86339523D01*
X158138857Y-86434761D01*
X157996000Y-86482380D01*
X157757904Y-86482380D01*
X158662666Y-85482380D02*
X159281714Y-85482380D01*
X158948380Y-85863333D01*
X159091238Y-85863333D01*
X159186476Y-85910952D01*
X159234095Y-85958571D01*
X159281714Y-86053809D01*
X159281714Y-86291904D01*
X159234095Y-86387142D01*
X159186476Y-86434761D01*
X159091238Y-86482380D01*
X158805523Y-86482380D01*
X158710285Y-86434761D01*
X158662666Y-86387142D01*
X157757904Y-83180380D02*
X157757904Y-82180380D01*
X157996000Y-82180380D01*
X158138857Y-82228000D01*
X158234095Y-82323238D01*
X158281714Y-82418476D01*
X158329333Y-82608952D01*
X158329333Y-82751809D01*
X158281714Y-82942285D01*
X158234095Y-83037523D01*
X158138857Y-83132761D01*
X157996000Y-83180380D01*
X157757904Y-83180380D01*
X158710285Y-82275619D02*
X158757904Y-82228000D01*
X158853142Y-82180380D01*
X159091238Y-82180380D01*
X159186476Y-82228000D01*
X159234095Y-82275619D01*
X159281714Y-82370857D01*
X159281714Y-82466095D01*
X159234095Y-82608952D01*
X158662666Y-83180380D01*
X159281714Y-83180380D01*
X163409333Y-83256380D02*
X163076000Y-82780190D01*
X162837904Y-83256380D02*
X162837904Y-82256380D01*
X163218857Y-82256380D01*
X163314095Y-82304000D01*
X163361714Y-82351619D01*
X163409333Y-82446857D01*
X163409333Y-82589714D01*
X163361714Y-82684952D01*
X163314095Y-82732571D01*
X163218857Y-82780190D01*
X162837904Y-82780190D01*
X163790285Y-82351619D02*
X163837904Y-82304000D01*
X163933142Y-82256380D01*
X164171238Y-82256380D01*
X164266476Y-82304000D01*
X164314095Y-82351619D01*
X164361714Y-82446857D01*
X164361714Y-82542095D01*
X164314095Y-82684952D01*
X163742666Y-83256380D01*
X164361714Y-83256380D01*
X155376571Y-47143333D02*
X155376571Y-47476666D01*
X155900380Y-47476666D02*
X154900380Y-47476666D01*
X154900380Y-47000476D01*
X155900380Y-46095714D02*
X155900380Y-46667142D01*
X155900380Y-46381428D02*
X154900380Y-46381428D01*
X155043238Y-46476666D01*
X155138476Y-46571904D01*
X155186095Y-46667142D01*
X166187380Y-95416666D02*
X165711190Y-95750000D01*
X166187380Y-95988095D02*
X165187380Y-95988095D01*
X165187380Y-95607142D01*
X165235000Y-95511904D01*
X165282619Y-95464285D01*
X165377857Y-95416666D01*
X165520714Y-95416666D01*
X165615952Y-95464285D01*
X165663571Y-95511904D01*
X165711190Y-95607142D01*
X165711190Y-95988095D01*
X165187380Y-94511904D02*
X165187380Y-94988095D01*
X165663571Y-95035714D01*
X165615952Y-94988095D01*
X165568333Y-94892857D01*
X165568333Y-94654761D01*
X165615952Y-94559523D01*
X165663571Y-94511904D01*
X165758809Y-94464285D01*
X165996904Y-94464285D01*
X166092142Y-94511904D01*
X166139761Y-94559523D01*
X166187380Y-94654761D01*
X166187380Y-94892857D01*
X166139761Y-94988095D01*
X166092142Y-95035714D01*
X125563333Y-36527142D02*
X125515714Y-36574761D01*
X125372857Y-36622380D01*
X125277619Y-36622380D01*
X125134761Y-36574761D01*
X125039523Y-36479523D01*
X124991904Y-36384285D01*
X124944285Y-36193809D01*
X124944285Y-36050952D01*
X124991904Y-35860476D01*
X125039523Y-35765238D01*
X125134761Y-35670000D01*
X125277619Y-35622380D01*
X125372857Y-35622380D01*
X125515714Y-35670000D01*
X125563333Y-35717619D01*
X125896666Y-35622380D02*
X126515714Y-35622380D01*
X126182380Y-36003333D01*
X126325238Y-36003333D01*
X126420476Y-36050952D01*
X126468095Y-36098571D01*
X126515714Y-36193809D01*
X126515714Y-36431904D01*
X126468095Y-36527142D01*
X126420476Y-36574761D01*
X126325238Y-36622380D01*
X126039523Y-36622380D01*
X125944285Y-36574761D01*
X125896666Y-36527142D01*
X171172142Y-48426666D02*
X171219761Y-48474285D01*
X171267380Y-48617142D01*
X171267380Y-48712380D01*
X171219761Y-48855238D01*
X171124523Y-48950476D01*
X171029285Y-48998095D01*
X170838809Y-49045714D01*
X170695952Y-49045714D01*
X170505476Y-48998095D01*
X170410238Y-48950476D01*
X170315000Y-48855238D01*
X170267380Y-48712380D01*
X170267380Y-48617142D01*
X170315000Y-48474285D01*
X170362619Y-48426666D01*
X170695952Y-47855238D02*
X170648333Y-47950476D01*
X170600714Y-47998095D01*
X170505476Y-48045714D01*
X170457857Y-48045714D01*
X170362619Y-47998095D01*
X170315000Y-47950476D01*
X170267380Y-47855238D01*
X170267380Y-47664761D01*
X170315000Y-47569523D01*
X170362619Y-47521904D01*
X170457857Y-47474285D01*
X170505476Y-47474285D01*
X170600714Y-47521904D01*
X170648333Y-47569523D01*
X170695952Y-47664761D01*
X170695952Y-47855238D01*
X170743571Y-47950476D01*
X170791190Y-47998095D01*
X170886428Y-48045714D01*
X171076904Y-48045714D01*
X171172142Y-47998095D01*
X171219761Y-47950476D01*
X171267380Y-47855238D01*
X171267380Y-47664761D01*
X171219761Y-47569523D01*
X171172142Y-47521904D01*
X171076904Y-47474285D01*
X170886428Y-47474285D01*
X170791190Y-47521904D01*
X170743571Y-47569523D01*
X170695952Y-47664761D01*
X121277142Y-64517142D02*
X121229523Y-64564761D01*
X121086666Y-64612380D01*
X120991428Y-64612380D01*
X120848571Y-64564761D01*
X120753333Y-64469523D01*
X120705714Y-64374285D01*
X120658095Y-64183809D01*
X120658095Y-64040952D01*
X120705714Y-63850476D01*
X120753333Y-63755238D01*
X120848571Y-63660000D01*
X120991428Y-63612380D01*
X121086666Y-63612380D01*
X121229523Y-63660000D01*
X121277142Y-63707619D01*
X122229523Y-64612380D02*
X121658095Y-64612380D01*
X121943809Y-64612380D02*
X121943809Y-63612380D01*
X121848571Y-63755238D01*
X121753333Y-63850476D01*
X121658095Y-63898095D01*
X123181904Y-64612380D02*
X122610476Y-64612380D01*
X122896190Y-64612380D02*
X122896190Y-63612380D01*
X122800952Y-63755238D01*
X122705714Y-63850476D01*
X122610476Y-63898095D01*
X124325142Y-92305142D02*
X124277523Y-92352761D01*
X124134666Y-92400380D01*
X124039428Y-92400380D01*
X123896571Y-92352761D01*
X123801333Y-92257523D01*
X123753714Y-92162285D01*
X123706095Y-91971809D01*
X123706095Y-91828952D01*
X123753714Y-91638476D01*
X123801333Y-91543238D01*
X123896571Y-91448000D01*
X124039428Y-91400380D01*
X124134666Y-91400380D01*
X124277523Y-91448000D01*
X124325142Y-91495619D01*
X125277523Y-92400380D02*
X124706095Y-92400380D01*
X124991809Y-92400380D02*
X124991809Y-91400380D01*
X124896571Y-91543238D01*
X124801333Y-91638476D01*
X124706095Y-91686095D01*
X126134666Y-91733714D02*
X126134666Y-92400380D01*
X125896571Y-91352761D02*
X125658476Y-92067047D01*
X126277523Y-92067047D01*
X124325142Y-79605142D02*
X124277523Y-79652761D01*
X124134666Y-79700380D01*
X124039428Y-79700380D01*
X123896571Y-79652761D01*
X123801333Y-79557523D01*
X123753714Y-79462285D01*
X123706095Y-79271809D01*
X123706095Y-79128952D01*
X123753714Y-78938476D01*
X123801333Y-78843238D01*
X123896571Y-78748000D01*
X124039428Y-78700380D01*
X124134666Y-78700380D01*
X124277523Y-78748000D01*
X124325142Y-78795619D01*
X125277523Y-79700380D02*
X124706095Y-79700380D01*
X124991809Y-79700380D02*
X124991809Y-78700380D01*
X124896571Y-78843238D01*
X124801333Y-78938476D01*
X124706095Y-78986095D01*
X126182285Y-78700380D02*
X125706095Y-78700380D01*
X125658476Y-79176571D01*
X125706095Y-79128952D01*
X125801333Y-79081333D01*
X126039428Y-79081333D01*
X126134666Y-79128952D01*
X126182285Y-79176571D01*
X126229904Y-79271809D01*
X126229904Y-79509904D01*
X126182285Y-79605142D01*
X126134666Y-79652761D01*
X126039428Y-79700380D01*
X125801333Y-79700380D01*
X125706095Y-79652761D01*
X125658476Y-79605142D01*
X124325142Y-85701142D02*
X124277523Y-85748761D01*
X124134666Y-85796380D01*
X124039428Y-85796380D01*
X123896571Y-85748761D01*
X123801333Y-85653523D01*
X123753714Y-85558285D01*
X123706095Y-85367809D01*
X123706095Y-85224952D01*
X123753714Y-85034476D01*
X123801333Y-84939238D01*
X123896571Y-84844000D01*
X124039428Y-84796380D01*
X124134666Y-84796380D01*
X124277523Y-84844000D01*
X124325142Y-84891619D01*
X125277523Y-85796380D02*
X124706095Y-85796380D01*
X124991809Y-85796380D02*
X124991809Y-84796380D01*
X124896571Y-84939238D01*
X124801333Y-85034476D01*
X124706095Y-85082095D01*
X126134666Y-84796380D02*
X125944190Y-84796380D01*
X125848952Y-84844000D01*
X125801333Y-84891619D01*
X125706095Y-85034476D01*
X125658476Y-85224952D01*
X125658476Y-85605904D01*
X125706095Y-85701142D01*
X125753714Y-85748761D01*
X125848952Y-85796380D01*
X126039428Y-85796380D01*
X126134666Y-85748761D01*
X126182285Y-85701142D01*
X126229904Y-85605904D01*
X126229904Y-85367809D01*
X126182285Y-85272571D01*
X126134666Y-85224952D01*
X126039428Y-85177333D01*
X125848952Y-85177333D01*
X125753714Y-85224952D01*
X125706095Y-85272571D01*
X125658476Y-85367809D01*
X177061904Y-99512380D02*
X177061904Y-98512380D01*
X177300000Y-98512380D01*
X177442857Y-98560000D01*
X177538095Y-98655238D01*
X177585714Y-98750476D01*
X177633333Y-98940952D01*
X177633333Y-99083809D01*
X177585714Y-99274285D01*
X177538095Y-99369523D01*
X177442857Y-99464761D01*
X177300000Y-99512380D01*
X177061904Y-99512380D01*
X178490476Y-98845714D02*
X178490476Y-99512380D01*
X178252380Y-98464761D02*
X178014285Y-99179047D01*
X178633333Y-99179047D01*
X178204904Y-89352380D02*
X178204904Y-88352380D01*
X178443000Y-88352380D01*
X178585857Y-88400000D01*
X178681095Y-88495238D01*
X178728714Y-88590476D01*
X178776333Y-88780952D01*
X178776333Y-88923809D01*
X178728714Y-89114285D01*
X178681095Y-89209523D01*
X178585857Y-89304761D01*
X178443000Y-89352380D01*
X178204904Y-89352380D01*
X179681095Y-88352380D02*
X179204904Y-88352380D01*
X179157285Y-88828571D01*
X179204904Y-88780952D01*
X179300142Y-88733333D01*
X179538238Y-88733333D01*
X179633476Y-88780952D01*
X179681095Y-88828571D01*
X179728714Y-88923809D01*
X179728714Y-89161904D01*
X179681095Y-89257142D01*
X179633476Y-89304761D01*
X179538238Y-89352380D01*
X179300142Y-89352380D01*
X179204904Y-89304761D01*
X179157285Y-89257142D01*
X185062380Y-68048095D02*
X184062380Y-68048095D01*
X184062380Y-67810000D01*
X184110000Y-67667142D01*
X184205238Y-67571904D01*
X184300476Y-67524285D01*
X184490952Y-67476666D01*
X184633809Y-67476666D01*
X184824285Y-67524285D01*
X184919523Y-67571904D01*
X185014761Y-67667142D01*
X185062380Y-67810000D01*
X185062380Y-68048095D01*
X184062380Y-66619523D02*
X184062380Y-66810000D01*
X184110000Y-66905238D01*
X184157619Y-66952857D01*
X184300476Y-67048095D01*
X184490952Y-67095714D01*
X184871904Y-67095714D01*
X184967142Y-67048095D01*
X185014761Y-67000476D01*
X185062380Y-66905238D01*
X185062380Y-66714761D01*
X185014761Y-66619523D01*
X184967142Y-66571904D01*
X184871904Y-66524285D01*
X184633809Y-66524285D01*
X184538571Y-66571904D01*
X184490952Y-66619523D01*
X184443333Y-66714761D01*
X184443333Y-66905238D01*
X184490952Y-67000476D01*
X184538571Y-67048095D01*
X184633809Y-67095714D01*
X129992380Y-97210476D02*
X129992380Y-97686666D01*
X128992380Y-97686666D01*
X129897142Y-96305714D02*
X129944761Y-96353333D01*
X129992380Y-96496190D01*
X129992380Y-96591428D01*
X129944761Y-96734285D01*
X129849523Y-96829523D01*
X129754285Y-96877142D01*
X129563809Y-96924761D01*
X129420952Y-96924761D01*
X129230476Y-96877142D01*
X129135238Y-96829523D01*
X129040000Y-96734285D01*
X128992380Y-96591428D01*
X128992380Y-96496190D01*
X129040000Y-96353333D01*
X129087619Y-96305714D01*
X129992380Y-95877142D02*
X128992380Y-95877142D01*
X128992380Y-95639047D01*
X129040000Y-95496190D01*
X129135238Y-95400952D01*
X129230476Y-95353333D01*
X129420952Y-95305714D01*
X129563809Y-95305714D01*
X129754285Y-95353333D01*
X129849523Y-95400952D01*
X129944761Y-95496190D01*
X129992380Y-95639047D01*
X129992380Y-95877142D01*
X170013333Y-82748380D02*
X169680000Y-82272190D01*
X169441904Y-82748380D02*
X169441904Y-81748380D01*
X169822857Y-81748380D01*
X169918095Y-81796000D01*
X169965714Y-81843619D01*
X170013333Y-81938857D01*
X170013333Y-82081714D01*
X169965714Y-82176952D01*
X169918095Y-82224571D01*
X169822857Y-82272190D01*
X169441904Y-82272190D01*
X170870476Y-81748380D02*
X170680000Y-81748380D01*
X170584761Y-81796000D01*
X170537142Y-81843619D01*
X170441904Y-81986476D01*
X170394285Y-82176952D01*
X170394285Y-82557904D01*
X170441904Y-82653142D01*
X170489523Y-82700761D01*
X170584761Y-82748380D01*
X170775238Y-82748380D01*
X170870476Y-82700761D01*
X170918095Y-82653142D01*
X170965714Y-82557904D01*
X170965714Y-82319809D01*
X170918095Y-82224571D01*
X170870476Y-82176952D01*
X170775238Y-82129333D01*
X170584761Y-82129333D01*
X170489523Y-82176952D01*
X170441904Y-82224571D01*
X170394285Y-82319809D01*
X170013333Y-73942380D02*
X169680000Y-73466190D01*
X169441904Y-73942380D02*
X169441904Y-72942380D01*
X169822857Y-72942380D01*
X169918095Y-72990000D01*
X169965714Y-73037619D01*
X170013333Y-73132857D01*
X170013333Y-73275714D01*
X169965714Y-73370952D01*
X169918095Y-73418571D01*
X169822857Y-73466190D01*
X169441904Y-73466190D01*
X170346666Y-72942380D02*
X171013333Y-72942380D01*
X170584761Y-73942380D01*
X170013333Y-68862380D02*
X169680000Y-68386190D01*
X169441904Y-68862380D02*
X169441904Y-67862380D01*
X169822857Y-67862380D01*
X169918095Y-67910000D01*
X169965714Y-67957619D01*
X170013333Y-68052857D01*
X170013333Y-68195714D01*
X169965714Y-68290952D01*
X169918095Y-68338571D01*
X169822857Y-68386190D01*
X169441904Y-68386190D01*
X170584761Y-68290952D02*
X170489523Y-68243333D01*
X170441904Y-68195714D01*
X170394285Y-68100476D01*
X170394285Y-68052857D01*
X170441904Y-67957619D01*
X170489523Y-67910000D01*
X170584761Y-67862380D01*
X170775238Y-67862380D01*
X170870476Y-67910000D01*
X170918095Y-67957619D01*
X170965714Y-68052857D01*
X170965714Y-68100476D01*
X170918095Y-68195714D01*
X170870476Y-68243333D01*
X170775238Y-68290952D01*
X170584761Y-68290952D01*
X170489523Y-68338571D01*
X170441904Y-68386190D01*
X170394285Y-68481428D01*
X170394285Y-68671904D01*
X170441904Y-68767142D01*
X170489523Y-68814761D01*
X170584761Y-68862380D01*
X170775238Y-68862380D01*
X170870476Y-68814761D01*
X170918095Y-68767142D01*
X170965714Y-68671904D01*
X170965714Y-68481428D01*
X170918095Y-68386190D01*
X170870476Y-68338571D01*
X170775238Y-68290952D01*
X114562380Y-47751904D02*
X115371904Y-47751904D01*
X115467142Y-47704285D01*
X115514761Y-47656666D01*
X115562380Y-47561428D01*
X115562380Y-47370952D01*
X115514761Y-47275714D01*
X115467142Y-47228095D01*
X115371904Y-47180476D01*
X114562380Y-47180476D01*
X115562380Y-46180476D02*
X115562380Y-46751904D01*
X115562380Y-46466190D02*
X114562380Y-46466190D01*
X114705238Y-46561428D01*
X114800476Y-46656666D01*
X114848095Y-46751904D01*
X158456380Y-99821904D02*
X159265904Y-99821904D01*
X159361142Y-99774285D01*
X159408761Y-99726666D01*
X159456380Y-99631428D01*
X159456380Y-99440952D01*
X159408761Y-99345714D01*
X159361142Y-99298095D01*
X159265904Y-99250476D01*
X158456380Y-99250476D01*
X158551619Y-98821904D02*
X158504000Y-98774285D01*
X158456380Y-98679047D01*
X158456380Y-98440952D01*
X158504000Y-98345714D01*
X158551619Y-98298095D01*
X158646857Y-98250476D01*
X158742095Y-98250476D01*
X158884952Y-98298095D01*
X159456380Y-98869523D01*
X159456380Y-98250476D01*
X176022095Y-80732380D02*
X176022095Y-81541904D01*
X176069714Y-81637142D01*
X176117333Y-81684761D01*
X176212571Y-81732380D01*
X176403047Y-81732380D01*
X176498285Y-81684761D01*
X176545904Y-81637142D01*
X176593523Y-81541904D01*
X176593523Y-80732380D01*
X176974476Y-80732380D02*
X177593523Y-80732380D01*
X177260190Y-81113333D01*
X177403047Y-81113333D01*
X177498285Y-81160952D01*
X177545904Y-81208571D01*
X177593523Y-81303809D01*
X177593523Y-81541904D01*
X177545904Y-81637142D01*
X177498285Y-81684761D01*
X177403047Y-81732380D01*
X177117333Y-81732380D01*
X177022095Y-81684761D01*
X176974476Y-81637142D01*
X125738095Y-44664380D02*
X126309523Y-44664380D01*
X126023809Y-45664380D02*
X126023809Y-44664380D01*
X126642857Y-45664380D02*
X126642857Y-44664380D01*
X127023809Y-44664380D01*
X127119047Y-44712000D01*
X127166666Y-44759619D01*
X127214285Y-44854857D01*
X127214285Y-44997714D01*
X127166666Y-45092952D01*
X127119047Y-45140571D01*
X127023809Y-45188190D01*
X126642857Y-45188190D01*
X127547619Y-44664380D02*
X128166666Y-44664380D01*
X127833333Y-45045333D01*
X127976190Y-45045333D01*
X128071428Y-45092952D01*
X128119047Y-45140571D01*
X128166666Y-45235809D01*
X128166666Y-45473904D01*
X128119047Y-45569142D01*
X128071428Y-45616761D01*
X127976190Y-45664380D01*
X127690476Y-45664380D01*
X127595238Y-45616761D01*
X127547619Y-45569142D01*
X166886095Y-85558380D02*
X167457523Y-85558380D01*
X167171809Y-86558380D02*
X167171809Y-85558380D01*
X167790857Y-86558380D02*
X167790857Y-85558380D01*
X168171809Y-85558380D01*
X168267047Y-85606000D01*
X168314666Y-85653619D01*
X168362285Y-85748857D01*
X168362285Y-85891714D01*
X168314666Y-85986952D01*
X168267047Y-86034571D01*
X168171809Y-86082190D01*
X167790857Y-86082190D01*
X169267047Y-85558380D02*
X168790857Y-85558380D01*
X168743238Y-86034571D01*
X168790857Y-85986952D01*
X168886095Y-85939333D01*
X169124190Y-85939333D01*
X169219428Y-85986952D01*
X169267047Y-86034571D01*
X169314666Y-86129809D01*
X169314666Y-86367904D01*
X169267047Y-86463142D01*
X169219428Y-86510761D01*
X169124190Y-86558380D01*
X168886095Y-86558380D01*
X168790857Y-86510761D01*
X168743238Y-86463142D01*
X168410095Y-89368380D02*
X168981523Y-89368380D01*
X168695809Y-90368380D02*
X168695809Y-89368380D01*
X169314857Y-90368380D02*
X169314857Y-89368380D01*
X169695809Y-89368380D01*
X169791047Y-89416000D01*
X169838666Y-89463619D01*
X169886285Y-89558857D01*
X169886285Y-89701714D01*
X169838666Y-89796952D01*
X169791047Y-89844571D01*
X169695809Y-89892190D01*
X169314857Y-89892190D01*
X170743428Y-89368380D02*
X170552952Y-89368380D01*
X170457714Y-89416000D01*
X170410095Y-89463619D01*
X170314857Y-89606476D01*
X170267238Y-89796952D01*
X170267238Y-90177904D01*
X170314857Y-90273142D01*
X170362476Y-90320761D01*
X170457714Y-90368380D01*
X170648190Y-90368380D01*
X170743428Y-90320761D01*
X170791047Y-90273142D01*
X170838666Y-90177904D01*
X170838666Y-89939809D01*
X170791047Y-89844571D01*
X170743428Y-89796952D01*
X170648190Y-89749333D01*
X170457714Y-89749333D01*
X170362476Y-89796952D01*
X170314857Y-89844571D01*
X170267238Y-89939809D01*
X180006666Y-47577380D02*
X180006666Y-48291666D01*
X179959047Y-48434523D01*
X179863809Y-48529761D01*
X179720952Y-48577380D01*
X179625714Y-48577380D01*
X180435238Y-47672619D02*
X180482857Y-47625000D01*
X180578095Y-47577380D01*
X180816190Y-47577380D01*
X180911428Y-47625000D01*
X180959047Y-47672619D01*
X181006666Y-47767857D01*
X181006666Y-47863095D01*
X180959047Y-48005952D01*
X180387619Y-48577380D01*
X181006666Y-48577380D01*
X166457380Y-37798333D02*
X167171666Y-37798333D01*
X167314523Y-37845952D01*
X167409761Y-37941190D01*
X167457380Y-38084047D01*
X167457380Y-38179285D01*
X166457380Y-36845952D02*
X166457380Y-37322142D01*
X166933571Y-37369761D01*
X166885952Y-37322142D01*
X166838333Y-37226904D01*
X166838333Y-36988809D01*
X166885952Y-36893571D01*
X166933571Y-36845952D01*
X167028809Y-36798333D01*
X167266904Y-36798333D01*
X167362142Y-36845952D01*
X167409761Y-36893571D01*
X167457380Y-36988809D01*
X167457380Y-37226904D01*
X167409761Y-37322142D01*
X167362142Y-37369761D01*
X166592380Y-59388333D02*
X167306666Y-59388333D01*
X167449523Y-59435952D01*
X167544761Y-59531190D01*
X167592380Y-59674047D01*
X167592380Y-59769285D01*
X166592380Y-59007380D02*
X166592380Y-58340714D01*
X167592380Y-58769285D01*
X163282380Y-48593333D02*
X163996666Y-48593333D01*
X164139523Y-48640952D01*
X164234761Y-48736190D01*
X164282380Y-48879047D01*
X164282380Y-48974285D01*
X163377619Y-48164761D02*
X163330000Y-48117142D01*
X163282380Y-48021904D01*
X163282380Y-47783809D01*
X163330000Y-47688571D01*
X163377619Y-47640952D01*
X163472857Y-47593333D01*
X163568095Y-47593333D01*
X163710952Y-47640952D01*
X164282380Y-48212380D01*
X164282380Y-47593333D01*
X124261571Y-104615619D02*
X124261571Y-104948952D01*
X124785380Y-104948952D02*
X123785380Y-104948952D01*
X123785380Y-104472761D01*
X123785380Y-104234666D02*
X123785380Y-103663238D01*
X124785380Y-103948952D02*
X123785380Y-103948952D01*
X124785380Y-103329904D02*
X123785380Y-103329904D01*
X123785380Y-103091809D01*
X123833000Y-102948952D01*
X123928238Y-102853714D01*
X124023476Y-102806095D01*
X124213952Y-102758476D01*
X124356809Y-102758476D01*
X124547285Y-102806095D01*
X124642523Y-102853714D01*
X124737761Y-102948952D01*
X124785380Y-103091809D01*
X124785380Y-103329904D01*
X124785380Y-102329904D02*
X123785380Y-102329904D01*
X124737761Y-100663238D02*
X124785380Y-100758476D01*
X124785380Y-100948952D01*
X124737761Y-101044190D01*
X124690142Y-101091809D01*
X124594904Y-101139428D01*
X124309190Y-101139428D01*
X124213952Y-101091809D01*
X124166333Y-101044190D01*
X124118714Y-100948952D01*
X124118714Y-100758476D01*
X124166333Y-100663238D01*
X124785380Y-100091809D02*
X124737761Y-100187047D01*
X124690142Y-100234666D01*
X124594904Y-100282285D01*
X124309190Y-100282285D01*
X124213952Y-100234666D01*
X124166333Y-100187047D01*
X124118714Y-100091809D01*
X124118714Y-99948952D01*
X124166333Y-99853714D01*
X124213952Y-99806095D01*
X124309190Y-99758476D01*
X124594904Y-99758476D01*
X124690142Y-99806095D01*
X124737761Y-99853714D01*
X124785380Y-99948952D01*
X124785380Y-100091809D01*
X124118714Y-99329904D02*
X124785380Y-99329904D01*
X124213952Y-99329904D02*
X124166333Y-99282285D01*
X124118714Y-99187047D01*
X124118714Y-99044190D01*
X124166333Y-98948952D01*
X124261571Y-98901333D01*
X124785380Y-98901333D01*
X124118714Y-98425142D02*
X124785380Y-98425142D01*
X124213952Y-98425142D02*
X124166333Y-98377523D01*
X124118714Y-98282285D01*
X124118714Y-98139428D01*
X124166333Y-98044190D01*
X124261571Y-97996571D01*
X124785380Y-97996571D01*
X124737761Y-97139428D02*
X124785380Y-97234666D01*
X124785380Y-97425142D01*
X124737761Y-97520380D01*
X124642523Y-97568000D01*
X124261571Y-97568000D01*
X124166333Y-97520380D01*
X124118714Y-97425142D01*
X124118714Y-97234666D01*
X124166333Y-97139428D01*
X124261571Y-97091809D01*
X124356809Y-97091809D01*
X124452047Y-97568000D01*
X124737761Y-96234666D02*
X124785380Y-96329904D01*
X124785380Y-96520380D01*
X124737761Y-96615619D01*
X124690142Y-96663238D01*
X124594904Y-96710857D01*
X124309190Y-96710857D01*
X124213952Y-96663238D01*
X124166333Y-96615619D01*
X124118714Y-96520380D01*
X124118714Y-96329904D01*
X124166333Y-96234666D01*
X124118714Y-95948952D02*
X124118714Y-95568000D01*
X123785380Y-95806095D02*
X124642523Y-95806095D01*
X124737761Y-95758476D01*
X124785380Y-95663238D01*
X124785380Y-95568000D01*
X124785380Y-95091809D02*
X124737761Y-95187047D01*
X124690142Y-95234666D01*
X124594904Y-95282285D01*
X124309190Y-95282285D01*
X124213952Y-95234666D01*
X124166333Y-95187047D01*
X124118714Y-95091809D01*
X124118714Y-94948952D01*
X124166333Y-94853714D01*
X124213952Y-94806095D01*
X124309190Y-94758476D01*
X124594904Y-94758476D01*
X124690142Y-94806095D01*
X124737761Y-94853714D01*
X124785380Y-94948952D01*
X124785380Y-95091809D01*
X124785380Y-94329904D02*
X124118714Y-94329904D01*
X124309190Y-94329904D02*
X124213952Y-94282285D01*
X124166333Y-94234666D01*
X124118714Y-94139428D01*
X124118714Y-94044190D01*
X138898380Y-36401333D02*
X139612666Y-36401333D01*
X139755523Y-36448952D01*
X139850761Y-36544190D01*
X139898380Y-36687047D01*
X139898380Y-36782285D01*
X139898380Y-35401333D02*
X139898380Y-35972761D01*
X139898380Y-35687047D02*
X138898380Y-35687047D01*
X139041238Y-35782285D01*
X139136476Y-35877523D01*
X139184095Y-35972761D01*
X158583333Y-93447142D02*
X158535714Y-93494761D01*
X158392857Y-93542380D01*
X158297619Y-93542380D01*
X158154761Y-93494761D01*
X158059523Y-93399523D01*
X158011904Y-93304285D01*
X157964285Y-93113809D01*
X157964285Y-92970952D01*
X158011904Y-92780476D01*
X158059523Y-92685238D01*
X158154761Y-92590000D01*
X158297619Y-92542380D01*
X158392857Y-92542380D01*
X158535714Y-92590000D01*
X158583333Y-92637619D01*
X159440476Y-92875714D02*
X159440476Y-93542380D01*
X159202380Y-92494761D02*
X158964285Y-93209047D01*
X159583333Y-93209047D01*
X121277142Y-54967142D02*
X121229523Y-55014761D01*
X121086666Y-55062380D01*
X120991428Y-55062380D01*
X120848571Y-55014761D01*
X120753333Y-54919523D01*
X120705714Y-54824285D01*
X120658095Y-54633809D01*
X120658095Y-54490952D01*
X120705714Y-54300476D01*
X120753333Y-54205238D01*
X120848571Y-54110000D01*
X120991428Y-54062380D01*
X121086666Y-54062380D01*
X121229523Y-54110000D01*
X121277142Y-54157619D01*
X122229523Y-55062380D02*
X121658095Y-55062380D01*
X121943809Y-55062380D02*
X121943809Y-54062380D01*
X121848571Y-54205238D01*
X121753333Y-54300476D01*
X121658095Y-54348095D01*
X122610476Y-54157619D02*
X122658095Y-54110000D01*
X122753333Y-54062380D01*
X122991428Y-54062380D01*
X123086666Y-54110000D01*
X123134285Y-54157619D01*
X123181904Y-54252857D01*
X123181904Y-54348095D01*
X123134285Y-54490952D01*
X122562857Y-55062380D01*
X123181904Y-55062380D01*
X121277142Y-69827142D02*
X121229523Y-69874761D01*
X121086666Y-69922380D01*
X120991428Y-69922380D01*
X120848571Y-69874761D01*
X120753333Y-69779523D01*
X120705714Y-69684285D01*
X120658095Y-69493809D01*
X120658095Y-69350952D01*
X120705714Y-69160476D01*
X120753333Y-69065238D01*
X120848571Y-68970000D01*
X120991428Y-68922380D01*
X121086666Y-68922380D01*
X121229523Y-68970000D01*
X121277142Y-69017619D01*
X122229523Y-69922380D02*
X121658095Y-69922380D01*
X121943809Y-69922380D02*
X121943809Y-68922380D01*
X121848571Y-69065238D01*
X121753333Y-69160476D01*
X121658095Y-69208095D01*
X122562857Y-68922380D02*
X123181904Y-68922380D01*
X122848571Y-69303333D01*
X122991428Y-69303333D01*
X123086666Y-69350952D01*
X123134285Y-69398571D01*
X123181904Y-69493809D01*
X123181904Y-69731904D01*
X123134285Y-69827142D01*
X123086666Y-69874761D01*
X122991428Y-69922380D01*
X122705714Y-69922380D01*
X122610476Y-69874761D01*
X122562857Y-69827142D01*
M02*
