M48
; DRILL file {KiCad (5.1.5)-3} date 31/05/2020 07:49:45
; FORMAT={-:-/ absolute / inch / decimal}
; #@! TF.CreationDate,2020-05-31T07:49:45+02:00
; #@! TF.GenerationSoftware,Kicad,Pcbnew,(5.1.5)-3
; #@! TF.FileFunction,Plated,1,2,PTH
FMAT,2
INCH
T1C0.0157
T2C0.0295
T3C0.0315
T4C0.0354
T5C0.0394
T6C0.0433
T7C0.0512
T8C0.0591
T9C0.0630
%
G90
G05
T1
X4.9557Y-4.0143
X4.9866Y-1.6866
X5.71Y-4.38
X5.8Y-3.92
X5.85Y-3.99
X5.9Y-3.33
X5.95Y-3.33
X6.0Y-3.32
X6.0Y-4.0
X6.0Y-4.05
X6.0Y-4.1
X6.07Y-4.06
X6.085Y-4.135
X6.11Y-3.63
X6.17Y-3.81
X6.22Y-3.86
X6.22Y-3.93
X6.2425Y-4.1625
X6.3Y-3.83
X6.34Y-3.98
X6.49Y-3.91
X6.51Y-3.78
X6.535Y-3.815
X6.56Y-3.85
X6.58Y-4.04
X6.66Y-3.37
T2
X6.72Y-4.05
X6.72Y-4.15
X6.77Y-4.1
X6.72Y-3.65
X6.72Y-3.76
X6.8Y-3.7
T3
X6.725Y-1.7
X6.725Y-2.0937
X6.55Y-2.8
X6.85Y-2.8
X6.85Y-3.0
X6.85Y-3.3
X6.95Y-3.0
X6.95Y-3.3
X7.05Y-3.0
X7.05Y-3.3
X5.92Y-4.15
X5.92Y-4.2287
X5.92Y-4.3075
X6.55Y-2.6
X6.85Y-2.6
T4
X5.175Y-1.6
X5.175Y-2.0
X5.325Y-1.6
X5.325Y-2.0
X6.875Y-3.5
X7.175Y-3.5
X5.475Y-1.6
X5.475Y-2.0
X5.625Y-1.6
X5.625Y-2.0
X6.87Y-3.9
X7.17Y-3.9
T5
X5.78Y-4.18
X5.78Y-4.28
X5.64Y-4.18
X5.64Y-4.28
X6.925Y-4.1
X7.025Y-4.1
X7.125Y-4.1
X7.025Y-3.7
X7.125Y-3.7
X5.0Y-3.925
X5.1Y-3.925
X5.2Y-3.925
X5.3Y-3.925
X5.4Y-3.925
X5.5Y-3.925
X5.2Y-3.8
X5.3Y-3.8
X5.4Y-3.8
X5.5Y-3.8
X5.5Y-4.18
X5.5Y-4.28
X5.85Y-3.7
X5.95Y-3.7
T6
X7.1Y-2.55
X7.1Y-2.65
X7.1Y-2.75
X4.7Y-1.75
X4.7Y-1.85
X4.7Y-1.95
T7
X6.1Y-1.4
X6.1Y-2.2858
T8
X5.21Y-2.28
X5.21Y-3.52
X5.52Y-2.28
X5.52Y-3.52
T9
X7.1Y-1.73
X7.1Y-2.03
X6.445Y-2.325
X6.745Y-2.325
X6.43Y-1.475
X6.73Y-1.475
X6.45Y-1.745
X6.45Y-2.045
X5.315Y-1.44
X5.615Y-1.44
T0
M30
