%FSLAX45Y45*%
G04 Gerber Fmt 4.5, Leading zero omitted, Abs format (unit mm)*
G04 Created by KiCad (PCBNEW 5.1.4-e60b266~84~ubuntu18.04.1) date 2019-09-13 00:56:46*
%MOMM*%
%LPD*%
G04 APERTURE LIST*
%ADD10C,0.050000*%
%ADD11C,0.200000*%
%ADD12C,0.300000*%
G04 APERTURE END LIST*
D10*
X19050000Y-11176000D02*
G75*
G02X18669000Y-11557000I-381000J0D01*
G01*
X11684000Y-11557000D02*
G75*
G02X11303000Y-11176000I0J381000D01*
G01*
X11303000Y-3556000D02*
G75*
G02X11684000Y-3175000I381000J0D01*
G01*
X18669000Y-3175000D02*
G75*
G02X19050000Y-3556000I0J-381000D01*
G01*
X11303000Y-11176000D02*
X11303000Y-3556000D01*
X18669000Y-11557000D02*
X11684000Y-11557000D01*
X18669000Y-3175000D02*
X11684000Y-3175000D01*
X19050000Y-11176000D02*
X19050000Y-3556000D01*
D11*
X12645929Y-4263929D02*
X12685929Y-4303929D01*
X12685929Y-4263929D02*
X12645929Y-4303929D01*
X14864400Y-10622600D02*
X14904400Y-10662600D01*
X14904400Y-10622600D02*
X14864400Y-10662600D01*
X15016800Y-10228900D02*
X15056800Y-10268900D01*
X15056800Y-10228900D02*
X15016800Y-10268900D01*
X15093000Y-9835200D02*
X15133000Y-9875200D01*
X15133000Y-9835200D02*
X15093000Y-9875200D01*
X15093000Y-10013000D02*
X15133000Y-10053000D01*
X15133000Y-10013000D02*
X15093000Y-10053000D01*
X15093000Y-10120950D02*
X15133000Y-10160950D01*
X15133000Y-10120950D02*
X15093000Y-10160950D01*
X15143800Y-10394000D02*
X15183800Y-10434000D01*
X15183800Y-10394000D02*
X15143800Y-10434000D01*
X15347000Y-10521000D02*
X15387000Y-10561000D01*
X15387000Y-10521000D02*
X15347000Y-10561000D01*
X15524800Y-10927400D02*
X15564800Y-10967400D01*
X15564800Y-10927400D02*
X15524800Y-10967400D01*
X15651800Y-9657400D02*
X15691800Y-9697400D01*
X15691800Y-9657400D02*
X15651800Y-9697400D01*
X15835950Y-10552750D02*
X15875950Y-10592750D01*
X15875950Y-10552750D02*
X15835950Y-10592750D01*
X15880400Y-9886000D02*
X15920400Y-9926000D01*
X15920400Y-9886000D02*
X15880400Y-9926000D01*
X16083600Y-10013000D02*
X16123600Y-10053000D01*
X16123600Y-10013000D02*
X16083600Y-10053000D01*
X16337600Y-9276400D02*
X16377600Y-9316400D01*
X16377600Y-9276400D02*
X16337600Y-9316400D01*
X16337600Y-10394000D02*
X16377600Y-10434000D01*
X16377600Y-10394000D02*
X16337600Y-10434000D01*
X16490000Y-9924100D02*
X16530000Y-9964100D01*
X16530000Y-9924100D02*
X16490000Y-9964100D01*
X16693200Y-10241600D02*
X16733200Y-10281600D01*
X16733200Y-10241600D02*
X16693200Y-10281600D01*
X17106300Y-9271000D02*
G75*
G03X17106300Y-9271000I-37500J0D01*
G01*
X17106300Y-9525000D02*
G75*
G03X17106300Y-9525000I-37500J0D01*
G01*
X17233300Y-9398000D02*
G75*
G03X17233300Y-9398000I-37500J0D01*
G01*
X17106300Y-10287000D02*
G75*
G03X17106300Y-10287000I-37500J0D01*
G01*
X17106300Y-10541000D02*
G75*
G03X17106300Y-10541000I-37500J0D01*
G01*
X17233300Y-10414000D02*
G75*
G03X17233300Y-10414000I-37500J0D01*
G01*
X16637000Y-7072000D02*
X16637000Y-7152000D01*
X16597000Y-7112000D02*
X16677000Y-7112000D01*
X17399000Y-7072000D02*
X17399000Y-7152000D01*
X17359000Y-7112000D02*
X17439000Y-7112000D01*
X17399000Y-7580000D02*
X17399000Y-7660000D01*
X17359000Y-7620000D02*
X17439000Y-7620000D01*
X17399000Y-8342000D02*
X17399000Y-8422000D01*
X17359000Y-8382000D02*
X17439000Y-8382000D01*
X17653000Y-7580000D02*
X17653000Y-7660000D01*
X17613000Y-7620000D02*
X17693000Y-7620000D01*
X17653000Y-8342000D02*
X17653000Y-8422000D01*
X17613000Y-8382000D02*
X17693000Y-8382000D01*
X17907000Y-7580000D02*
X17907000Y-7660000D01*
X17867000Y-7620000D02*
X17947000Y-7620000D01*
X17907000Y-8342000D02*
X17907000Y-8422000D01*
X17867000Y-8382000D02*
X17947000Y-8382000D01*
X17081500Y-4278000D02*
X17081500Y-4358000D01*
X17041500Y-4318000D02*
X17121500Y-4318000D01*
X17081500Y-5278000D02*
X17081500Y-5358000D01*
X17041500Y-5318000D02*
X17121500Y-5318000D01*
X15036800Y-10482000D02*
X15036800Y-10562000D01*
X14996800Y-10522000D02*
X15076800Y-10522000D01*
X15036800Y-10682000D02*
X15036800Y-10762000D01*
X14996800Y-10722000D02*
X15076800Y-10722000D01*
X15036800Y-10882000D02*
X15036800Y-10962000D01*
X14996800Y-10922000D02*
X15076800Y-10922000D01*
X16637000Y-6564000D02*
X16637000Y-6644000D01*
X16597000Y-6604000D02*
X16677000Y-6604000D01*
X17399000Y-6564000D02*
X17399000Y-6644000D01*
X17359000Y-6604000D02*
X17439000Y-6604000D01*
X13176320Y-4095820D02*
X13176320Y-4032180D01*
X13112680Y-4032180D01*
X13112680Y-4095820D01*
X13176320Y-4095820D01*
X13176320Y-5111820D02*
X13176320Y-5048180D01*
X13112680Y-5048180D01*
X13112680Y-5111820D01*
X13176320Y-5111820D01*
X13557320Y-4095820D02*
X13557320Y-4032180D01*
X13493680Y-4032180D01*
X13493680Y-4095820D01*
X13557320Y-4095820D01*
X13557320Y-5111820D02*
X13557320Y-5048180D01*
X13493680Y-5048180D01*
X13493680Y-5111820D01*
X13557320Y-5111820D01*
X14319320Y-4095820D02*
X14319320Y-4032180D01*
X14255680Y-4032180D01*
X14255680Y-4095820D01*
X14319320Y-4095820D01*
X14319320Y-5111820D02*
X14319320Y-5048180D01*
X14255680Y-5048180D01*
X14255680Y-5111820D01*
X14319320Y-5111820D01*
X17494320Y-8921820D02*
X17494320Y-8858180D01*
X17430680Y-8858180D01*
X17430680Y-8921820D01*
X17494320Y-8921820D01*
X18256320Y-8921820D02*
X18256320Y-8858180D01*
X18192680Y-8858180D01*
X18192680Y-8921820D01*
X18256320Y-8921820D01*
X13938320Y-4095820D02*
X13938320Y-4032180D01*
X13874680Y-4032180D01*
X13874680Y-4095820D01*
X13938320Y-4095820D01*
X13938320Y-5111820D02*
X13938320Y-5048180D01*
X13874680Y-5048180D01*
X13874680Y-5111820D01*
X13938320Y-5111820D01*
X17481620Y-9937820D02*
X17481620Y-9874180D01*
X17417980Y-9874180D01*
X17417980Y-9937820D01*
X17481620Y-9937820D01*
X18243620Y-9937820D02*
X18243620Y-9874180D01*
X18179980Y-9874180D01*
X18179980Y-9937820D01*
X18243620Y-9937820D01*
X14681200Y-10667200D02*
X14731200Y-10617200D01*
X14681200Y-10567200D01*
X14631200Y-10617200D01*
X14681200Y-10667200D01*
X14681200Y-10921200D02*
X14731200Y-10871200D01*
X14681200Y-10821200D01*
X14631200Y-10871200D01*
X14681200Y-10921200D01*
X14325600Y-10667200D02*
X14375600Y-10617200D01*
X14325600Y-10567200D01*
X14275600Y-10617200D01*
X14325600Y-10667200D01*
X14325600Y-10921200D02*
X14375600Y-10871200D01*
X14325600Y-10821200D01*
X14275600Y-10871200D01*
X14325600Y-10921200D01*
X13589000Y-9702000D02*
X13639000Y-9652000D01*
X13589000Y-9602000D01*
X13539000Y-9652000D01*
X13589000Y-9702000D01*
X13843000Y-9702000D02*
X13893000Y-9652000D01*
X13843000Y-9602000D01*
X13793000Y-9652000D01*
X13843000Y-9702000D01*
X14097000Y-9702000D02*
X14147000Y-9652000D01*
X14097000Y-9602000D01*
X14047000Y-9652000D01*
X14097000Y-9702000D01*
X14351000Y-9702000D02*
X14401000Y-9652000D01*
X14351000Y-9602000D01*
X14301000Y-9652000D01*
X14351000Y-9702000D01*
X17843500Y-9448000D02*
X17893500Y-9398000D01*
X17843500Y-9348000D01*
X17793500Y-9398000D01*
X17843500Y-9448000D01*
X18097500Y-9448000D02*
X18147500Y-9398000D01*
X18097500Y-9348000D01*
X18047500Y-9398000D01*
X18097500Y-9448000D01*
X13081000Y-10019500D02*
X13131000Y-9969500D01*
X13081000Y-9919500D01*
X13031000Y-9969500D01*
X13081000Y-10019500D01*
X13335000Y-10019500D02*
X13385000Y-9969500D01*
X13335000Y-9919500D01*
X13285000Y-9969500D01*
X13335000Y-10019500D01*
X13589000Y-10019500D02*
X13639000Y-9969500D01*
X13589000Y-9919500D01*
X13539000Y-9969500D01*
X13589000Y-10019500D01*
X13843000Y-10019500D02*
X13893000Y-9969500D01*
X13843000Y-9919500D01*
X13793000Y-9969500D01*
X13843000Y-10019500D01*
X14097000Y-10019500D02*
X14147000Y-9969500D01*
X14097000Y-9919500D01*
X14047000Y-9969500D01*
X14097000Y-10019500D01*
X14351000Y-10019500D02*
X14401000Y-9969500D01*
X14351000Y-9919500D01*
X14301000Y-9969500D01*
X14351000Y-10019500D01*
X17589500Y-10464000D02*
X17639500Y-10414000D01*
X17589500Y-10364000D01*
X17539500Y-10414000D01*
X17589500Y-10464000D01*
X17843500Y-10464000D02*
X17893500Y-10414000D01*
X17843500Y-10364000D01*
X17793500Y-10414000D01*
X17843500Y-10464000D01*
X18097500Y-10464000D02*
X18147500Y-10414000D01*
X18097500Y-10364000D01*
X18047500Y-10414000D01*
X18097500Y-10464000D01*
X11883000Y-4390000D02*
X11993000Y-4500000D01*
X11993000Y-4390000D02*
X11883000Y-4500000D01*
X11993000Y-4445000D02*
G75*
G03X11993000Y-4445000I-55000J0D01*
G01*
X11883000Y-4644000D02*
X11993000Y-4754000D01*
X11993000Y-4644000D02*
X11883000Y-4754000D01*
X11993000Y-4699000D02*
G75*
G03X11993000Y-4699000I-55000J0D01*
G01*
X11883000Y-4898000D02*
X11993000Y-5008000D01*
X11993000Y-4898000D02*
X11883000Y-5008000D01*
X11993000Y-4953000D02*
G75*
G03X11993000Y-4953000I-55000J0D01*
G01*
X17979000Y-6422000D02*
X18089000Y-6532000D01*
X18089000Y-6422000D02*
X17979000Y-6532000D01*
X18089000Y-6477000D02*
G75*
G03X18089000Y-6477000I-55000J0D01*
G01*
X17979000Y-6676000D02*
X18089000Y-6786000D01*
X18089000Y-6676000D02*
X17979000Y-6786000D01*
X18089000Y-6731000D02*
G75*
G03X18089000Y-6731000I-55000J0D01*
G01*
X17979000Y-6930000D02*
X18089000Y-7040000D01*
X18089000Y-6930000D02*
X17979000Y-7040000D01*
X18089000Y-6985000D02*
G75*
G03X18089000Y-6985000I-55000J0D01*
G01*
X15429000Y-3491000D02*
X15559000Y-3621000D01*
X15559000Y-3491000D02*
X15429000Y-3621000D01*
X15494000Y-3491000D02*
X15494000Y-3621000D01*
X15429000Y-3556000D02*
X15559000Y-3556000D01*
X15429000Y-5741000D02*
X15559000Y-5871000D01*
X15559000Y-5741000D02*
X15429000Y-5871000D01*
X15494000Y-5741000D02*
X15494000Y-5871000D01*
X15429000Y-5806000D02*
X15559000Y-5806000D01*
X13158400Y-5716200D02*
X13308400Y-5866200D01*
X13308400Y-5716200D02*
X13158400Y-5866200D01*
X13286433Y-5844233D02*
X13286433Y-5738166D01*
X13180366Y-5738166D01*
X13180366Y-5844233D01*
X13286433Y-5844233D01*
X13158400Y-8865800D02*
X13308400Y-9015800D01*
X13308400Y-8865800D02*
X13158400Y-9015800D01*
X13286433Y-8993834D02*
X13286433Y-8887767D01*
X13180366Y-8887767D01*
X13180366Y-8993834D01*
X13286433Y-8993834D01*
X13945800Y-5716200D02*
X14095800Y-5866200D01*
X14095800Y-5716200D02*
X13945800Y-5866200D01*
X14073833Y-5844233D02*
X14073833Y-5738166D01*
X13967766Y-5738166D01*
X13967766Y-5844233D01*
X14073833Y-5844233D01*
X13945800Y-8865800D02*
X14095800Y-9015800D01*
X14095800Y-8865800D02*
X13945800Y-9015800D01*
X14073833Y-8993834D02*
X14073833Y-8887767D01*
X13967766Y-8887767D01*
X13967766Y-8993834D01*
X14073833Y-8993834D01*
X17954000Y-4314200D02*
X18114000Y-4474200D01*
X18114000Y-4314200D02*
X17954000Y-4474200D01*
X18034000Y-4474200D02*
X18114000Y-4394200D01*
X18034000Y-4314200D01*
X17954000Y-4394200D01*
X18034000Y-4474200D01*
X17954000Y-5076200D02*
X18114000Y-5236200D01*
X18114000Y-5076200D02*
X17954000Y-5236200D01*
X18034000Y-5236200D02*
X18114000Y-5156200D01*
X18034000Y-5076200D01*
X17954000Y-5156200D01*
X18034000Y-5236200D01*
X16290300Y-5825500D02*
X16450300Y-5985500D01*
X16450300Y-5825500D02*
X16290300Y-5985500D01*
X16370300Y-5985500D02*
X16450300Y-5905500D01*
X16370300Y-5825500D01*
X16290300Y-5905500D01*
X16370300Y-5985500D01*
X17052300Y-5825500D02*
X17212300Y-5985500D01*
X17212300Y-5825500D02*
X17052300Y-5985500D01*
X17132300Y-5985500D02*
X17212300Y-5905500D01*
X17132300Y-5825500D01*
X17052300Y-5905500D01*
X17132300Y-5985500D01*
X16303000Y-4352300D02*
X16463000Y-4512300D01*
X16463000Y-4352300D02*
X16303000Y-4512300D01*
X16383000Y-4512300D02*
X16463000Y-4432300D01*
X16383000Y-4352300D01*
X16303000Y-4432300D01*
X16383000Y-4512300D01*
X16303000Y-5114300D02*
X16463000Y-5274300D01*
X16463000Y-5114300D02*
X16303000Y-5274300D01*
X16383000Y-5274300D02*
X16463000Y-5194300D01*
X16383000Y-5114300D01*
X16303000Y-5194300D01*
X16383000Y-5274300D01*
X16252200Y-3666500D02*
X16412200Y-3826500D01*
X16412200Y-3666500D02*
X16252200Y-3826500D01*
X16332200Y-3826500D02*
X16412200Y-3746500D01*
X16332200Y-3666500D01*
X16252200Y-3746500D01*
X16332200Y-3826500D01*
X17014200Y-3666500D02*
X17174200Y-3826500D01*
X17174200Y-3666500D02*
X17014200Y-3826500D01*
X17094200Y-3826500D02*
X17174200Y-3746500D01*
X17094200Y-3666500D01*
X17014200Y-3746500D01*
X17094200Y-3826500D01*
X13420100Y-3577600D02*
X13580100Y-3737600D01*
X13580100Y-3577600D02*
X13420100Y-3737600D01*
X13500100Y-3737600D02*
X13580100Y-3657600D01*
X13500100Y-3577600D01*
X13420100Y-3657600D01*
X13500100Y-3737600D01*
X14182100Y-3577600D02*
X14342100Y-3737600D01*
X14342100Y-3577600D02*
X14182100Y-3737600D01*
X14262100Y-3737600D02*
X14342100Y-3657600D01*
X14262100Y-3577600D01*
X14182100Y-3657600D01*
X14262100Y-3737600D01*
X18542000Y-10889000D02*
X18542000Y-11209000D01*
X18382000Y-11049000D02*
X18702000Y-11049000D01*
X18702000Y-11049000D02*
G75*
G03X18702000Y-11049000I-160000J0D01*
G01*
X11811000Y-3523000D02*
X11811000Y-3843000D01*
X11651000Y-3683000D02*
X11971000Y-3683000D01*
X11971000Y-3683000D02*
G75*
G03X11971000Y-3683000I-160000J0D01*
G01*
X18542000Y-3523000D02*
X18542000Y-3843000D01*
X18382000Y-3683000D02*
X18702000Y-3683000D01*
X18702000Y-3683000D02*
G75*
G03X18702000Y-3683000I-160000J0D01*
G01*
X11811000Y-10889000D02*
X11811000Y-11209000D01*
X11651000Y-11049000D02*
X11971000Y-11049000D01*
X11971000Y-11049000D02*
G75*
G03X11971000Y-11049000I-160000J0D01*
G01*
D12*
X11586928Y-12025214D02*
X11586928Y-11725214D01*
X11658357Y-11725214D01*
X11701214Y-11739500D01*
X11729786Y-11768071D01*
X11744071Y-11796643D01*
X11758357Y-11853786D01*
X11758357Y-11896643D01*
X11744071Y-11953786D01*
X11729786Y-11982357D01*
X11701214Y-12010929D01*
X11658357Y-12025214D01*
X11586928Y-12025214D01*
X11886928Y-12025214D02*
X11886928Y-11825214D01*
X11886928Y-11882357D02*
X11901214Y-11853786D01*
X11915500Y-11839500D01*
X11944071Y-11825214D01*
X11972643Y-11825214D01*
X12072643Y-12025214D02*
X12072643Y-11825214D01*
X12072643Y-11725214D02*
X12058357Y-11739500D01*
X12072643Y-11753786D01*
X12086928Y-11739500D01*
X12072643Y-11725214D01*
X12072643Y-11753786D01*
X12258357Y-12025214D02*
X12229786Y-12010929D01*
X12215500Y-11982357D01*
X12215500Y-11725214D01*
X12415500Y-12025214D02*
X12386928Y-12010929D01*
X12372643Y-11982357D01*
X12372643Y-11725214D01*
X12758357Y-12025214D02*
X12758357Y-11725214D01*
X12858357Y-11939500D01*
X12958357Y-11725214D01*
X12958357Y-12025214D01*
X13229786Y-12025214D02*
X13229786Y-11868071D01*
X13215500Y-11839500D01*
X13186928Y-11825214D01*
X13129786Y-11825214D01*
X13101214Y-11839500D01*
X13229786Y-12010929D02*
X13201214Y-12025214D01*
X13129786Y-12025214D01*
X13101214Y-12010929D01*
X13086928Y-11982357D01*
X13086928Y-11953786D01*
X13101214Y-11925214D01*
X13129786Y-11910929D01*
X13201214Y-11910929D01*
X13229786Y-11896643D01*
X13372643Y-11825214D02*
X13372643Y-12125214D01*
X13372643Y-11839500D02*
X13401214Y-11825214D01*
X13458357Y-11825214D01*
X13486928Y-11839500D01*
X13501214Y-11853786D01*
X13515500Y-11882357D01*
X13515500Y-11968071D01*
X13501214Y-11996643D01*
X13486928Y-12010929D01*
X13458357Y-12025214D01*
X13401214Y-12025214D01*
X13372643Y-12010929D01*
X13644071Y-11996643D02*
X13658357Y-12010929D01*
X13644071Y-12025214D01*
X13629786Y-12010929D01*
X13644071Y-11996643D01*
X13644071Y-12025214D01*
X13644071Y-11839500D02*
X13658357Y-11853786D01*
X13644071Y-11868071D01*
X13629786Y-11853786D01*
X13644071Y-11839500D01*
X13644071Y-11868071D01*
X11260500Y-12499500D02*
X11300500Y-12539500D01*
X11300500Y-12499500D02*
X11260500Y-12539500D01*
X11644071Y-12355214D02*
X11672643Y-12355214D01*
X11701214Y-12369500D01*
X11715500Y-12383786D01*
X11729786Y-12412357D01*
X11744071Y-12469500D01*
X11744071Y-12540929D01*
X11729786Y-12598071D01*
X11715500Y-12626643D01*
X11701214Y-12640929D01*
X11672643Y-12655214D01*
X11644071Y-12655214D01*
X11615500Y-12640929D01*
X11601214Y-12626643D01*
X11586928Y-12598071D01*
X11572643Y-12540929D01*
X11572643Y-12469500D01*
X11586928Y-12412357D01*
X11601214Y-12383786D01*
X11615500Y-12369500D01*
X11644071Y-12355214D01*
X11872643Y-12626643D02*
X11886928Y-12640929D01*
X11872643Y-12655214D01*
X11858357Y-12640929D01*
X11872643Y-12626643D01*
X11872643Y-12655214D01*
X12144071Y-12455214D02*
X12144071Y-12655214D01*
X12072643Y-12340929D02*
X12001214Y-12555214D01*
X12186928Y-12555214D01*
X12358357Y-12355214D02*
X12386928Y-12355214D01*
X12415500Y-12369500D01*
X12429786Y-12383786D01*
X12444071Y-12412357D01*
X12458357Y-12469500D01*
X12458357Y-12540929D01*
X12444071Y-12598071D01*
X12429786Y-12626643D01*
X12415500Y-12640929D01*
X12386928Y-12655214D01*
X12358357Y-12655214D01*
X12329786Y-12640929D01*
X12315500Y-12626643D01*
X12301214Y-12598071D01*
X12286928Y-12540929D01*
X12286928Y-12469500D01*
X12301214Y-12412357D01*
X12315500Y-12383786D01*
X12329786Y-12369500D01*
X12358357Y-12355214D01*
X12586928Y-12655214D02*
X12586928Y-12455214D01*
X12586928Y-12483786D02*
X12601214Y-12469500D01*
X12629786Y-12455214D01*
X12672643Y-12455214D01*
X12701214Y-12469500D01*
X12715500Y-12498071D01*
X12715500Y-12655214D01*
X12715500Y-12498071D02*
X12729786Y-12469500D01*
X12758357Y-12455214D01*
X12801214Y-12455214D01*
X12829786Y-12469500D01*
X12844071Y-12498071D01*
X12844071Y-12655214D01*
X12986928Y-12655214D02*
X12986928Y-12455214D01*
X12986928Y-12483786D02*
X13001214Y-12469500D01*
X13029786Y-12455214D01*
X13072643Y-12455214D01*
X13101214Y-12469500D01*
X13115500Y-12498071D01*
X13115500Y-12655214D01*
X13115500Y-12498071D02*
X13129786Y-12469500D01*
X13158357Y-12455214D01*
X13201214Y-12455214D01*
X13229786Y-12469500D01*
X13244071Y-12498071D01*
X13244071Y-12655214D01*
X13829786Y-12340929D02*
X13572643Y-12726643D01*
X14215500Y-12355214D02*
X14244071Y-12355214D01*
X14272643Y-12369500D01*
X14286928Y-12383786D01*
X14301214Y-12412357D01*
X14315500Y-12469500D01*
X14315500Y-12540929D01*
X14301214Y-12598071D01*
X14286928Y-12626643D01*
X14272643Y-12640929D01*
X14244071Y-12655214D01*
X14215500Y-12655214D01*
X14186928Y-12640929D01*
X14172643Y-12626643D01*
X14158357Y-12598071D01*
X14144071Y-12540929D01*
X14144071Y-12469500D01*
X14158357Y-12412357D01*
X14172643Y-12383786D01*
X14186928Y-12369500D01*
X14215500Y-12355214D01*
X14444071Y-12626643D02*
X14458357Y-12640929D01*
X14444071Y-12655214D01*
X14429786Y-12640929D01*
X14444071Y-12626643D01*
X14444071Y-12655214D01*
X14644071Y-12355214D02*
X14672643Y-12355214D01*
X14701214Y-12369500D01*
X14715500Y-12383786D01*
X14729786Y-12412357D01*
X14744071Y-12469500D01*
X14744071Y-12540929D01*
X14729786Y-12598071D01*
X14715500Y-12626643D01*
X14701214Y-12640929D01*
X14672643Y-12655214D01*
X14644071Y-12655214D01*
X14615500Y-12640929D01*
X14601214Y-12626643D01*
X14586928Y-12598071D01*
X14572643Y-12540929D01*
X14572643Y-12469500D01*
X14586928Y-12412357D01*
X14601214Y-12383786D01*
X14615500Y-12369500D01*
X14644071Y-12355214D01*
X15029786Y-12655214D02*
X14858357Y-12655214D01*
X14944071Y-12655214D02*
X14944071Y-12355214D01*
X14915500Y-12398071D01*
X14886928Y-12426643D01*
X14858357Y-12440929D01*
X15286928Y-12355214D02*
X15229786Y-12355214D01*
X15201214Y-12369500D01*
X15186928Y-12383786D01*
X15158357Y-12426643D01*
X15144071Y-12483786D01*
X15144071Y-12598071D01*
X15158357Y-12626643D01*
X15172643Y-12640929D01*
X15201214Y-12655214D01*
X15258357Y-12655214D01*
X15286928Y-12640929D01*
X15301214Y-12626643D01*
X15315500Y-12598071D01*
X15315500Y-12526643D01*
X15301214Y-12498071D01*
X15286928Y-12483786D01*
X15258357Y-12469500D01*
X15201214Y-12469500D01*
X15172643Y-12483786D01*
X15158357Y-12498071D01*
X15144071Y-12526643D01*
X15429786Y-12355214D02*
X15429786Y-12412357D01*
X15544071Y-12355214D02*
X15544071Y-12412357D01*
X15986928Y-12769500D02*
X15972643Y-12755214D01*
X15944071Y-12712357D01*
X15929786Y-12683786D01*
X15915500Y-12640929D01*
X15901214Y-12569500D01*
X15901214Y-12512357D01*
X15915500Y-12440929D01*
X15929786Y-12398071D01*
X15944071Y-12369500D01*
X15972643Y-12326643D01*
X15986928Y-12312357D01*
X16258357Y-12655214D02*
X16086928Y-12655214D01*
X16172643Y-12655214D02*
X16172643Y-12355214D01*
X16144071Y-12398071D01*
X16115500Y-12426643D01*
X16086928Y-12440929D01*
X16358357Y-12355214D02*
X16558357Y-12355214D01*
X16429786Y-12655214D01*
X16901214Y-12655214D02*
X16901214Y-12355214D01*
X17029786Y-12655214D02*
X17029786Y-12498071D01*
X17015500Y-12469500D01*
X16986928Y-12455214D01*
X16944071Y-12455214D01*
X16915500Y-12469500D01*
X16901214Y-12483786D01*
X17215500Y-12655214D02*
X17186928Y-12640929D01*
X17172643Y-12626643D01*
X17158357Y-12598071D01*
X17158357Y-12512357D01*
X17172643Y-12483786D01*
X17186928Y-12469500D01*
X17215500Y-12455214D01*
X17258357Y-12455214D01*
X17286928Y-12469500D01*
X17301214Y-12483786D01*
X17315500Y-12512357D01*
X17315500Y-12598071D01*
X17301214Y-12626643D01*
X17286928Y-12640929D01*
X17258357Y-12655214D01*
X17215500Y-12655214D01*
X17486928Y-12655214D02*
X17458357Y-12640929D01*
X17444071Y-12612357D01*
X17444071Y-12355214D01*
X17715500Y-12640929D02*
X17686928Y-12655214D01*
X17629786Y-12655214D01*
X17601214Y-12640929D01*
X17586928Y-12612357D01*
X17586928Y-12498071D01*
X17601214Y-12469500D01*
X17629786Y-12455214D01*
X17686928Y-12455214D01*
X17715500Y-12469500D01*
X17729786Y-12498071D01*
X17729786Y-12526643D01*
X17586928Y-12555214D01*
X17844071Y-12640929D02*
X17872643Y-12655214D01*
X17929786Y-12655214D01*
X17958357Y-12640929D01*
X17972643Y-12612357D01*
X17972643Y-12598071D01*
X17958357Y-12569500D01*
X17929786Y-12555214D01*
X17886928Y-12555214D01*
X17858357Y-12540929D01*
X17844071Y-12512357D01*
X17844071Y-12498071D01*
X17858357Y-12469500D01*
X17886928Y-12455214D01*
X17929786Y-12455214D01*
X17958357Y-12469500D01*
X18072643Y-12769500D02*
X18086928Y-12755214D01*
X18115500Y-12712357D01*
X18129786Y-12683786D01*
X18144071Y-12640929D01*
X18158357Y-12569500D01*
X18158357Y-12512357D01*
X18144071Y-12440929D01*
X18129786Y-12398071D01*
X18115500Y-12369500D01*
X18086928Y-12326643D01*
X18072643Y-12312357D01*
X11300500Y-12915500D02*
G75*
G03X11300500Y-12915500I-37500J0D01*
G01*
X11644071Y-12751214D02*
X11672643Y-12751214D01*
X11701214Y-12765500D01*
X11715500Y-12779786D01*
X11729786Y-12808357D01*
X11744071Y-12865500D01*
X11744071Y-12936929D01*
X11729786Y-12994071D01*
X11715500Y-13022643D01*
X11701214Y-13036929D01*
X11672643Y-13051214D01*
X11644071Y-13051214D01*
X11615500Y-13036929D01*
X11601214Y-13022643D01*
X11586928Y-12994071D01*
X11572643Y-12936929D01*
X11572643Y-12865500D01*
X11586928Y-12808357D01*
X11601214Y-12779786D01*
X11615500Y-12765500D01*
X11644071Y-12751214D01*
X11872643Y-13022643D02*
X11886928Y-13036929D01*
X11872643Y-13051214D01*
X11858357Y-13036929D01*
X11872643Y-13022643D01*
X11872643Y-13051214D01*
X11986928Y-12751214D02*
X12186928Y-12751214D01*
X12058357Y-13051214D01*
X12444071Y-12751214D02*
X12301214Y-12751214D01*
X12286928Y-12894071D01*
X12301214Y-12879786D01*
X12329786Y-12865500D01*
X12401214Y-12865500D01*
X12429786Y-12879786D01*
X12444071Y-12894071D01*
X12458357Y-12922643D01*
X12458357Y-12994071D01*
X12444071Y-13022643D01*
X12429786Y-13036929D01*
X12401214Y-13051214D01*
X12329786Y-13051214D01*
X12301214Y-13036929D01*
X12286928Y-13022643D01*
X12586928Y-13051214D02*
X12586928Y-12851214D01*
X12586928Y-12879786D02*
X12601214Y-12865500D01*
X12629786Y-12851214D01*
X12672643Y-12851214D01*
X12701214Y-12865500D01*
X12715500Y-12894071D01*
X12715500Y-13051214D01*
X12715500Y-12894071D02*
X12729786Y-12865500D01*
X12758357Y-12851214D01*
X12801214Y-12851214D01*
X12829786Y-12865500D01*
X12844071Y-12894071D01*
X12844071Y-13051214D01*
X12986928Y-13051214D02*
X12986928Y-12851214D01*
X12986928Y-12879786D02*
X13001214Y-12865500D01*
X13029786Y-12851214D01*
X13072643Y-12851214D01*
X13101214Y-12865500D01*
X13115500Y-12894071D01*
X13115500Y-13051214D01*
X13115500Y-12894071D02*
X13129786Y-12865500D01*
X13158357Y-12851214D01*
X13201214Y-12851214D01*
X13229786Y-12865500D01*
X13244071Y-12894071D01*
X13244071Y-13051214D01*
X13829786Y-12736929D02*
X13572643Y-13122643D01*
X14215500Y-12751214D02*
X14244071Y-12751214D01*
X14272643Y-12765500D01*
X14286928Y-12779786D01*
X14301214Y-12808357D01*
X14315500Y-12865500D01*
X14315500Y-12936929D01*
X14301214Y-12994071D01*
X14286928Y-13022643D01*
X14272643Y-13036929D01*
X14244071Y-13051214D01*
X14215500Y-13051214D01*
X14186928Y-13036929D01*
X14172643Y-13022643D01*
X14158357Y-12994071D01*
X14144071Y-12936929D01*
X14144071Y-12865500D01*
X14158357Y-12808357D01*
X14172643Y-12779786D01*
X14186928Y-12765500D01*
X14215500Y-12751214D01*
X14444071Y-13022643D02*
X14458357Y-13036929D01*
X14444071Y-13051214D01*
X14429786Y-13036929D01*
X14444071Y-13022643D01*
X14444071Y-13051214D01*
X14644071Y-12751214D02*
X14672643Y-12751214D01*
X14701214Y-12765500D01*
X14715500Y-12779786D01*
X14729786Y-12808357D01*
X14744071Y-12865500D01*
X14744071Y-12936929D01*
X14729786Y-12994071D01*
X14715500Y-13022643D01*
X14701214Y-13036929D01*
X14672643Y-13051214D01*
X14644071Y-13051214D01*
X14615500Y-13036929D01*
X14601214Y-13022643D01*
X14586928Y-12994071D01*
X14572643Y-12936929D01*
X14572643Y-12865500D01*
X14586928Y-12808357D01*
X14601214Y-12779786D01*
X14615500Y-12765500D01*
X14644071Y-12751214D01*
X14844071Y-12751214D02*
X15029786Y-12751214D01*
X14929786Y-12865500D01*
X14972643Y-12865500D01*
X15001214Y-12879786D01*
X15015500Y-12894071D01*
X15029786Y-12922643D01*
X15029786Y-12994071D01*
X15015500Y-13022643D01*
X15001214Y-13036929D01*
X14972643Y-13051214D01*
X14886928Y-13051214D01*
X14858357Y-13036929D01*
X14844071Y-13022643D01*
X15215500Y-12751214D02*
X15244071Y-12751214D01*
X15272643Y-12765500D01*
X15286928Y-12779786D01*
X15301214Y-12808357D01*
X15315500Y-12865500D01*
X15315500Y-12936929D01*
X15301214Y-12994071D01*
X15286928Y-13022643D01*
X15272643Y-13036929D01*
X15244071Y-13051214D01*
X15215500Y-13051214D01*
X15186928Y-13036929D01*
X15172643Y-13022643D01*
X15158357Y-12994071D01*
X15144071Y-12936929D01*
X15144071Y-12865500D01*
X15158357Y-12808357D01*
X15172643Y-12779786D01*
X15186928Y-12765500D01*
X15215500Y-12751214D01*
X15429786Y-12751214D02*
X15429786Y-12808357D01*
X15544071Y-12751214D02*
X15544071Y-12808357D01*
X15986928Y-13165500D02*
X15972643Y-13151214D01*
X15944071Y-13108357D01*
X15929786Y-13079786D01*
X15915500Y-13036929D01*
X15901214Y-12965500D01*
X15901214Y-12908357D01*
X15915500Y-12836929D01*
X15929786Y-12794071D01*
X15944071Y-12765500D01*
X15972643Y-12722643D01*
X15986928Y-12708357D01*
X16229786Y-12751214D02*
X16172643Y-12751214D01*
X16144071Y-12765500D01*
X16129786Y-12779786D01*
X16101214Y-12822643D01*
X16086928Y-12879786D01*
X16086928Y-12994071D01*
X16101214Y-13022643D01*
X16115500Y-13036929D01*
X16144071Y-13051214D01*
X16201214Y-13051214D01*
X16229786Y-13036929D01*
X16244071Y-13022643D01*
X16258357Y-12994071D01*
X16258357Y-12922643D01*
X16244071Y-12894071D01*
X16229786Y-12879786D01*
X16201214Y-12865500D01*
X16144071Y-12865500D01*
X16115500Y-12879786D01*
X16101214Y-12894071D01*
X16086928Y-12922643D01*
X16615500Y-13051214D02*
X16615500Y-12751214D01*
X16744071Y-13051214D02*
X16744071Y-12894071D01*
X16729786Y-12865500D01*
X16701214Y-12851214D01*
X16658357Y-12851214D01*
X16629786Y-12865500D01*
X16615500Y-12879786D01*
X16929786Y-13051214D02*
X16901214Y-13036929D01*
X16886928Y-13022643D01*
X16872643Y-12994071D01*
X16872643Y-12908357D01*
X16886928Y-12879786D01*
X16901214Y-12865500D01*
X16929786Y-12851214D01*
X16972643Y-12851214D01*
X17001214Y-12865500D01*
X17015500Y-12879786D01*
X17029786Y-12908357D01*
X17029786Y-12994071D01*
X17015500Y-13022643D01*
X17001214Y-13036929D01*
X16972643Y-13051214D01*
X16929786Y-13051214D01*
X17201214Y-13051214D02*
X17172643Y-13036929D01*
X17158357Y-13008357D01*
X17158357Y-12751214D01*
X17429786Y-13036929D02*
X17401214Y-13051214D01*
X17344071Y-13051214D01*
X17315500Y-13036929D01*
X17301214Y-13008357D01*
X17301214Y-12894071D01*
X17315500Y-12865500D01*
X17344071Y-12851214D01*
X17401214Y-12851214D01*
X17429786Y-12865500D01*
X17444071Y-12894071D01*
X17444071Y-12922643D01*
X17301214Y-12951214D01*
X17558357Y-13036929D02*
X17586928Y-13051214D01*
X17644071Y-13051214D01*
X17672643Y-13036929D01*
X17686928Y-13008357D01*
X17686928Y-12994071D01*
X17672643Y-12965500D01*
X17644071Y-12951214D01*
X17601214Y-12951214D01*
X17572643Y-12936929D01*
X17558357Y-12908357D01*
X17558357Y-12894071D01*
X17572643Y-12865500D01*
X17601214Y-12851214D01*
X17644071Y-12851214D01*
X17672643Y-12865500D01*
X17786928Y-13165500D02*
X17801214Y-13151214D01*
X17829786Y-13108357D01*
X17844071Y-13079786D01*
X17858357Y-13036929D01*
X17872643Y-12965500D01*
X17872643Y-12908357D01*
X17858357Y-12836929D01*
X17844071Y-12794071D01*
X17829786Y-12765500D01*
X17801214Y-12722643D01*
X17786928Y-12708357D01*
X11260500Y-13271500D02*
X11260500Y-13351500D01*
X11220500Y-13311500D02*
X11300500Y-13311500D01*
X11644071Y-13147214D02*
X11672643Y-13147214D01*
X11701214Y-13161500D01*
X11715500Y-13175786D01*
X11729786Y-13204357D01*
X11744071Y-13261500D01*
X11744071Y-13332929D01*
X11729786Y-13390071D01*
X11715500Y-13418643D01*
X11701214Y-13432929D01*
X11672643Y-13447214D01*
X11644071Y-13447214D01*
X11615500Y-13432929D01*
X11601214Y-13418643D01*
X11586928Y-13390071D01*
X11572643Y-13332929D01*
X11572643Y-13261500D01*
X11586928Y-13204357D01*
X11601214Y-13175786D01*
X11615500Y-13161500D01*
X11644071Y-13147214D01*
X11872643Y-13418643D02*
X11886928Y-13432929D01*
X11872643Y-13447214D01*
X11858357Y-13432929D01*
X11872643Y-13418643D01*
X11872643Y-13447214D01*
X12058357Y-13275786D02*
X12029786Y-13261500D01*
X12015500Y-13247214D01*
X12001214Y-13218643D01*
X12001214Y-13204357D01*
X12015500Y-13175786D01*
X12029786Y-13161500D01*
X12058357Y-13147214D01*
X12115500Y-13147214D01*
X12144071Y-13161500D01*
X12158357Y-13175786D01*
X12172643Y-13204357D01*
X12172643Y-13218643D01*
X12158357Y-13247214D01*
X12144071Y-13261500D01*
X12115500Y-13275786D01*
X12058357Y-13275786D01*
X12029786Y-13290071D01*
X12015500Y-13304357D01*
X12001214Y-13332929D01*
X12001214Y-13390071D01*
X12015500Y-13418643D01*
X12029786Y-13432929D01*
X12058357Y-13447214D01*
X12115500Y-13447214D01*
X12144071Y-13432929D01*
X12158357Y-13418643D01*
X12172643Y-13390071D01*
X12172643Y-13332929D01*
X12158357Y-13304357D01*
X12144071Y-13290071D01*
X12115500Y-13275786D01*
X12358357Y-13147214D02*
X12386928Y-13147214D01*
X12415500Y-13161500D01*
X12429786Y-13175786D01*
X12444071Y-13204357D01*
X12458357Y-13261500D01*
X12458357Y-13332929D01*
X12444071Y-13390071D01*
X12429786Y-13418643D01*
X12415500Y-13432929D01*
X12386928Y-13447214D01*
X12358357Y-13447214D01*
X12329786Y-13432929D01*
X12315500Y-13418643D01*
X12301214Y-13390071D01*
X12286928Y-13332929D01*
X12286928Y-13261500D01*
X12301214Y-13204357D01*
X12315500Y-13175786D01*
X12329786Y-13161500D01*
X12358357Y-13147214D01*
X12586928Y-13447214D02*
X12586928Y-13247214D01*
X12586928Y-13275786D02*
X12601214Y-13261500D01*
X12629786Y-13247214D01*
X12672643Y-13247214D01*
X12701214Y-13261500D01*
X12715500Y-13290071D01*
X12715500Y-13447214D01*
X12715500Y-13290071D02*
X12729786Y-13261500D01*
X12758357Y-13247214D01*
X12801214Y-13247214D01*
X12829786Y-13261500D01*
X12844071Y-13290071D01*
X12844071Y-13447214D01*
X12986928Y-13447214D02*
X12986928Y-13247214D01*
X12986928Y-13275786D02*
X13001214Y-13261500D01*
X13029786Y-13247214D01*
X13072643Y-13247214D01*
X13101214Y-13261500D01*
X13115500Y-13290071D01*
X13115500Y-13447214D01*
X13115500Y-13290071D02*
X13129786Y-13261500D01*
X13158357Y-13247214D01*
X13201214Y-13247214D01*
X13229786Y-13261500D01*
X13244071Y-13290071D01*
X13244071Y-13447214D01*
X13829786Y-13132929D02*
X13572643Y-13518643D01*
X14215500Y-13147214D02*
X14244071Y-13147214D01*
X14272643Y-13161500D01*
X14286928Y-13175786D01*
X14301214Y-13204357D01*
X14315500Y-13261500D01*
X14315500Y-13332929D01*
X14301214Y-13390071D01*
X14286928Y-13418643D01*
X14272643Y-13432929D01*
X14244071Y-13447214D01*
X14215500Y-13447214D01*
X14186928Y-13432929D01*
X14172643Y-13418643D01*
X14158357Y-13390071D01*
X14144071Y-13332929D01*
X14144071Y-13261500D01*
X14158357Y-13204357D01*
X14172643Y-13175786D01*
X14186928Y-13161500D01*
X14215500Y-13147214D01*
X14444071Y-13418643D02*
X14458357Y-13432929D01*
X14444071Y-13447214D01*
X14429786Y-13432929D01*
X14444071Y-13418643D01*
X14444071Y-13447214D01*
X14644071Y-13147214D02*
X14672643Y-13147214D01*
X14701214Y-13161500D01*
X14715500Y-13175786D01*
X14729786Y-13204357D01*
X14744071Y-13261500D01*
X14744071Y-13332929D01*
X14729786Y-13390071D01*
X14715500Y-13418643D01*
X14701214Y-13432929D01*
X14672643Y-13447214D01*
X14644071Y-13447214D01*
X14615500Y-13432929D01*
X14601214Y-13418643D01*
X14586928Y-13390071D01*
X14572643Y-13332929D01*
X14572643Y-13261500D01*
X14586928Y-13204357D01*
X14601214Y-13175786D01*
X14615500Y-13161500D01*
X14644071Y-13147214D01*
X14844071Y-13147214D02*
X15029786Y-13147214D01*
X14929786Y-13261500D01*
X14972643Y-13261500D01*
X15001214Y-13275786D01*
X15015500Y-13290071D01*
X15029786Y-13318643D01*
X15029786Y-13390071D01*
X15015500Y-13418643D01*
X15001214Y-13432929D01*
X14972643Y-13447214D01*
X14886928Y-13447214D01*
X14858357Y-13432929D01*
X14844071Y-13418643D01*
X15315500Y-13447214D02*
X15144071Y-13447214D01*
X15229786Y-13447214D02*
X15229786Y-13147214D01*
X15201214Y-13190071D01*
X15172643Y-13218643D01*
X15144071Y-13232929D01*
X15429786Y-13147214D02*
X15429786Y-13204357D01*
X15544071Y-13147214D02*
X15544071Y-13204357D01*
X15986928Y-13561500D02*
X15972643Y-13547214D01*
X15944071Y-13504357D01*
X15929786Y-13475786D01*
X15915500Y-13432929D01*
X15901214Y-13361500D01*
X15901214Y-13304357D01*
X15915500Y-13232929D01*
X15929786Y-13190071D01*
X15944071Y-13161500D01*
X15972643Y-13118643D01*
X15986928Y-13104357D01*
X16258357Y-13447214D02*
X16086928Y-13447214D01*
X16172643Y-13447214D02*
X16172643Y-13147214D01*
X16144071Y-13190071D01*
X16115500Y-13218643D01*
X16086928Y-13232929D01*
X16529786Y-13147214D02*
X16386928Y-13147214D01*
X16372643Y-13290071D01*
X16386928Y-13275786D01*
X16415500Y-13261500D01*
X16486928Y-13261500D01*
X16515500Y-13275786D01*
X16529786Y-13290071D01*
X16544071Y-13318643D01*
X16544071Y-13390071D01*
X16529786Y-13418643D01*
X16515500Y-13432929D01*
X16486928Y-13447214D01*
X16415500Y-13447214D01*
X16386928Y-13432929D01*
X16372643Y-13418643D01*
X16901214Y-13447214D02*
X16901214Y-13147214D01*
X17029786Y-13447214D02*
X17029786Y-13290071D01*
X17015500Y-13261500D01*
X16986928Y-13247214D01*
X16944071Y-13247214D01*
X16915500Y-13261500D01*
X16901214Y-13275786D01*
X17215500Y-13447214D02*
X17186928Y-13432929D01*
X17172643Y-13418643D01*
X17158357Y-13390071D01*
X17158357Y-13304357D01*
X17172643Y-13275786D01*
X17186928Y-13261500D01*
X17215500Y-13247214D01*
X17258357Y-13247214D01*
X17286928Y-13261500D01*
X17301214Y-13275786D01*
X17315500Y-13304357D01*
X17315500Y-13390071D01*
X17301214Y-13418643D01*
X17286928Y-13432929D01*
X17258357Y-13447214D01*
X17215500Y-13447214D01*
X17486928Y-13447214D02*
X17458357Y-13432929D01*
X17444071Y-13404357D01*
X17444071Y-13147214D01*
X17715500Y-13432929D02*
X17686928Y-13447214D01*
X17629786Y-13447214D01*
X17601214Y-13432929D01*
X17586928Y-13404357D01*
X17586928Y-13290071D01*
X17601214Y-13261500D01*
X17629786Y-13247214D01*
X17686928Y-13247214D01*
X17715500Y-13261500D01*
X17729786Y-13290071D01*
X17729786Y-13318643D01*
X17586928Y-13347214D01*
X17844071Y-13432929D02*
X17872643Y-13447214D01*
X17929786Y-13447214D01*
X17958357Y-13432929D01*
X17972643Y-13404357D01*
X17972643Y-13390071D01*
X17958357Y-13361500D01*
X17929786Y-13347214D01*
X17886928Y-13347214D01*
X17858357Y-13332929D01*
X17844071Y-13304357D01*
X17844071Y-13290071D01*
X17858357Y-13261500D01*
X17886928Y-13247214D01*
X17929786Y-13247214D01*
X17958357Y-13261500D01*
X18072643Y-13561500D02*
X18086928Y-13547214D01*
X18115500Y-13504357D01*
X18129786Y-13475786D01*
X18144071Y-13432929D01*
X18158357Y-13361500D01*
X18158357Y-13304357D01*
X18144071Y-13232929D01*
X18129786Y-13190071D01*
X18115500Y-13161500D01*
X18086928Y-13118643D01*
X18072643Y-13104357D01*
X11287320Y-13739320D02*
X11287320Y-13675680D01*
X11223680Y-13675680D01*
X11223680Y-13739320D01*
X11287320Y-13739320D01*
X11644071Y-13543214D02*
X11672643Y-13543214D01*
X11701214Y-13557500D01*
X11715500Y-13571786D01*
X11729786Y-13600357D01*
X11744071Y-13657500D01*
X11744071Y-13728929D01*
X11729786Y-13786071D01*
X11715500Y-13814643D01*
X11701214Y-13828929D01*
X11672643Y-13843214D01*
X11644071Y-13843214D01*
X11615500Y-13828929D01*
X11601214Y-13814643D01*
X11586928Y-13786071D01*
X11572643Y-13728929D01*
X11572643Y-13657500D01*
X11586928Y-13600357D01*
X11601214Y-13571786D01*
X11615500Y-13557500D01*
X11644071Y-13543214D01*
X11872643Y-13814643D02*
X11886928Y-13828929D01*
X11872643Y-13843214D01*
X11858357Y-13828929D01*
X11872643Y-13814643D01*
X11872643Y-13843214D01*
X12029786Y-13843214D02*
X12086928Y-13843214D01*
X12115500Y-13828929D01*
X12129786Y-13814643D01*
X12158357Y-13771786D01*
X12172643Y-13714643D01*
X12172643Y-13600357D01*
X12158357Y-13571786D01*
X12144071Y-13557500D01*
X12115500Y-13543214D01*
X12058357Y-13543214D01*
X12029786Y-13557500D01*
X12015500Y-13571786D01*
X12001214Y-13600357D01*
X12001214Y-13671786D01*
X12015500Y-13700357D01*
X12029786Y-13714643D01*
X12058357Y-13728929D01*
X12115500Y-13728929D01*
X12144071Y-13714643D01*
X12158357Y-13700357D01*
X12172643Y-13671786D01*
X12358357Y-13543214D02*
X12386928Y-13543214D01*
X12415500Y-13557500D01*
X12429786Y-13571786D01*
X12444071Y-13600357D01*
X12458357Y-13657500D01*
X12458357Y-13728929D01*
X12444071Y-13786071D01*
X12429786Y-13814643D01*
X12415500Y-13828929D01*
X12386928Y-13843214D01*
X12358357Y-13843214D01*
X12329786Y-13828929D01*
X12315500Y-13814643D01*
X12301214Y-13786071D01*
X12286928Y-13728929D01*
X12286928Y-13657500D01*
X12301214Y-13600357D01*
X12315500Y-13571786D01*
X12329786Y-13557500D01*
X12358357Y-13543214D01*
X12586928Y-13843214D02*
X12586928Y-13643214D01*
X12586928Y-13671786D02*
X12601214Y-13657500D01*
X12629786Y-13643214D01*
X12672643Y-13643214D01*
X12701214Y-13657500D01*
X12715500Y-13686071D01*
X12715500Y-13843214D01*
X12715500Y-13686071D02*
X12729786Y-13657500D01*
X12758357Y-13643214D01*
X12801214Y-13643214D01*
X12829786Y-13657500D01*
X12844071Y-13686071D01*
X12844071Y-13843214D01*
X12986928Y-13843214D02*
X12986928Y-13643214D01*
X12986928Y-13671786D02*
X13001214Y-13657500D01*
X13029786Y-13643214D01*
X13072643Y-13643214D01*
X13101214Y-13657500D01*
X13115500Y-13686071D01*
X13115500Y-13843214D01*
X13115500Y-13686071D02*
X13129786Y-13657500D01*
X13158357Y-13643214D01*
X13201214Y-13643214D01*
X13229786Y-13657500D01*
X13244071Y-13686071D01*
X13244071Y-13843214D01*
X13829786Y-13528929D02*
X13572643Y-13914643D01*
X14215500Y-13543214D02*
X14244071Y-13543214D01*
X14272643Y-13557500D01*
X14286928Y-13571786D01*
X14301214Y-13600357D01*
X14315500Y-13657500D01*
X14315500Y-13728929D01*
X14301214Y-13786071D01*
X14286928Y-13814643D01*
X14272643Y-13828929D01*
X14244071Y-13843214D01*
X14215500Y-13843214D01*
X14186928Y-13828929D01*
X14172643Y-13814643D01*
X14158357Y-13786071D01*
X14144071Y-13728929D01*
X14144071Y-13657500D01*
X14158357Y-13600357D01*
X14172643Y-13571786D01*
X14186928Y-13557500D01*
X14215500Y-13543214D01*
X14444071Y-13814643D02*
X14458357Y-13828929D01*
X14444071Y-13843214D01*
X14429786Y-13828929D01*
X14444071Y-13814643D01*
X14444071Y-13843214D01*
X14644071Y-13543214D02*
X14672643Y-13543214D01*
X14701214Y-13557500D01*
X14715500Y-13571786D01*
X14729786Y-13600357D01*
X14744071Y-13657500D01*
X14744071Y-13728929D01*
X14729786Y-13786071D01*
X14715500Y-13814643D01*
X14701214Y-13828929D01*
X14672643Y-13843214D01*
X14644071Y-13843214D01*
X14615500Y-13828929D01*
X14601214Y-13814643D01*
X14586928Y-13786071D01*
X14572643Y-13728929D01*
X14572643Y-13657500D01*
X14586928Y-13600357D01*
X14601214Y-13571786D01*
X14615500Y-13557500D01*
X14644071Y-13543214D01*
X14844071Y-13543214D02*
X15029786Y-13543214D01*
X14929786Y-13657500D01*
X14972643Y-13657500D01*
X15001214Y-13671786D01*
X15015500Y-13686071D01*
X15029786Y-13714643D01*
X15029786Y-13786071D01*
X15015500Y-13814643D01*
X15001214Y-13828929D01*
X14972643Y-13843214D01*
X14886928Y-13843214D01*
X14858357Y-13828929D01*
X14844071Y-13814643D01*
X15301214Y-13543214D02*
X15158357Y-13543214D01*
X15144071Y-13686071D01*
X15158357Y-13671786D01*
X15186928Y-13657500D01*
X15258357Y-13657500D01*
X15286928Y-13671786D01*
X15301214Y-13686071D01*
X15315500Y-13714643D01*
X15315500Y-13786071D01*
X15301214Y-13814643D01*
X15286928Y-13828929D01*
X15258357Y-13843214D01*
X15186928Y-13843214D01*
X15158357Y-13828929D01*
X15144071Y-13814643D01*
X15429786Y-13543214D02*
X15429786Y-13600357D01*
X15544071Y-13543214D02*
X15544071Y-13600357D01*
X15986928Y-13957500D02*
X15972643Y-13943214D01*
X15944071Y-13900357D01*
X15929786Y-13871786D01*
X15915500Y-13828929D01*
X15901214Y-13757500D01*
X15901214Y-13700357D01*
X15915500Y-13628929D01*
X15929786Y-13586071D01*
X15944071Y-13557500D01*
X15972643Y-13514643D01*
X15986928Y-13500357D01*
X16258357Y-13843214D02*
X16086928Y-13843214D01*
X16172643Y-13843214D02*
X16172643Y-13543214D01*
X16144071Y-13586071D01*
X16115500Y-13614643D01*
X16086928Y-13628929D01*
X16372643Y-13571786D02*
X16386928Y-13557500D01*
X16415500Y-13543214D01*
X16486928Y-13543214D01*
X16515500Y-13557500D01*
X16529786Y-13571786D01*
X16544071Y-13600357D01*
X16544071Y-13628929D01*
X16529786Y-13671786D01*
X16358357Y-13843214D01*
X16544071Y-13843214D01*
X16901214Y-13843214D02*
X16901214Y-13543214D01*
X17029786Y-13843214D02*
X17029786Y-13686071D01*
X17015500Y-13657500D01*
X16986928Y-13643214D01*
X16944071Y-13643214D01*
X16915500Y-13657500D01*
X16901214Y-13671786D01*
X17215500Y-13843214D02*
X17186928Y-13828929D01*
X17172643Y-13814643D01*
X17158357Y-13786071D01*
X17158357Y-13700357D01*
X17172643Y-13671786D01*
X17186928Y-13657500D01*
X17215500Y-13643214D01*
X17258357Y-13643214D01*
X17286928Y-13657500D01*
X17301214Y-13671786D01*
X17315500Y-13700357D01*
X17315500Y-13786071D01*
X17301214Y-13814643D01*
X17286928Y-13828929D01*
X17258357Y-13843214D01*
X17215500Y-13843214D01*
X17486928Y-13843214D02*
X17458357Y-13828929D01*
X17444071Y-13800357D01*
X17444071Y-13543214D01*
X17715500Y-13828929D02*
X17686928Y-13843214D01*
X17629786Y-13843214D01*
X17601214Y-13828929D01*
X17586928Y-13800357D01*
X17586928Y-13686071D01*
X17601214Y-13657500D01*
X17629786Y-13643214D01*
X17686928Y-13643214D01*
X17715500Y-13657500D01*
X17729786Y-13686071D01*
X17729786Y-13714643D01*
X17586928Y-13743214D01*
X17844071Y-13828929D02*
X17872643Y-13843214D01*
X17929786Y-13843214D01*
X17958357Y-13828929D01*
X17972643Y-13800357D01*
X17972643Y-13786071D01*
X17958357Y-13757500D01*
X17929786Y-13743214D01*
X17886928Y-13743214D01*
X17858357Y-13728929D01*
X17844071Y-13700357D01*
X17844071Y-13686071D01*
X17858357Y-13657500D01*
X17886928Y-13643214D01*
X17929786Y-13643214D01*
X17958357Y-13657500D01*
X18072643Y-13957500D02*
X18086928Y-13943214D01*
X18115500Y-13900357D01*
X18129786Y-13871786D01*
X18144071Y-13828929D01*
X18158357Y-13757500D01*
X18158357Y-13700357D01*
X18144071Y-13628929D01*
X18129786Y-13586071D01*
X18115500Y-13557500D01*
X18086928Y-13514643D01*
X18072643Y-13500357D01*
X11250500Y-14153500D02*
X11300500Y-14103500D01*
X11250500Y-14053500D01*
X11200500Y-14103500D01*
X11250500Y-14153500D01*
X11744071Y-14239214D02*
X11572643Y-14239214D01*
X11658357Y-14239214D02*
X11658357Y-13939214D01*
X11629786Y-13982071D01*
X11601214Y-14010643D01*
X11572643Y-14024929D01*
X11872643Y-14210643D02*
X11886928Y-14224929D01*
X11872643Y-14239214D01*
X11858357Y-14224929D01*
X11872643Y-14210643D01*
X11872643Y-14239214D01*
X12072643Y-13939214D02*
X12101214Y-13939214D01*
X12129786Y-13953500D01*
X12144071Y-13967786D01*
X12158357Y-13996357D01*
X12172643Y-14053500D01*
X12172643Y-14124929D01*
X12158357Y-14182071D01*
X12144071Y-14210643D01*
X12129786Y-14224929D01*
X12101214Y-14239214D01*
X12072643Y-14239214D01*
X12044071Y-14224929D01*
X12029786Y-14210643D01*
X12015500Y-14182071D01*
X12001214Y-14124929D01*
X12001214Y-14053500D01*
X12015500Y-13996357D01*
X12029786Y-13967786D01*
X12044071Y-13953500D01*
X12072643Y-13939214D01*
X12358357Y-13939214D02*
X12386928Y-13939214D01*
X12415500Y-13953500D01*
X12429786Y-13967786D01*
X12444071Y-13996357D01*
X12458357Y-14053500D01*
X12458357Y-14124929D01*
X12444071Y-14182071D01*
X12429786Y-14210643D01*
X12415500Y-14224929D01*
X12386928Y-14239214D01*
X12358357Y-14239214D01*
X12329786Y-14224929D01*
X12315500Y-14210643D01*
X12301214Y-14182071D01*
X12286928Y-14124929D01*
X12286928Y-14053500D01*
X12301214Y-13996357D01*
X12315500Y-13967786D01*
X12329786Y-13953500D01*
X12358357Y-13939214D01*
X12586928Y-14239214D02*
X12586928Y-14039214D01*
X12586928Y-14067786D02*
X12601214Y-14053500D01*
X12629786Y-14039214D01*
X12672643Y-14039214D01*
X12701214Y-14053500D01*
X12715500Y-14082071D01*
X12715500Y-14239214D01*
X12715500Y-14082071D02*
X12729786Y-14053500D01*
X12758357Y-14039214D01*
X12801214Y-14039214D01*
X12829786Y-14053500D01*
X12844071Y-14082071D01*
X12844071Y-14239214D01*
X12986928Y-14239214D02*
X12986928Y-14039214D01*
X12986928Y-14067786D02*
X13001214Y-14053500D01*
X13029786Y-14039214D01*
X13072643Y-14039214D01*
X13101214Y-14053500D01*
X13115500Y-14082071D01*
X13115500Y-14239214D01*
X13115500Y-14082071D02*
X13129786Y-14053500D01*
X13158357Y-14039214D01*
X13201214Y-14039214D01*
X13229786Y-14053500D01*
X13244071Y-14082071D01*
X13244071Y-14239214D01*
X13829786Y-13924929D02*
X13572643Y-14310643D01*
X14215500Y-13939214D02*
X14244071Y-13939214D01*
X14272643Y-13953500D01*
X14286928Y-13967786D01*
X14301214Y-13996357D01*
X14315500Y-14053500D01*
X14315500Y-14124929D01*
X14301214Y-14182071D01*
X14286928Y-14210643D01*
X14272643Y-14224929D01*
X14244071Y-14239214D01*
X14215500Y-14239214D01*
X14186928Y-14224929D01*
X14172643Y-14210643D01*
X14158357Y-14182071D01*
X14144071Y-14124929D01*
X14144071Y-14053500D01*
X14158357Y-13996357D01*
X14172643Y-13967786D01*
X14186928Y-13953500D01*
X14215500Y-13939214D01*
X14444071Y-14210643D02*
X14458357Y-14224929D01*
X14444071Y-14239214D01*
X14429786Y-14224929D01*
X14444071Y-14210643D01*
X14444071Y-14239214D01*
X14644071Y-13939214D02*
X14672643Y-13939214D01*
X14701214Y-13953500D01*
X14715500Y-13967786D01*
X14729786Y-13996357D01*
X14744071Y-14053500D01*
X14744071Y-14124929D01*
X14729786Y-14182071D01*
X14715500Y-14210643D01*
X14701214Y-14224929D01*
X14672643Y-14239214D01*
X14644071Y-14239214D01*
X14615500Y-14224929D01*
X14601214Y-14210643D01*
X14586928Y-14182071D01*
X14572643Y-14124929D01*
X14572643Y-14053500D01*
X14586928Y-13996357D01*
X14601214Y-13967786D01*
X14615500Y-13953500D01*
X14644071Y-13939214D01*
X14844071Y-13939214D02*
X15029786Y-13939214D01*
X14929786Y-14053500D01*
X14972643Y-14053500D01*
X15001214Y-14067786D01*
X15015500Y-14082071D01*
X15029786Y-14110643D01*
X15029786Y-14182071D01*
X15015500Y-14210643D01*
X15001214Y-14224929D01*
X14972643Y-14239214D01*
X14886928Y-14239214D01*
X14858357Y-14224929D01*
X14844071Y-14210643D01*
X15172643Y-14239214D02*
X15229786Y-14239214D01*
X15258357Y-14224929D01*
X15272643Y-14210643D01*
X15301214Y-14167786D01*
X15315500Y-14110643D01*
X15315500Y-13996357D01*
X15301214Y-13967786D01*
X15286928Y-13953500D01*
X15258357Y-13939214D01*
X15201214Y-13939214D01*
X15172643Y-13953500D01*
X15158357Y-13967786D01*
X15144071Y-13996357D01*
X15144071Y-14067786D01*
X15158357Y-14096357D01*
X15172643Y-14110643D01*
X15201214Y-14124929D01*
X15258357Y-14124929D01*
X15286928Y-14110643D01*
X15301214Y-14096357D01*
X15315500Y-14067786D01*
X15429786Y-13939214D02*
X15429786Y-13996357D01*
X15544071Y-13939214D02*
X15544071Y-13996357D01*
X15986928Y-14353500D02*
X15972643Y-14339214D01*
X15944071Y-14296357D01*
X15929786Y-14267786D01*
X15915500Y-14224929D01*
X15901214Y-14153500D01*
X15901214Y-14096357D01*
X15915500Y-14024929D01*
X15929786Y-13982071D01*
X15944071Y-13953500D01*
X15972643Y-13910643D01*
X15986928Y-13896357D01*
X16258357Y-14239214D02*
X16086928Y-14239214D01*
X16172643Y-14239214D02*
X16172643Y-13939214D01*
X16144071Y-13982071D01*
X16115500Y-14010643D01*
X16086928Y-14024929D01*
X16401214Y-14239214D02*
X16458357Y-14239214D01*
X16486928Y-14224929D01*
X16501214Y-14210643D01*
X16529786Y-14167786D01*
X16544071Y-14110643D01*
X16544071Y-13996357D01*
X16529786Y-13967786D01*
X16515500Y-13953500D01*
X16486928Y-13939214D01*
X16429786Y-13939214D01*
X16401214Y-13953500D01*
X16386928Y-13967786D01*
X16372643Y-13996357D01*
X16372643Y-14067786D01*
X16386928Y-14096357D01*
X16401214Y-14110643D01*
X16429786Y-14124929D01*
X16486928Y-14124929D01*
X16515500Y-14110643D01*
X16529786Y-14096357D01*
X16544071Y-14067786D01*
X16901214Y-14239214D02*
X16901214Y-13939214D01*
X17029786Y-14239214D02*
X17029786Y-14082071D01*
X17015500Y-14053500D01*
X16986928Y-14039214D01*
X16944071Y-14039214D01*
X16915500Y-14053500D01*
X16901214Y-14067786D01*
X17215500Y-14239214D02*
X17186928Y-14224929D01*
X17172643Y-14210643D01*
X17158357Y-14182071D01*
X17158357Y-14096357D01*
X17172643Y-14067786D01*
X17186928Y-14053500D01*
X17215500Y-14039214D01*
X17258357Y-14039214D01*
X17286928Y-14053500D01*
X17301214Y-14067786D01*
X17315500Y-14096357D01*
X17315500Y-14182071D01*
X17301214Y-14210643D01*
X17286928Y-14224929D01*
X17258357Y-14239214D01*
X17215500Y-14239214D01*
X17486928Y-14239214D02*
X17458357Y-14224929D01*
X17444071Y-14196357D01*
X17444071Y-13939214D01*
X17715500Y-14224929D02*
X17686928Y-14239214D01*
X17629786Y-14239214D01*
X17601214Y-14224929D01*
X17586928Y-14196357D01*
X17586928Y-14082071D01*
X17601214Y-14053500D01*
X17629786Y-14039214D01*
X17686928Y-14039214D01*
X17715500Y-14053500D01*
X17729786Y-14082071D01*
X17729786Y-14110643D01*
X17586928Y-14139214D01*
X17844071Y-14224929D02*
X17872643Y-14239214D01*
X17929786Y-14239214D01*
X17958357Y-14224929D01*
X17972643Y-14196357D01*
X17972643Y-14182071D01*
X17958357Y-14153500D01*
X17929786Y-14139214D01*
X17886928Y-14139214D01*
X17858357Y-14124929D01*
X17844071Y-14096357D01*
X17844071Y-14082071D01*
X17858357Y-14053500D01*
X17886928Y-14039214D01*
X17929786Y-14039214D01*
X17958357Y-14053500D01*
X18072643Y-14353500D02*
X18086928Y-14339214D01*
X18115500Y-14296357D01*
X18129786Y-14267786D01*
X18144071Y-14224929D01*
X18158357Y-14153500D01*
X18158357Y-14096357D01*
X18144071Y-14024929D01*
X18129786Y-13982071D01*
X18115500Y-13953500D01*
X18086928Y-13910643D01*
X18072643Y-13896357D01*
X11190500Y-14444500D02*
X11300500Y-14554500D01*
X11300500Y-14444500D02*
X11190500Y-14554500D01*
X11300500Y-14499500D02*
G75*
G03X11300500Y-14499500I-55000J0D01*
G01*
X11744071Y-14635214D02*
X11572643Y-14635214D01*
X11658357Y-14635214D02*
X11658357Y-14335214D01*
X11629786Y-14378071D01*
X11601214Y-14406643D01*
X11572643Y-14420929D01*
X11872643Y-14606643D02*
X11886928Y-14620929D01*
X11872643Y-14635214D01*
X11858357Y-14620929D01*
X11872643Y-14606643D01*
X11872643Y-14635214D01*
X12172643Y-14635214D02*
X12001214Y-14635214D01*
X12086928Y-14635214D02*
X12086928Y-14335214D01*
X12058357Y-14378071D01*
X12029786Y-14406643D01*
X12001214Y-14420929D01*
X12358357Y-14335214D02*
X12386928Y-14335214D01*
X12415500Y-14349500D01*
X12429786Y-14363786D01*
X12444071Y-14392357D01*
X12458357Y-14449500D01*
X12458357Y-14520929D01*
X12444071Y-14578071D01*
X12429786Y-14606643D01*
X12415500Y-14620929D01*
X12386928Y-14635214D01*
X12358357Y-14635214D01*
X12329786Y-14620929D01*
X12315500Y-14606643D01*
X12301214Y-14578071D01*
X12286928Y-14520929D01*
X12286928Y-14449500D01*
X12301214Y-14392357D01*
X12315500Y-14363786D01*
X12329786Y-14349500D01*
X12358357Y-14335214D01*
X12586928Y-14635214D02*
X12586928Y-14435214D01*
X12586928Y-14463786D02*
X12601214Y-14449500D01*
X12629786Y-14435214D01*
X12672643Y-14435214D01*
X12701214Y-14449500D01*
X12715500Y-14478071D01*
X12715500Y-14635214D01*
X12715500Y-14478071D02*
X12729786Y-14449500D01*
X12758357Y-14435214D01*
X12801214Y-14435214D01*
X12829786Y-14449500D01*
X12844071Y-14478071D01*
X12844071Y-14635214D01*
X12986928Y-14635214D02*
X12986928Y-14435214D01*
X12986928Y-14463786D02*
X13001214Y-14449500D01*
X13029786Y-14435214D01*
X13072643Y-14435214D01*
X13101214Y-14449500D01*
X13115500Y-14478071D01*
X13115500Y-14635214D01*
X13115500Y-14478071D02*
X13129786Y-14449500D01*
X13158357Y-14435214D01*
X13201214Y-14435214D01*
X13229786Y-14449500D01*
X13244071Y-14478071D01*
X13244071Y-14635214D01*
X13829786Y-14320929D02*
X13572643Y-14706643D01*
X14215500Y-14335214D02*
X14244071Y-14335214D01*
X14272643Y-14349500D01*
X14286928Y-14363786D01*
X14301214Y-14392357D01*
X14315500Y-14449500D01*
X14315500Y-14520929D01*
X14301214Y-14578071D01*
X14286928Y-14606643D01*
X14272643Y-14620929D01*
X14244071Y-14635214D01*
X14215500Y-14635214D01*
X14186928Y-14620929D01*
X14172643Y-14606643D01*
X14158357Y-14578071D01*
X14144071Y-14520929D01*
X14144071Y-14449500D01*
X14158357Y-14392357D01*
X14172643Y-14363786D01*
X14186928Y-14349500D01*
X14215500Y-14335214D01*
X14444071Y-14606643D02*
X14458357Y-14620929D01*
X14444071Y-14635214D01*
X14429786Y-14620929D01*
X14444071Y-14606643D01*
X14444071Y-14635214D01*
X14644071Y-14335214D02*
X14672643Y-14335214D01*
X14701214Y-14349500D01*
X14715500Y-14363786D01*
X14729786Y-14392357D01*
X14744071Y-14449500D01*
X14744071Y-14520929D01*
X14729786Y-14578071D01*
X14715500Y-14606643D01*
X14701214Y-14620929D01*
X14672643Y-14635214D01*
X14644071Y-14635214D01*
X14615500Y-14620929D01*
X14601214Y-14606643D01*
X14586928Y-14578071D01*
X14572643Y-14520929D01*
X14572643Y-14449500D01*
X14586928Y-14392357D01*
X14601214Y-14363786D01*
X14615500Y-14349500D01*
X14644071Y-14335214D01*
X15001214Y-14435214D02*
X15001214Y-14635214D01*
X14929786Y-14320929D02*
X14858357Y-14535214D01*
X15044071Y-14535214D01*
X15129786Y-14335214D02*
X15315500Y-14335214D01*
X15215500Y-14449500D01*
X15258357Y-14449500D01*
X15286928Y-14463786D01*
X15301214Y-14478071D01*
X15315500Y-14506643D01*
X15315500Y-14578071D01*
X15301214Y-14606643D01*
X15286928Y-14620929D01*
X15258357Y-14635214D01*
X15172643Y-14635214D01*
X15144071Y-14620929D01*
X15129786Y-14606643D01*
X15429786Y-14335214D02*
X15429786Y-14392357D01*
X15544071Y-14335214D02*
X15544071Y-14392357D01*
X15986928Y-14749500D02*
X15972643Y-14735214D01*
X15944071Y-14692357D01*
X15929786Y-14663786D01*
X15915500Y-14620929D01*
X15901214Y-14549500D01*
X15901214Y-14492357D01*
X15915500Y-14420929D01*
X15929786Y-14378071D01*
X15944071Y-14349500D01*
X15972643Y-14306643D01*
X15986928Y-14292357D01*
X16229786Y-14335214D02*
X16172643Y-14335214D01*
X16144071Y-14349500D01*
X16129786Y-14363786D01*
X16101214Y-14406643D01*
X16086928Y-14463786D01*
X16086928Y-14578071D01*
X16101214Y-14606643D01*
X16115500Y-14620929D01*
X16144071Y-14635214D01*
X16201214Y-14635214D01*
X16229786Y-14620929D01*
X16244071Y-14606643D01*
X16258357Y-14578071D01*
X16258357Y-14506643D01*
X16244071Y-14478071D01*
X16229786Y-14463786D01*
X16201214Y-14449500D01*
X16144071Y-14449500D01*
X16115500Y-14463786D01*
X16101214Y-14478071D01*
X16086928Y-14506643D01*
X16615500Y-14635214D02*
X16615500Y-14335214D01*
X16744071Y-14635214D02*
X16744071Y-14478071D01*
X16729786Y-14449500D01*
X16701214Y-14435214D01*
X16658357Y-14435214D01*
X16629786Y-14449500D01*
X16615500Y-14463786D01*
X16929786Y-14635214D02*
X16901214Y-14620929D01*
X16886928Y-14606643D01*
X16872643Y-14578071D01*
X16872643Y-14492357D01*
X16886928Y-14463786D01*
X16901214Y-14449500D01*
X16929786Y-14435214D01*
X16972643Y-14435214D01*
X17001214Y-14449500D01*
X17015500Y-14463786D01*
X17029786Y-14492357D01*
X17029786Y-14578071D01*
X17015500Y-14606643D01*
X17001214Y-14620929D01*
X16972643Y-14635214D01*
X16929786Y-14635214D01*
X17201214Y-14635214D02*
X17172643Y-14620929D01*
X17158357Y-14592357D01*
X17158357Y-14335214D01*
X17429786Y-14620929D02*
X17401214Y-14635214D01*
X17344071Y-14635214D01*
X17315500Y-14620929D01*
X17301214Y-14592357D01*
X17301214Y-14478071D01*
X17315500Y-14449500D01*
X17344071Y-14435214D01*
X17401214Y-14435214D01*
X17429786Y-14449500D01*
X17444071Y-14478071D01*
X17444071Y-14506643D01*
X17301214Y-14535214D01*
X17558357Y-14620929D02*
X17586928Y-14635214D01*
X17644071Y-14635214D01*
X17672643Y-14620929D01*
X17686928Y-14592357D01*
X17686928Y-14578071D01*
X17672643Y-14549500D01*
X17644071Y-14535214D01*
X17601214Y-14535214D01*
X17572643Y-14520929D01*
X17558357Y-14492357D01*
X17558357Y-14478071D01*
X17572643Y-14449500D01*
X17601214Y-14435214D01*
X17644071Y-14435214D01*
X17672643Y-14449500D01*
X17786928Y-14749500D02*
X17801214Y-14735214D01*
X17829786Y-14692357D01*
X17844071Y-14663786D01*
X17858357Y-14620929D01*
X17872643Y-14549500D01*
X17872643Y-14492357D01*
X17858357Y-14420929D01*
X17844071Y-14378071D01*
X17829786Y-14349500D01*
X17801214Y-14306643D01*
X17786928Y-14292357D01*
X11170500Y-14830500D02*
X11300500Y-14960500D01*
X11300500Y-14830500D02*
X11170500Y-14960500D01*
X11235500Y-14830500D02*
X11235500Y-14960500D01*
X11170500Y-14895500D02*
X11300500Y-14895500D01*
X11744071Y-15031214D02*
X11572643Y-15031214D01*
X11658357Y-15031214D02*
X11658357Y-14731214D01*
X11629786Y-14774071D01*
X11601214Y-14802643D01*
X11572643Y-14816929D01*
X11872643Y-15002643D02*
X11886928Y-15016929D01*
X11872643Y-15031214D01*
X11858357Y-15016929D01*
X11872643Y-15002643D01*
X11872643Y-15031214D01*
X11986928Y-14731214D02*
X12172643Y-14731214D01*
X12072643Y-14845500D01*
X12115500Y-14845500D01*
X12144071Y-14859786D01*
X12158357Y-14874071D01*
X12172643Y-14902643D01*
X12172643Y-14974071D01*
X12158357Y-15002643D01*
X12144071Y-15016929D01*
X12115500Y-15031214D01*
X12029786Y-15031214D01*
X12001214Y-15016929D01*
X11986928Y-15002643D01*
X12358357Y-14731214D02*
X12386928Y-14731214D01*
X12415500Y-14745500D01*
X12429786Y-14759786D01*
X12444071Y-14788357D01*
X12458357Y-14845500D01*
X12458357Y-14916929D01*
X12444071Y-14974071D01*
X12429786Y-15002643D01*
X12415500Y-15016929D01*
X12386928Y-15031214D01*
X12358357Y-15031214D01*
X12329786Y-15016929D01*
X12315500Y-15002643D01*
X12301214Y-14974071D01*
X12286928Y-14916929D01*
X12286928Y-14845500D01*
X12301214Y-14788357D01*
X12315500Y-14759786D01*
X12329786Y-14745500D01*
X12358357Y-14731214D01*
X12586928Y-15031214D02*
X12586928Y-14831214D01*
X12586928Y-14859786D02*
X12601214Y-14845500D01*
X12629786Y-14831214D01*
X12672643Y-14831214D01*
X12701214Y-14845500D01*
X12715500Y-14874071D01*
X12715500Y-15031214D01*
X12715500Y-14874071D02*
X12729786Y-14845500D01*
X12758357Y-14831214D01*
X12801214Y-14831214D01*
X12829786Y-14845500D01*
X12844071Y-14874071D01*
X12844071Y-15031214D01*
X12986928Y-15031214D02*
X12986928Y-14831214D01*
X12986928Y-14859786D02*
X13001214Y-14845500D01*
X13029786Y-14831214D01*
X13072643Y-14831214D01*
X13101214Y-14845500D01*
X13115500Y-14874071D01*
X13115500Y-15031214D01*
X13115500Y-14874071D02*
X13129786Y-14845500D01*
X13158357Y-14831214D01*
X13201214Y-14831214D01*
X13229786Y-14845500D01*
X13244071Y-14874071D01*
X13244071Y-15031214D01*
X13829786Y-14716929D02*
X13572643Y-15102643D01*
X14215500Y-14731214D02*
X14244071Y-14731214D01*
X14272643Y-14745500D01*
X14286928Y-14759786D01*
X14301214Y-14788357D01*
X14315500Y-14845500D01*
X14315500Y-14916929D01*
X14301214Y-14974071D01*
X14286928Y-15002643D01*
X14272643Y-15016929D01*
X14244071Y-15031214D01*
X14215500Y-15031214D01*
X14186928Y-15016929D01*
X14172643Y-15002643D01*
X14158357Y-14974071D01*
X14144071Y-14916929D01*
X14144071Y-14845500D01*
X14158357Y-14788357D01*
X14172643Y-14759786D01*
X14186928Y-14745500D01*
X14215500Y-14731214D01*
X14444071Y-15002643D02*
X14458357Y-15016929D01*
X14444071Y-15031214D01*
X14429786Y-15016929D01*
X14444071Y-15002643D01*
X14444071Y-15031214D01*
X14644071Y-14731214D02*
X14672643Y-14731214D01*
X14701214Y-14745500D01*
X14715500Y-14759786D01*
X14729786Y-14788357D01*
X14744071Y-14845500D01*
X14744071Y-14916929D01*
X14729786Y-14974071D01*
X14715500Y-15002643D01*
X14701214Y-15016929D01*
X14672643Y-15031214D01*
X14644071Y-15031214D01*
X14615500Y-15016929D01*
X14601214Y-15002643D01*
X14586928Y-14974071D01*
X14572643Y-14916929D01*
X14572643Y-14845500D01*
X14586928Y-14788357D01*
X14601214Y-14759786D01*
X14615500Y-14745500D01*
X14644071Y-14731214D01*
X15015500Y-14731214D02*
X14872643Y-14731214D01*
X14858357Y-14874071D01*
X14872643Y-14859786D01*
X14901214Y-14845500D01*
X14972643Y-14845500D01*
X15001214Y-14859786D01*
X15015500Y-14874071D01*
X15029786Y-14902643D01*
X15029786Y-14974071D01*
X15015500Y-15002643D01*
X15001214Y-15016929D01*
X14972643Y-15031214D01*
X14901214Y-15031214D01*
X14872643Y-15016929D01*
X14858357Y-15002643D01*
X15315500Y-15031214D02*
X15144071Y-15031214D01*
X15229786Y-15031214D02*
X15229786Y-14731214D01*
X15201214Y-14774071D01*
X15172643Y-14802643D01*
X15144071Y-14816929D01*
X15429786Y-14731214D02*
X15429786Y-14788357D01*
X15544071Y-14731214D02*
X15544071Y-14788357D01*
X15986928Y-15145500D02*
X15972643Y-15131214D01*
X15944071Y-15088357D01*
X15929786Y-15059786D01*
X15915500Y-15016929D01*
X15901214Y-14945500D01*
X15901214Y-14888357D01*
X15915500Y-14816929D01*
X15929786Y-14774071D01*
X15944071Y-14745500D01*
X15972643Y-14702643D01*
X15986928Y-14688357D01*
X16086928Y-14759786D02*
X16101214Y-14745500D01*
X16129786Y-14731214D01*
X16201214Y-14731214D01*
X16229786Y-14745500D01*
X16244071Y-14759786D01*
X16258357Y-14788357D01*
X16258357Y-14816929D01*
X16244071Y-14859786D01*
X16072643Y-15031214D01*
X16258357Y-15031214D01*
X16615500Y-15031214D02*
X16615500Y-14731214D01*
X16744071Y-15031214D02*
X16744071Y-14874071D01*
X16729786Y-14845500D01*
X16701214Y-14831214D01*
X16658357Y-14831214D01*
X16629786Y-14845500D01*
X16615500Y-14859786D01*
X16929786Y-15031214D02*
X16901214Y-15016929D01*
X16886928Y-15002643D01*
X16872643Y-14974071D01*
X16872643Y-14888357D01*
X16886928Y-14859786D01*
X16901214Y-14845500D01*
X16929786Y-14831214D01*
X16972643Y-14831214D01*
X17001214Y-14845500D01*
X17015500Y-14859786D01*
X17029786Y-14888357D01*
X17029786Y-14974071D01*
X17015500Y-15002643D01*
X17001214Y-15016929D01*
X16972643Y-15031214D01*
X16929786Y-15031214D01*
X17201214Y-15031214D02*
X17172643Y-15016929D01*
X17158357Y-14988357D01*
X17158357Y-14731214D01*
X17429786Y-15016929D02*
X17401214Y-15031214D01*
X17344071Y-15031214D01*
X17315500Y-15016929D01*
X17301214Y-14988357D01*
X17301214Y-14874071D01*
X17315500Y-14845500D01*
X17344071Y-14831214D01*
X17401214Y-14831214D01*
X17429786Y-14845500D01*
X17444071Y-14874071D01*
X17444071Y-14902643D01*
X17301214Y-14931214D01*
X17558357Y-15016929D02*
X17586928Y-15031214D01*
X17644071Y-15031214D01*
X17672643Y-15016929D01*
X17686928Y-14988357D01*
X17686928Y-14974071D01*
X17672643Y-14945500D01*
X17644071Y-14931214D01*
X17601214Y-14931214D01*
X17572643Y-14916929D01*
X17558357Y-14888357D01*
X17558357Y-14874071D01*
X17572643Y-14845500D01*
X17601214Y-14831214D01*
X17644071Y-14831214D01*
X17672643Y-14845500D01*
X17786928Y-15145500D02*
X17801214Y-15131214D01*
X17829786Y-15088357D01*
X17844071Y-15059786D01*
X17858357Y-15016929D01*
X17872643Y-14945500D01*
X17872643Y-14888357D01*
X17858357Y-14816929D01*
X17844071Y-14774071D01*
X17829786Y-14745500D01*
X17801214Y-14702643D01*
X17786928Y-14688357D01*
X11150500Y-15216500D02*
X11300500Y-15366500D01*
X11300500Y-15216500D02*
X11150500Y-15366500D01*
X11278533Y-15344534D02*
X11278533Y-15238467D01*
X11172466Y-15238467D01*
X11172466Y-15344534D01*
X11278533Y-15344534D01*
X11744071Y-15427214D02*
X11572643Y-15427214D01*
X11658357Y-15427214D02*
X11658357Y-15127214D01*
X11629786Y-15170071D01*
X11601214Y-15198643D01*
X11572643Y-15212929D01*
X11872643Y-15398643D02*
X11886928Y-15412929D01*
X11872643Y-15427214D01*
X11858357Y-15412929D01*
X11872643Y-15398643D01*
X11872643Y-15427214D01*
X12158357Y-15127214D02*
X12015500Y-15127214D01*
X12001214Y-15270071D01*
X12015500Y-15255786D01*
X12044071Y-15241500D01*
X12115500Y-15241500D01*
X12144071Y-15255786D01*
X12158357Y-15270071D01*
X12172643Y-15298643D01*
X12172643Y-15370071D01*
X12158357Y-15398643D01*
X12144071Y-15412929D01*
X12115500Y-15427214D01*
X12044071Y-15427214D01*
X12015500Y-15412929D01*
X12001214Y-15398643D01*
X12358357Y-15127214D02*
X12386928Y-15127214D01*
X12415500Y-15141500D01*
X12429786Y-15155786D01*
X12444071Y-15184357D01*
X12458357Y-15241500D01*
X12458357Y-15312929D01*
X12444071Y-15370071D01*
X12429786Y-15398643D01*
X12415500Y-15412929D01*
X12386928Y-15427214D01*
X12358357Y-15427214D01*
X12329786Y-15412929D01*
X12315500Y-15398643D01*
X12301214Y-15370071D01*
X12286928Y-15312929D01*
X12286928Y-15241500D01*
X12301214Y-15184357D01*
X12315500Y-15155786D01*
X12329786Y-15141500D01*
X12358357Y-15127214D01*
X12586928Y-15427214D02*
X12586928Y-15227214D01*
X12586928Y-15255786D02*
X12601214Y-15241500D01*
X12629786Y-15227214D01*
X12672643Y-15227214D01*
X12701214Y-15241500D01*
X12715500Y-15270071D01*
X12715500Y-15427214D01*
X12715500Y-15270071D02*
X12729786Y-15241500D01*
X12758357Y-15227214D01*
X12801214Y-15227214D01*
X12829786Y-15241500D01*
X12844071Y-15270071D01*
X12844071Y-15427214D01*
X12986928Y-15427214D02*
X12986928Y-15227214D01*
X12986928Y-15255786D02*
X13001214Y-15241500D01*
X13029786Y-15227214D01*
X13072643Y-15227214D01*
X13101214Y-15241500D01*
X13115500Y-15270071D01*
X13115500Y-15427214D01*
X13115500Y-15270071D02*
X13129786Y-15241500D01*
X13158357Y-15227214D01*
X13201214Y-15227214D01*
X13229786Y-15241500D01*
X13244071Y-15270071D01*
X13244071Y-15427214D01*
X13829786Y-15112929D02*
X13572643Y-15498643D01*
X14215500Y-15127214D02*
X14244071Y-15127214D01*
X14272643Y-15141500D01*
X14286928Y-15155786D01*
X14301214Y-15184357D01*
X14315500Y-15241500D01*
X14315500Y-15312929D01*
X14301214Y-15370071D01*
X14286928Y-15398643D01*
X14272643Y-15412929D01*
X14244071Y-15427214D01*
X14215500Y-15427214D01*
X14186928Y-15412929D01*
X14172643Y-15398643D01*
X14158357Y-15370071D01*
X14144071Y-15312929D01*
X14144071Y-15241500D01*
X14158357Y-15184357D01*
X14172643Y-15155786D01*
X14186928Y-15141500D01*
X14215500Y-15127214D01*
X14444071Y-15398643D02*
X14458357Y-15412929D01*
X14444071Y-15427214D01*
X14429786Y-15412929D01*
X14444071Y-15398643D01*
X14444071Y-15427214D01*
X14644071Y-15127214D02*
X14672643Y-15127214D01*
X14701214Y-15141500D01*
X14715500Y-15155786D01*
X14729786Y-15184357D01*
X14744071Y-15241500D01*
X14744071Y-15312929D01*
X14729786Y-15370071D01*
X14715500Y-15398643D01*
X14701214Y-15412929D01*
X14672643Y-15427214D01*
X14644071Y-15427214D01*
X14615500Y-15412929D01*
X14601214Y-15398643D01*
X14586928Y-15370071D01*
X14572643Y-15312929D01*
X14572643Y-15241500D01*
X14586928Y-15184357D01*
X14601214Y-15155786D01*
X14615500Y-15141500D01*
X14644071Y-15127214D01*
X15015500Y-15127214D02*
X14872643Y-15127214D01*
X14858357Y-15270071D01*
X14872643Y-15255786D01*
X14901214Y-15241500D01*
X14972643Y-15241500D01*
X15001214Y-15255786D01*
X15015500Y-15270071D01*
X15029786Y-15298643D01*
X15029786Y-15370071D01*
X15015500Y-15398643D01*
X15001214Y-15412929D01*
X14972643Y-15427214D01*
X14901214Y-15427214D01*
X14872643Y-15412929D01*
X14858357Y-15398643D01*
X15172643Y-15427214D02*
X15229786Y-15427214D01*
X15258357Y-15412929D01*
X15272643Y-15398643D01*
X15301214Y-15355786D01*
X15315500Y-15298643D01*
X15315500Y-15184357D01*
X15301214Y-15155786D01*
X15286928Y-15141500D01*
X15258357Y-15127214D01*
X15201214Y-15127214D01*
X15172643Y-15141500D01*
X15158357Y-15155786D01*
X15144071Y-15184357D01*
X15144071Y-15255786D01*
X15158357Y-15284357D01*
X15172643Y-15298643D01*
X15201214Y-15312929D01*
X15258357Y-15312929D01*
X15286928Y-15298643D01*
X15301214Y-15284357D01*
X15315500Y-15255786D01*
X15429786Y-15127214D02*
X15429786Y-15184357D01*
X15544071Y-15127214D02*
X15544071Y-15184357D01*
X15986928Y-15541500D02*
X15972643Y-15527214D01*
X15944071Y-15484357D01*
X15929786Y-15455786D01*
X15915500Y-15412929D01*
X15901214Y-15341500D01*
X15901214Y-15284357D01*
X15915500Y-15212929D01*
X15929786Y-15170071D01*
X15944071Y-15141500D01*
X15972643Y-15098643D01*
X15986928Y-15084357D01*
X16229786Y-15227214D02*
X16229786Y-15427214D01*
X16158357Y-15112929D02*
X16086928Y-15327214D01*
X16272643Y-15327214D01*
X16615500Y-15427214D02*
X16615500Y-15127214D01*
X16744071Y-15427214D02*
X16744071Y-15270071D01*
X16729786Y-15241500D01*
X16701214Y-15227214D01*
X16658357Y-15227214D01*
X16629786Y-15241500D01*
X16615500Y-15255786D01*
X16929786Y-15427214D02*
X16901214Y-15412929D01*
X16886928Y-15398643D01*
X16872643Y-15370071D01*
X16872643Y-15284357D01*
X16886928Y-15255786D01*
X16901214Y-15241500D01*
X16929786Y-15227214D01*
X16972643Y-15227214D01*
X17001214Y-15241500D01*
X17015500Y-15255786D01*
X17029786Y-15284357D01*
X17029786Y-15370071D01*
X17015500Y-15398643D01*
X17001214Y-15412929D01*
X16972643Y-15427214D01*
X16929786Y-15427214D01*
X17201214Y-15427214D02*
X17172643Y-15412929D01*
X17158357Y-15384357D01*
X17158357Y-15127214D01*
X17429786Y-15412929D02*
X17401214Y-15427214D01*
X17344071Y-15427214D01*
X17315500Y-15412929D01*
X17301214Y-15384357D01*
X17301214Y-15270071D01*
X17315500Y-15241500D01*
X17344071Y-15227214D01*
X17401214Y-15227214D01*
X17429786Y-15241500D01*
X17444071Y-15270071D01*
X17444071Y-15298643D01*
X17301214Y-15327214D01*
X17558357Y-15412929D02*
X17586928Y-15427214D01*
X17644071Y-15427214D01*
X17672643Y-15412929D01*
X17686928Y-15384357D01*
X17686928Y-15370071D01*
X17672643Y-15341500D01*
X17644071Y-15327214D01*
X17601214Y-15327214D01*
X17572643Y-15312929D01*
X17558357Y-15284357D01*
X17558357Y-15270071D01*
X17572643Y-15241500D01*
X17601214Y-15227214D01*
X17644071Y-15227214D01*
X17672643Y-15241500D01*
X17786928Y-15541500D02*
X17801214Y-15527214D01*
X17829786Y-15484357D01*
X17844071Y-15455786D01*
X17858357Y-15412929D01*
X17872643Y-15341500D01*
X17872643Y-15284357D01*
X17858357Y-15212929D01*
X17844071Y-15170071D01*
X17829786Y-15141500D01*
X17801214Y-15098643D01*
X17786928Y-15084357D01*
X11140500Y-15607500D02*
X11300500Y-15767500D01*
X11300500Y-15607500D02*
X11140500Y-15767500D01*
X11220500Y-15767500D02*
X11300500Y-15687500D01*
X11220500Y-15607500D01*
X11140500Y-15687500D01*
X11220500Y-15767500D01*
X11744071Y-15823214D02*
X11572643Y-15823214D01*
X11658357Y-15823214D02*
X11658357Y-15523214D01*
X11629786Y-15566071D01*
X11601214Y-15594643D01*
X11572643Y-15608929D01*
X11872643Y-15794643D02*
X11886928Y-15808929D01*
X11872643Y-15823214D01*
X11858357Y-15808929D01*
X11872643Y-15794643D01*
X11872643Y-15823214D01*
X12144071Y-15523214D02*
X12086928Y-15523214D01*
X12058357Y-15537500D01*
X12044071Y-15551786D01*
X12015500Y-15594643D01*
X12001214Y-15651786D01*
X12001214Y-15766071D01*
X12015500Y-15794643D01*
X12029786Y-15808929D01*
X12058357Y-15823214D01*
X12115500Y-15823214D01*
X12144071Y-15808929D01*
X12158357Y-15794643D01*
X12172643Y-15766071D01*
X12172643Y-15694643D01*
X12158357Y-15666071D01*
X12144071Y-15651786D01*
X12115500Y-15637500D01*
X12058357Y-15637500D01*
X12029786Y-15651786D01*
X12015500Y-15666071D01*
X12001214Y-15694643D01*
X12358357Y-15523214D02*
X12386928Y-15523214D01*
X12415500Y-15537500D01*
X12429786Y-15551786D01*
X12444071Y-15580357D01*
X12458357Y-15637500D01*
X12458357Y-15708929D01*
X12444071Y-15766071D01*
X12429786Y-15794643D01*
X12415500Y-15808929D01*
X12386928Y-15823214D01*
X12358357Y-15823214D01*
X12329786Y-15808929D01*
X12315500Y-15794643D01*
X12301214Y-15766071D01*
X12286928Y-15708929D01*
X12286928Y-15637500D01*
X12301214Y-15580357D01*
X12315500Y-15551786D01*
X12329786Y-15537500D01*
X12358357Y-15523214D01*
X12586928Y-15823214D02*
X12586928Y-15623214D01*
X12586928Y-15651786D02*
X12601214Y-15637500D01*
X12629786Y-15623214D01*
X12672643Y-15623214D01*
X12701214Y-15637500D01*
X12715500Y-15666071D01*
X12715500Y-15823214D01*
X12715500Y-15666071D02*
X12729786Y-15637500D01*
X12758357Y-15623214D01*
X12801214Y-15623214D01*
X12829786Y-15637500D01*
X12844071Y-15666071D01*
X12844071Y-15823214D01*
X12986928Y-15823214D02*
X12986928Y-15623214D01*
X12986928Y-15651786D02*
X13001214Y-15637500D01*
X13029786Y-15623214D01*
X13072643Y-15623214D01*
X13101214Y-15637500D01*
X13115500Y-15666071D01*
X13115500Y-15823214D01*
X13115500Y-15666071D02*
X13129786Y-15637500D01*
X13158357Y-15623214D01*
X13201214Y-15623214D01*
X13229786Y-15637500D01*
X13244071Y-15666071D01*
X13244071Y-15823214D01*
X13829786Y-15508929D02*
X13572643Y-15894643D01*
X14215500Y-15523214D02*
X14244071Y-15523214D01*
X14272643Y-15537500D01*
X14286928Y-15551786D01*
X14301214Y-15580357D01*
X14315500Y-15637500D01*
X14315500Y-15708929D01*
X14301214Y-15766071D01*
X14286928Y-15794643D01*
X14272643Y-15808929D01*
X14244071Y-15823214D01*
X14215500Y-15823214D01*
X14186928Y-15808929D01*
X14172643Y-15794643D01*
X14158357Y-15766071D01*
X14144071Y-15708929D01*
X14144071Y-15637500D01*
X14158357Y-15580357D01*
X14172643Y-15551786D01*
X14186928Y-15537500D01*
X14215500Y-15523214D01*
X14444071Y-15794643D02*
X14458357Y-15808929D01*
X14444071Y-15823214D01*
X14429786Y-15808929D01*
X14444071Y-15794643D01*
X14444071Y-15823214D01*
X14644071Y-15523214D02*
X14672643Y-15523214D01*
X14701214Y-15537500D01*
X14715500Y-15551786D01*
X14729786Y-15580357D01*
X14744071Y-15637500D01*
X14744071Y-15708929D01*
X14729786Y-15766071D01*
X14715500Y-15794643D01*
X14701214Y-15808929D01*
X14672643Y-15823214D01*
X14644071Y-15823214D01*
X14615500Y-15808929D01*
X14601214Y-15794643D01*
X14586928Y-15766071D01*
X14572643Y-15708929D01*
X14572643Y-15637500D01*
X14586928Y-15580357D01*
X14601214Y-15551786D01*
X14615500Y-15537500D01*
X14644071Y-15523214D01*
X15001214Y-15523214D02*
X14944071Y-15523214D01*
X14915500Y-15537500D01*
X14901214Y-15551786D01*
X14872643Y-15594643D01*
X14858357Y-15651786D01*
X14858357Y-15766071D01*
X14872643Y-15794643D01*
X14886928Y-15808929D01*
X14915500Y-15823214D01*
X14972643Y-15823214D01*
X15001214Y-15808929D01*
X15015500Y-15794643D01*
X15029786Y-15766071D01*
X15029786Y-15694643D01*
X15015500Y-15666071D01*
X15001214Y-15651786D01*
X14972643Y-15637500D01*
X14915500Y-15637500D01*
X14886928Y-15651786D01*
X14872643Y-15666071D01*
X14858357Y-15694643D01*
X15129786Y-15523214D02*
X15315500Y-15523214D01*
X15215500Y-15637500D01*
X15258357Y-15637500D01*
X15286928Y-15651786D01*
X15301214Y-15666071D01*
X15315500Y-15694643D01*
X15315500Y-15766071D01*
X15301214Y-15794643D01*
X15286928Y-15808929D01*
X15258357Y-15823214D01*
X15172643Y-15823214D01*
X15144071Y-15808929D01*
X15129786Y-15794643D01*
X15429786Y-15523214D02*
X15429786Y-15580357D01*
X15544071Y-15523214D02*
X15544071Y-15580357D01*
X15986928Y-15937500D02*
X15972643Y-15923214D01*
X15944071Y-15880357D01*
X15929786Y-15851786D01*
X15915500Y-15808929D01*
X15901214Y-15737500D01*
X15901214Y-15680357D01*
X15915500Y-15608929D01*
X15929786Y-15566071D01*
X15944071Y-15537500D01*
X15972643Y-15494643D01*
X15986928Y-15480357D01*
X16258357Y-15823214D02*
X16086928Y-15823214D01*
X16172643Y-15823214D02*
X16172643Y-15523214D01*
X16144071Y-15566071D01*
X16115500Y-15594643D01*
X16086928Y-15608929D01*
X16444071Y-15523214D02*
X16472643Y-15523214D01*
X16501214Y-15537500D01*
X16515500Y-15551786D01*
X16529786Y-15580357D01*
X16544071Y-15637500D01*
X16544071Y-15708929D01*
X16529786Y-15766071D01*
X16515500Y-15794643D01*
X16501214Y-15808929D01*
X16472643Y-15823214D01*
X16444071Y-15823214D01*
X16415500Y-15808929D01*
X16401214Y-15794643D01*
X16386928Y-15766071D01*
X16372643Y-15708929D01*
X16372643Y-15637500D01*
X16386928Y-15580357D01*
X16401214Y-15551786D01*
X16415500Y-15537500D01*
X16444071Y-15523214D01*
X16901214Y-15823214D02*
X16901214Y-15523214D01*
X17029786Y-15823214D02*
X17029786Y-15666071D01*
X17015500Y-15637500D01*
X16986928Y-15623214D01*
X16944071Y-15623214D01*
X16915500Y-15637500D01*
X16901214Y-15651786D01*
X17215500Y-15823214D02*
X17186928Y-15808929D01*
X17172643Y-15794643D01*
X17158357Y-15766071D01*
X17158357Y-15680357D01*
X17172643Y-15651786D01*
X17186928Y-15637500D01*
X17215500Y-15623214D01*
X17258357Y-15623214D01*
X17286928Y-15637500D01*
X17301214Y-15651786D01*
X17315500Y-15680357D01*
X17315500Y-15766071D01*
X17301214Y-15794643D01*
X17286928Y-15808929D01*
X17258357Y-15823214D01*
X17215500Y-15823214D01*
X17486928Y-15823214D02*
X17458357Y-15808929D01*
X17444071Y-15780357D01*
X17444071Y-15523214D01*
X17715500Y-15808929D02*
X17686928Y-15823214D01*
X17629786Y-15823214D01*
X17601214Y-15808929D01*
X17586928Y-15780357D01*
X17586928Y-15666071D01*
X17601214Y-15637500D01*
X17629786Y-15623214D01*
X17686928Y-15623214D01*
X17715500Y-15637500D01*
X17729786Y-15666071D01*
X17729786Y-15694643D01*
X17586928Y-15723214D01*
X17844071Y-15808929D02*
X17872643Y-15823214D01*
X17929786Y-15823214D01*
X17958357Y-15808929D01*
X17972643Y-15780357D01*
X17972643Y-15766071D01*
X17958357Y-15737500D01*
X17929786Y-15723214D01*
X17886928Y-15723214D01*
X17858357Y-15708929D01*
X17844071Y-15680357D01*
X17844071Y-15666071D01*
X17858357Y-15637500D01*
X17886928Y-15623214D01*
X17929786Y-15623214D01*
X17958357Y-15637500D01*
X18072643Y-15937500D02*
X18086928Y-15923214D01*
X18115500Y-15880357D01*
X18129786Y-15851786D01*
X18144071Y-15808929D01*
X18158357Y-15737500D01*
X18158357Y-15680357D01*
X18144071Y-15608929D01*
X18129786Y-15566071D01*
X18115500Y-15537500D01*
X18086928Y-15494643D01*
X18072643Y-15480357D01*
X11140500Y-15923500D02*
X11140500Y-16243500D01*
X10980500Y-16083500D02*
X11300500Y-16083500D01*
X11300500Y-16083500D02*
G75*
G03X11300500Y-16083500I-160000J0D01*
G01*
X11558357Y-15919214D02*
X11744071Y-15919214D01*
X11644071Y-16033500D01*
X11686928Y-16033500D01*
X11715500Y-16047786D01*
X11729786Y-16062071D01*
X11744071Y-16090643D01*
X11744071Y-16162071D01*
X11729786Y-16190643D01*
X11715500Y-16204929D01*
X11686928Y-16219214D01*
X11601214Y-16219214D01*
X11572643Y-16204929D01*
X11558357Y-16190643D01*
X11872643Y-16190643D02*
X11886928Y-16204929D01*
X11872643Y-16219214D01*
X11858357Y-16204929D01*
X11872643Y-16190643D01*
X11872643Y-16219214D01*
X12001214Y-15947786D02*
X12015500Y-15933500D01*
X12044071Y-15919214D01*
X12115500Y-15919214D01*
X12144071Y-15933500D01*
X12158357Y-15947786D01*
X12172643Y-15976357D01*
X12172643Y-16004929D01*
X12158357Y-16047786D01*
X11986928Y-16219214D01*
X12172643Y-16219214D01*
X12358357Y-15919214D02*
X12386928Y-15919214D01*
X12415500Y-15933500D01*
X12429786Y-15947786D01*
X12444071Y-15976357D01*
X12458357Y-16033500D01*
X12458357Y-16104929D01*
X12444071Y-16162071D01*
X12429786Y-16190643D01*
X12415500Y-16204929D01*
X12386928Y-16219214D01*
X12358357Y-16219214D01*
X12329786Y-16204929D01*
X12315500Y-16190643D01*
X12301214Y-16162071D01*
X12286928Y-16104929D01*
X12286928Y-16033500D01*
X12301214Y-15976357D01*
X12315500Y-15947786D01*
X12329786Y-15933500D01*
X12358357Y-15919214D01*
X12586928Y-16219214D02*
X12586928Y-16019214D01*
X12586928Y-16047786D02*
X12601214Y-16033500D01*
X12629786Y-16019214D01*
X12672643Y-16019214D01*
X12701214Y-16033500D01*
X12715500Y-16062071D01*
X12715500Y-16219214D01*
X12715500Y-16062071D02*
X12729786Y-16033500D01*
X12758357Y-16019214D01*
X12801214Y-16019214D01*
X12829786Y-16033500D01*
X12844071Y-16062071D01*
X12844071Y-16219214D01*
X12986928Y-16219214D02*
X12986928Y-16019214D01*
X12986928Y-16047786D02*
X13001214Y-16033500D01*
X13029786Y-16019214D01*
X13072643Y-16019214D01*
X13101214Y-16033500D01*
X13115500Y-16062071D01*
X13115500Y-16219214D01*
X13115500Y-16062071D02*
X13129786Y-16033500D01*
X13158357Y-16019214D01*
X13201214Y-16019214D01*
X13229786Y-16033500D01*
X13244071Y-16062071D01*
X13244071Y-16219214D01*
X13829786Y-15904929D02*
X13572643Y-16290643D01*
X14215500Y-15919214D02*
X14244071Y-15919214D01*
X14272643Y-15933500D01*
X14286928Y-15947786D01*
X14301214Y-15976357D01*
X14315500Y-16033500D01*
X14315500Y-16104929D01*
X14301214Y-16162071D01*
X14286928Y-16190643D01*
X14272643Y-16204929D01*
X14244071Y-16219214D01*
X14215500Y-16219214D01*
X14186928Y-16204929D01*
X14172643Y-16190643D01*
X14158357Y-16162071D01*
X14144071Y-16104929D01*
X14144071Y-16033500D01*
X14158357Y-15976357D01*
X14172643Y-15947786D01*
X14186928Y-15933500D01*
X14215500Y-15919214D01*
X14444071Y-16190643D02*
X14458357Y-16204929D01*
X14444071Y-16219214D01*
X14429786Y-16204929D01*
X14444071Y-16190643D01*
X14444071Y-16219214D01*
X14744071Y-16219214D02*
X14572643Y-16219214D01*
X14658357Y-16219214D02*
X14658357Y-15919214D01*
X14629786Y-15962071D01*
X14601214Y-15990643D01*
X14572643Y-16004929D01*
X14858357Y-15947786D02*
X14872643Y-15933500D01*
X14901214Y-15919214D01*
X14972643Y-15919214D01*
X15001214Y-15933500D01*
X15015500Y-15947786D01*
X15029786Y-15976357D01*
X15029786Y-16004929D01*
X15015500Y-16047786D01*
X14844071Y-16219214D01*
X15029786Y-16219214D01*
X15286928Y-15919214D02*
X15229786Y-15919214D01*
X15201214Y-15933500D01*
X15186928Y-15947786D01*
X15158357Y-15990643D01*
X15144071Y-16047786D01*
X15144071Y-16162071D01*
X15158357Y-16190643D01*
X15172643Y-16204929D01*
X15201214Y-16219214D01*
X15258357Y-16219214D01*
X15286928Y-16204929D01*
X15301214Y-16190643D01*
X15315500Y-16162071D01*
X15315500Y-16090643D01*
X15301214Y-16062071D01*
X15286928Y-16047786D01*
X15258357Y-16033500D01*
X15201214Y-16033500D01*
X15172643Y-16047786D01*
X15158357Y-16062071D01*
X15144071Y-16090643D01*
X15429786Y-15919214D02*
X15429786Y-15976357D01*
X15544071Y-15919214D02*
X15544071Y-15976357D01*
X15986928Y-16333500D02*
X15972643Y-16319214D01*
X15944071Y-16276357D01*
X15929786Y-16247786D01*
X15915500Y-16204929D01*
X15901214Y-16133500D01*
X15901214Y-16076357D01*
X15915500Y-16004929D01*
X15929786Y-15962071D01*
X15944071Y-15933500D01*
X15972643Y-15890643D01*
X15986928Y-15876357D01*
X16229786Y-16019214D02*
X16229786Y-16219214D01*
X16158357Y-15904929D02*
X16086928Y-16119214D01*
X16272643Y-16119214D01*
X16615500Y-16219214D02*
X16615500Y-15919214D01*
X16744071Y-16219214D02*
X16744071Y-16062071D01*
X16729786Y-16033500D01*
X16701214Y-16019214D01*
X16658357Y-16019214D01*
X16629786Y-16033500D01*
X16615500Y-16047786D01*
X16929786Y-16219214D02*
X16901214Y-16204929D01*
X16886928Y-16190643D01*
X16872643Y-16162071D01*
X16872643Y-16076357D01*
X16886928Y-16047786D01*
X16901214Y-16033500D01*
X16929786Y-16019214D01*
X16972643Y-16019214D01*
X17001214Y-16033500D01*
X17015500Y-16047786D01*
X17029786Y-16076357D01*
X17029786Y-16162071D01*
X17015500Y-16190643D01*
X17001214Y-16204929D01*
X16972643Y-16219214D01*
X16929786Y-16219214D01*
X17201214Y-16219214D02*
X17172643Y-16204929D01*
X17158357Y-16176357D01*
X17158357Y-15919214D01*
X17429786Y-16204929D02*
X17401214Y-16219214D01*
X17344071Y-16219214D01*
X17315500Y-16204929D01*
X17301214Y-16176357D01*
X17301214Y-16062071D01*
X17315500Y-16033500D01*
X17344071Y-16019214D01*
X17401214Y-16019214D01*
X17429786Y-16033500D01*
X17444071Y-16062071D01*
X17444071Y-16090643D01*
X17301214Y-16119214D01*
X17558357Y-16204929D02*
X17586928Y-16219214D01*
X17644071Y-16219214D01*
X17672643Y-16204929D01*
X17686928Y-16176357D01*
X17686928Y-16162071D01*
X17672643Y-16133500D01*
X17644071Y-16119214D01*
X17601214Y-16119214D01*
X17572643Y-16104929D01*
X17558357Y-16076357D01*
X17558357Y-16062071D01*
X17572643Y-16033500D01*
X17601214Y-16019214D01*
X17644071Y-16019214D01*
X17672643Y-16033500D01*
X17786928Y-16333500D02*
X17801214Y-16319214D01*
X17829786Y-16276357D01*
X17844071Y-16247786D01*
X17858357Y-16204929D01*
X17872643Y-16133500D01*
X17872643Y-16076357D01*
X17858357Y-16004929D01*
X17844071Y-15962071D01*
X17829786Y-15933500D01*
X17801214Y-15890643D01*
X17786928Y-15876357D01*
X18329786Y-16333500D02*
X18315500Y-16319214D01*
X18286928Y-16276357D01*
X18272643Y-16247786D01*
X18258357Y-16204929D01*
X18244071Y-16133500D01*
X18244071Y-16076357D01*
X18258357Y-16004929D01*
X18272643Y-15962071D01*
X18286928Y-15933500D01*
X18315500Y-15890643D01*
X18329786Y-15876357D01*
X18444071Y-16019214D02*
X18444071Y-16219214D01*
X18444071Y-16047786D02*
X18458357Y-16033500D01*
X18486928Y-16019214D01*
X18529786Y-16019214D01*
X18558357Y-16033500D01*
X18572643Y-16062071D01*
X18572643Y-16219214D01*
X18758357Y-16219214D02*
X18729786Y-16204929D01*
X18715500Y-16190643D01*
X18701214Y-16162071D01*
X18701214Y-16076357D01*
X18715500Y-16047786D01*
X18729786Y-16033500D01*
X18758357Y-16019214D01*
X18801214Y-16019214D01*
X18829786Y-16033500D01*
X18844071Y-16047786D01*
X18858357Y-16076357D01*
X18858357Y-16162071D01*
X18844071Y-16190643D01*
X18829786Y-16204929D01*
X18801214Y-16219214D01*
X18758357Y-16219214D01*
X18944071Y-16019214D02*
X19058357Y-16019214D01*
X18986928Y-15919214D02*
X18986928Y-16176357D01*
X19001214Y-16204929D01*
X19029786Y-16219214D01*
X19058357Y-16219214D01*
X19386928Y-16019214D02*
X19386928Y-16319214D01*
X19386928Y-16033500D02*
X19415500Y-16019214D01*
X19472643Y-16019214D01*
X19501214Y-16033500D01*
X19515500Y-16047786D01*
X19529786Y-16076357D01*
X19529786Y-16162071D01*
X19515500Y-16190643D01*
X19501214Y-16204929D01*
X19472643Y-16219214D01*
X19415500Y-16219214D01*
X19386928Y-16204929D01*
X19701214Y-16219214D02*
X19672643Y-16204929D01*
X19658357Y-16176357D01*
X19658357Y-15919214D01*
X19944071Y-16219214D02*
X19944071Y-16062071D01*
X19929786Y-16033500D01*
X19901214Y-16019214D01*
X19844071Y-16019214D01*
X19815500Y-16033500D01*
X19944071Y-16204929D02*
X19915500Y-16219214D01*
X19844071Y-16219214D01*
X19815500Y-16204929D01*
X19801214Y-16176357D01*
X19801214Y-16147786D01*
X19815500Y-16119214D01*
X19844071Y-16104929D01*
X19915500Y-16104929D01*
X19944071Y-16090643D01*
X20044071Y-16019214D02*
X20158357Y-16019214D01*
X20086928Y-15919214D02*
X20086928Y-16176357D01*
X20101214Y-16204929D01*
X20129786Y-16219214D01*
X20158357Y-16219214D01*
X20372643Y-16204929D02*
X20344071Y-16219214D01*
X20286928Y-16219214D01*
X20258357Y-16204929D01*
X20244071Y-16176357D01*
X20244071Y-16062071D01*
X20258357Y-16033500D01*
X20286928Y-16019214D01*
X20344071Y-16019214D01*
X20372643Y-16033500D01*
X20386928Y-16062071D01*
X20386928Y-16090643D01*
X20244071Y-16119214D01*
X20644071Y-16219214D02*
X20644071Y-15919214D01*
X20644071Y-16204929D02*
X20615500Y-16219214D01*
X20558357Y-16219214D01*
X20529786Y-16204929D01*
X20515500Y-16190643D01*
X20501214Y-16162071D01*
X20501214Y-16076357D01*
X20515500Y-16047786D01*
X20529786Y-16033500D01*
X20558357Y-16019214D01*
X20615500Y-16019214D01*
X20644071Y-16033500D01*
X20758357Y-16333500D02*
X20772643Y-16319214D01*
X20801214Y-16276357D01*
X20815500Y-16247786D01*
X20829786Y-16204929D01*
X20844071Y-16133500D01*
X20844071Y-16076357D01*
X20829786Y-16004929D01*
X20815500Y-15962071D01*
X20801214Y-15933500D01*
X20772643Y-15890643D01*
X20758357Y-15876357D01*
M02*
